solid OpenSCAD_Model
  facet normal 0 0 -1
    outer loop
      vertex 45 0 0
      vertex 40 10 0
      vertex 45 56.5 0
    endloop
  endfacet
  facet normal 0 0 -1
    outer loop
      vertex 45 0 0
      vertex 35 5 0
      vertex 40 10 0
    endloop
  endfacet
  facet normal 0 0 -1
    outer loop
      vertex 0 0 0
      vertex 35 5 0
      vertex 45 0 0
    endloop
  endfacet
  facet normal -0 0 -1
    outer loop
      vertex 35 5 0
      vertex 0 0 0
      vertex 0 5 0
    endloop
  endfacet
  facet normal -0 0 -1
    outer loop
      vertex 45 56.5 0
      vertex 40 10 0
      vertex 40 56.5 0
    endloop
  endfacet
  facet normal 0 0 1
    outer loop
      vertex 40 10 20
      vertex 45 56.5 20
      vertex 40 56.5 20
    endloop
  endfacet
  facet normal 0 0 1
    outer loop
      vertex 45 56.5 20
      vertex 40 10 20
      vertex 45 0 20
    endloop
  endfacet
  facet normal -0 0 1
    outer loop
      vertex 35 5 20
      vertex 45 0 20
      vertex 40 10 20
    endloop
  endfacet
  facet normal 0 0 1
    outer loop
      vertex 0 0 20
      vertex 35 5 20
      vertex 0 5 20
    endloop
  endfacet
  facet normal 0 0 1
    outer loop
      vertex 35 5 20
      vertex 0 0 20
      vertex 45 0 20
    endloop
  endfacet
  facet normal -1 0 0
    outer loop
      vertex 0 0 0
      vertex 0 5 20
      vertex 0 5 0
    endloop
  endfacet
  facet normal -1 -0 0
    outer loop
      vertex 0 5 20
      vertex 0 0 0
      vertex 0 0 20
    endloop
  endfacet
  facet normal 0 -1 0
    outer loop
      vertex 0 0 20
      vertex 20 0 12.5
      vertex 45 0 20
    endloop
  endfacet
  facet normal 0 -1 0
    outer loop
      vertex 0 0 20
      vertex 19.2275 0 12.3776
      vertex 20 0 12.5
    endloop
  endfacet
  facet normal 0 -1 0
    outer loop
      vertex 0 0 20
      vertex 18.5305 0 12.0225
      vertex 19.2275 0 12.3776
    endloop
  endfacet
  facet normal 0 -1 0
    outer loop
      vertex 0 0 20
      vertex 17.9775 0 11.4695
      vertex 18.5305 0 12.0225
    endloop
  endfacet
  facet normal 0 -1 0
    outer loop
      vertex 0 0 20
      vertex 17.6224 0 10.7725
      vertex 17.9775 0 11.4695
    endloop
  endfacet
  facet normal 0 -1 0
    outer loop
      vertex 0 0 20
      vertex 17.5 0 10
      vertex 17.6224 0 10.7725
    endloop
  endfacet
  facet normal 0 -1 0
    outer loop
      vertex 0 0 0
      vertex 17.5 0 10
      vertex 0 0 20
    endloop
  endfacet
  facet normal 0 -1 -0
    outer loop
      vertex 17.5 0 10
      vertex 0 0 0
      vertex 17.6224 0 9.22746
    endloop
  endfacet
  facet normal 0 -1 -0
    outer loop
      vertex 17.6224 0 9.22746
      vertex 0 0 0
      vertex 17.9775 0 8.53054
    endloop
  endfacet
  facet normal 0 -1 -0
    outer loop
      vertex 19.2275 0 7.62236
      vertex 0 0 0
      vertex 20 0 7.5
    endloop
  endfacet
  facet normal 0 -1 -0
    outer loop
      vertex 18.5305 0 7.97746
      vertex 0 0 0
      vertex 19.2275 0 7.62236
    endloop
  endfacet
  facet normal 0 -1 -0
    outer loop
      vertex 17.9775 0 8.53054
      vertex 0 0 0
      vertex 18.5305 0 7.97746
    endloop
  endfacet
  facet normal 0 -1 0
    outer loop
      vertex 20.7725 0 12.3776
      vertex 45 0 20
      vertex 20 0 12.5
    endloop
  endfacet
  facet normal 0 -1 0
    outer loop
      vertex 21.4695 0 12.0225
      vertex 45 0 20
      vertex 20.7725 0 12.3776
    endloop
  endfacet
  facet normal 0 -1 0
    outer loop
      vertex 22.0225 0 11.4695
      vertex 45 0 20
      vertex 21.4695 0 12.0225
    endloop
  endfacet
  facet normal 0 -1 0
    outer loop
      vertex 22.3776 0 10.7725
      vertex 45 0 20
      vertex 22.0225 0 11.4695
    endloop
  endfacet
  facet normal 0 -1 0
    outer loop
      vertex 22.5 0 10
      vertex 45 0 20
      vertex 22.3776 0 10.7725
    endloop
  endfacet
  facet normal 0 -1 0
    outer loop
      vertex 45 0 0
      vertex 22.5 0 10
      vertex 22.3776 0 9.22746
    endloop
  endfacet
  facet normal 0 -1 0
    outer loop
      vertex 45 0 0
      vertex 22.3776 0 9.22746
      vertex 22.0225 0 8.53054
    endloop
  endfacet
  facet normal 0 -1 0
    outer loop
      vertex 45 0 0
      vertex 22.0225 0 8.53054
      vertex 21.4695 0 7.97746
    endloop
  endfacet
  facet normal 0 -1 0
    outer loop
      vertex 45 0 0
      vertex 20 0 7.5
      vertex 0 0 0
    endloop
  endfacet
  facet normal 0 -1 0
    outer loop
      vertex 22.5 0 10
      vertex 45 0 0
      vertex 45 0 20
    endloop
  endfacet
  facet normal 0 -1 0
    outer loop
      vertex 20.7725 0 7.62236
      vertex 45 0 0
      vertex 21.4695 0 7.97746
    endloop
  endfacet
  facet normal 0 -1 0
    outer loop
      vertex 20 0 7.5
      vertex 45 0 0
      vertex 20.7725 0 7.62236
    endloop
  endfacet
  facet normal 1 0 0
    outer loop
      vertex 45 56.5 20
      vertex 45 43 10
      vertex 45 56.5 0
    endloop
  endfacet
  facet normal 1 0 0
    outer loop
      vertex 45 56.5 20
      vertex 45 42.9266 10.4635
      vertex 45 43 10
    endloop
  endfacet
  facet normal 1 0 0
    outer loop
      vertex 45 56.5 20
      vertex 45 42.7135 10.8817
      vertex 45 42.9266 10.4635
    endloop
  endfacet
  facet normal 1 0 0
    outer loop
      vertex 45 56.5 20
      vertex 45 42.3817 11.2135
      vertex 45 42.7135 10.8817
    endloop
  endfacet
  facet normal 1 0 0
    outer loop
      vertex 45 56.5 20
      vertex 45 41.9635 11.4266
      vertex 45 42.3817 11.2135
    endloop
  endfacet
  facet normal 1 0 0
    outer loop
      vertex 45 56.5 20
      vertex 45 41.5 11.5
      vertex 45 41.9635 11.4266
    endloop
  endfacet
  facet normal 1 0 0
    outer loop
      vertex 45 56.5 20
      vertex 45 41.0365 11.4266
      vertex 45 41.5 11.5
    endloop
  endfacet
  facet normal 1 -0 0
    outer loop
      vertex 45 0 20
      vertex 45 41.0365 11.4266
      vertex 45 56.5 20
    endloop
  endfacet
  facet normal 1 0 0
    outer loop
      vertex 45 40.0734 10.4635
      vertex 45 0 20
      vertex 45 40 10
    endloop
  endfacet
  facet normal 1 0 0
    outer loop
      vertex 45 40.2865 10.8817
      vertex 45 0 20
      vertex 45 40.0734 10.4635
    endloop
  endfacet
  facet normal 1 0 0
    outer loop
      vertex 45 40.6183 11.2135
      vertex 45 0 20
      vertex 45 40.2865 10.8817
    endloop
  endfacet
  facet normal 1 0 0
    outer loop
      vertex 45 41.0365 11.4266
      vertex 45 0 20
      vertex 45 40.6183 11.2135
    endloop
  endfacet
  facet normal 1 -0 0
    outer loop
      vertex 45 42.9266 9.53647
      vertex 45 56.5 0
      vertex 45 43 10
    endloop
  endfacet
  facet normal 1 -0 0
    outer loop
      vertex 45 42.7135 9.11832
      vertex 45 56.5 0
      vertex 45 42.9266 9.53647
    endloop
  endfacet
  facet normal 1 -0 0
    outer loop
      vertex 45 42.3817 8.78647
      vertex 45 56.5 0
      vertex 45 42.7135 9.11832
    endloop
  endfacet
  facet normal 1 -0 0
    outer loop
      vertex 45 41.9635 8.57341
      vertex 45 56.5 0
      vertex 45 42.3817 8.78647
    endloop
  endfacet
  facet normal 1 -0 0
    outer loop
      vertex 45 41.5 8.5
      vertex 45 56.5 0
      vertex 45 41.9635 8.57341
    endloop
  endfacet
  facet normal 1 0 0
    outer loop
      vertex 45 41.0365 8.57341
      vertex 45 56.5 0
      vertex 45 41.5 8.5
    endloop
  endfacet
  facet normal 1 0 0
    outer loop
      vertex 45 0 0
      vertex 45 41.0365 8.57341
      vertex 45 40.6183 8.78647
    endloop
  endfacet
  facet normal 1 0 0
    outer loop
      vertex 45 0 0
      vertex 45 40 10
      vertex 45 0 20
    endloop
  endfacet
  facet normal 1 0 0
    outer loop
      vertex 45 40 10
      vertex 45 0 0
      vertex 45 40.0734 9.53647
    endloop
  endfacet
  facet normal 1 0 0
    outer loop
      vertex 45 40.0734 9.53647
      vertex 45 0 0
      vertex 45 40.2865 9.11832
    endloop
  endfacet
  facet normal 1 0 0
    outer loop
      vertex 45 40.2865 9.11832
      vertex 45 0 0
      vertex 45 40.6183 8.78647
    endloop
  endfacet
  facet normal 1 0 0
    outer loop
      vertex 45 41.0365 8.57341
      vertex 45 0 0
      vertex 45 56.5 0
    endloop
  endfacet
  facet normal 0 1 -0
    outer loop
      vertex 45 56.5 0
      vertex 40 56.5 20
      vertex 45 56.5 20
    endloop
  endfacet
  facet normal 0 1 0
    outer loop
      vertex 40 56.5 20
      vertex 45 56.5 0
      vertex 40 56.5 0
    endloop
  endfacet
  facet normal -1 0 0
    outer loop
      vertex 40 56.5 0
      vertex 40 43 10
      vertex 40 56.5 20
    endloop
  endfacet
  facet normal -1 0 0
    outer loop
      vertex 40 56.5 0
      vertex 40 42.9266 9.53647
      vertex 40 43 10
    endloop
  endfacet
  facet normal -1 0 0
    outer loop
      vertex 40 56.5 0
      vertex 40 42.7135 9.11832
      vertex 40 42.9266 9.53647
    endloop
  endfacet
  facet normal -1 0 0
    outer loop
      vertex 40 56.5 0
      vertex 40 42.3817 8.78647
      vertex 40 42.7135 9.11832
    endloop
  endfacet
  facet normal -1 0 0
    outer loop
      vertex 40 56.5 0
      vertex 40 41.9635 8.57341
      vertex 40 42.3817 8.78647
    endloop
  endfacet
  facet normal -1 0 0
    outer loop
      vertex 40 56.5 0
      vertex 40 41.5 8.5
      vertex 40 41.9635 8.57341
    endloop
  endfacet
  facet normal -1 0 0
    outer loop
      vertex 40 56.5 0
      vertex 40 41.0365 8.57341
      vertex 40 41.5 8.5
    endloop
  endfacet
  facet normal -1 0 0
    outer loop
      vertex 40 10 0
      vertex 40 41.0365 8.57341
      vertex 40 56.5 0
    endloop
  endfacet
  facet normal -1 -0 0
    outer loop
      vertex 40 40.0734 9.53647
      vertex 40 10 0
      vertex 40 40 10
    endloop
  endfacet
  facet normal -1 -0 0
    outer loop
      vertex 40 40.2865 9.11832
      vertex 40 10 0
      vertex 40 40.0734 9.53647
    endloop
  endfacet
  facet normal -1 -0 0
    outer loop
      vertex 40 40.6183 8.78647
      vertex 40 10 0
      vertex 40 40.2865 9.11832
    endloop
  endfacet
  facet normal -1 -0 0
    outer loop
      vertex 40 41.0365 8.57341
      vertex 40 10 0
      vertex 40 40.6183 8.78647
    endloop
  endfacet
  facet normal -1 0 0
    outer loop
      vertex 40 42.9266 10.4635
      vertex 40 56.5 20
      vertex 40 43 10
    endloop
  endfacet
  facet normal -1 0 0
    outer loop
      vertex 40 42.7135 10.8817
      vertex 40 56.5 20
      vertex 40 42.9266 10.4635
    endloop
  endfacet
  facet normal -1 0 0
    outer loop
      vertex 40 42.3817 11.2135
      vertex 40 56.5 20
      vertex 40 42.7135 10.8817
    endloop
  endfacet
  facet normal -1 0 0
    outer loop
      vertex 40 41.9635 11.4266
      vertex 40 56.5 20
      vertex 40 42.3817 11.2135
    endloop
  endfacet
  facet normal -1 0 0
    outer loop
      vertex 40 41.5 11.5
      vertex 40 56.5 20
      vertex 40 41.9635 11.4266
    endloop
  endfacet
  facet normal -1 0 0
    outer loop
      vertex 40 41.0365 11.4266
      vertex 40 56.5 20
      vertex 40 41.5 11.5
    endloop
  endfacet
  facet normal -1 0 0
    outer loop
      vertex 40 10 20
      vertex 40 41.0365 11.4266
      vertex 40 40.6183 11.2135
    endloop
  endfacet
  facet normal -1 0 0
    outer loop
      vertex 40 10 20
      vertex 40 40 10
      vertex 40 10 0
    endloop
  endfacet
  facet normal -1 0 0
    outer loop
      vertex 40 40 10
      vertex 40 10 20
      vertex 40 40.0734 10.4635
    endloop
  endfacet
  facet normal -1 0 0
    outer loop
      vertex 40 40.0734 10.4635
      vertex 40 10 20
      vertex 40 40.2865 10.8817
    endloop
  endfacet
  facet normal -1 0 0
    outer loop
      vertex 40 40.2865 10.8817
      vertex 40 10 20
      vertex 40 40.6183 11.2135
    endloop
  endfacet
  facet normal -1 0 0
    outer loop
      vertex 40 41.0365 11.4266
      vertex 40 10 20
      vertex 40 56.5 20
    endloop
  endfacet
  facet normal -0.707107 0.707107 0
    outer loop
      vertex 35 5 0
      vertex 40 10 20
      vertex 40 10 0
    endloop
  endfacet
  facet normal -0.707107 0.707107 0
    outer loop
      vertex 40 10 20
      vertex 35 5 0
      vertex 35 5 20
    endloop
  endfacet
  facet normal 0 1 0
    outer loop
      vertex 35 5 20
      vertex 20 5 12.5
      vertex 0 5 20
    endloop
  endfacet
  facet normal 0 1 0
    outer loop
      vertex 35 5 20
      vertex 20.7725 5 12.3776
      vertex 20 5 12.5
    endloop
  endfacet
  facet normal 0 1 0
    outer loop
      vertex 35 5 20
      vertex 21.4695 5 12.0225
      vertex 20.7725 5 12.3776
    endloop
  endfacet
  facet normal 0 1 0
    outer loop
      vertex 35 5 20
      vertex 22.0225 5 11.4695
      vertex 21.4695 5 12.0225
    endloop
  endfacet
  facet normal 0 1 0
    outer loop
      vertex 35 5 20
      vertex 22.3776 5 10.7725
      vertex 22.0225 5 11.4695
    endloop
  endfacet
  facet normal 0 1 0
    outer loop
      vertex 35 5 20
      vertex 22.5 5 10
      vertex 22.3776 5 10.7725
    endloop
  endfacet
  facet normal 0 1 -0
    outer loop
      vertex 35 5 0
      vertex 22.5 5 10
      vertex 35 5 20
    endloop
  endfacet
  facet normal 0 1 0
    outer loop
      vertex 22.5 5 10
      vertex 35 5 0
      vertex 22.3776 5 9.22746
    endloop
  endfacet
  facet normal 0 1 0
    outer loop
      vertex 22.0225 5 8.53054
      vertex 35 5 0
      vertex 17.9775 5 8.53054
    endloop
  endfacet
  facet normal 0 1 0
    outer loop
      vertex 22.3776 5 9.22746
      vertex 35 5 0
      vertex 22.0225 5 8.53054
    endloop
  endfacet
  facet normal 0 1 -0
    outer loop
      vertex 19.2275 5 12.3776
      vertex 0 5 20
      vertex 20 5 12.5
    endloop
  endfacet
  facet normal 0 1 -0
    outer loop
      vertex 18.5305 5 12.0225
      vertex 0 5 20
      vertex 19.2275 5 12.3776
    endloop
  endfacet
  facet normal 0 1 -0
    outer loop
      vertex 17.9775 5 11.4695
      vertex 0 5 20
      vertex 18.5305 5 12.0225
    endloop
  endfacet
  facet normal 0 1 -0
    outer loop
      vertex 17.6224 5 10.7725
      vertex 0 5 20
      vertex 17.9775 5 11.4695
    endloop
  endfacet
  facet normal 0 1 -0
    outer loop
      vertex 17.5 5 10
      vertex 0 5 20
      vertex 17.6224 5 10.7725
    endloop
  endfacet
  facet normal 0 1 0
    outer loop
      vertex 0 5 0
      vertex 17.5 5 10
      vertex 17.6224 5 9.22746
    endloop
  endfacet
  facet normal 0 1 0
    outer loop
      vertex 0 5 0
      vertex 17.6224 5 9.22746
      vertex 17.9775 5 8.53054
    endloop
  endfacet
  facet normal 0 1 0
    outer loop
      vertex 17.5 5 10
      vertex 0 5 0
      vertex 0 5 20
    endloop
  endfacet
  facet normal 0 1 0
    outer loop
      vertex 0 5 0
      vertex 17.9775 5 8.53054
      vertex 35 5 0
    endloop
  endfacet
  facet normal -0.987688 0 0.156436
    outer loop
      vertex 22.3776 0 9.22746
      vertex 22.5 5 10
      vertex 22.3776 5 9.22746
    endloop
  endfacet
  facet normal -0.987688 0 0.156436
    outer loop
      vertex 22.5 5 10
      vertex 22.3776 0 9.22746
      vertex 22.5 0 10
    endloop
  endfacet
  facet normal -0.45399 0 -0.891007
    outer loop
      vertex 20.7725 0 12.3776
      vertex 21.4695 5 12.0225
      vertex 21.4695 0 12.0225
    endloop
  endfacet
  facet normal -0.45399 0 -0.891007
    outer loop
      vertex 21.4695 5 12.0225
      vertex 20.7725 0 12.3776
      vertex 20.7725 5 12.3776
    endloop
  endfacet
  facet normal -2.12683e-07 -1 1.34283e-06
    outer loop
      vertex 20.7725 5 7.62236
      vertex 22.0225 5 8.53054
      vertex 20 5 7.5
    endloop
  endfacet
  facet normal 0.156435 0 -0.987688
    outer loop
      vertex 19.2275 0 12.3776
      vertex 20 5 12.5
      vertex 20 0 12.5
    endloop
  endfacet
  facet normal 0.156435 0 -0.987688
    outer loop
      vertex 20 5 12.5
      vertex 19.2275 0 12.3776
      vertex 19.2275 5 12.3776
    endloop
  endfacet
  facet normal 0.707107 0 -0.707107
    outer loop
      vertex 18.5305 0 12.0225
      vertex 17.9775 5 11.4695
      vertex 18.5305 5 12.0225
    endloop
  endfacet
  facet normal 0.707107 0 -0.707107
    outer loop
      vertex 17.9775 5 11.4695
      vertex 18.5305 0 12.0225
      vertex 17.9775 0 11.4695
    endloop
  endfacet
  facet normal 0.891006 0 -0.453991
    outer loop
      vertex 17.9775 0 11.4695
      vertex 17.6224 5 10.7725
      vertex 17.9775 5 11.4695
    endloop
  endfacet
  facet normal 0.891006 0 -0.453991
    outer loop
      vertex 17.6224 5 10.7725
      vertex 17.9775 0 11.4695
      vertex 17.6224 0 10.7725
    endloop
  endfacet
  facet normal 0.987688 -0 0.156434
    outer loop
      vertex 17.5 0 10
      vertex 17.6224 5 9.22746
      vertex 17.5 5 10
    endloop
  endfacet
  facet normal 0.987688 0 0.156434
    outer loop
      vertex 17.6224 5 9.22746
      vertex 17.5 0 10
      vertex 17.6224 0 9.22746
    endloop
  endfacet
  facet normal -0.156434 0 0.987688
    outer loop
      vertex 20 5 7.5
      vertex 20.7725 0 7.62236
      vertex 20.7725 5 7.62236
    endloop
  endfacet
  facet normal -0.156434 0 0.987688
    outer loop
      vertex 20.7725 0 7.62236
      vertex 20 5 7.5
      vertex 20 0 7.5
    endloop
  endfacet
  facet normal 0.891006 -0 0.453991
    outer loop
      vertex 17.6224 0 9.22746
      vertex 17.9775 5 8.53054
      vertex 17.6224 5 9.22746
    endloop
  endfacet
  facet normal 0.891006 0 0.453991
    outer loop
      vertex 17.9775 5 8.53054
      vertex 17.6224 0 9.22746
      vertex 17.9775 0 8.53054
    endloop
  endfacet
  facet normal 2.12682e-07 -1 1.34283e-06
    outer loop
      vertex 19.2275 5 7.62236
      vertex 20 5 7.5
      vertex 17.9775 5 8.53054
    endloop
  endfacet
  facet normal -1.79126e-06 -1 3.51555e-06
    outer loop
      vertex 21.4695 5 7.97746
      vertex 22.0225 5 8.53054
      vertex 20.7725 5 7.62236
    endloop
  endfacet
  facet normal -0.891006 0 0.453991
    outer loop
      vertex 22.0225 0 8.53054
      vertex 22.3776 5 9.22746
      vertex 22.0225 5 8.53054
    endloop
  endfacet
  facet normal -0.891006 0 0.453991
    outer loop
      vertex 22.3776 5 9.22746
      vertex 22.0225 0 8.53054
      vertex 22.3776 0 9.22746
    endloop
  endfacet
  facet normal 0 -1 9.25415e-07
    outer loop
      vertex 20 5 7.5
      vertex 22.0225 5 8.53054
      vertex 17.9775 5 8.53054
    endloop
  endfacet
  facet normal 0.987688 0 -0.156434
    outer loop
      vertex 17.6224 0 10.7725
      vertex 17.5 5 10
      vertex 17.6224 5 10.7725
    endloop
  endfacet
  facet normal 0.987688 0 -0.156434
    outer loop
      vertex 17.5 5 10
      vertex 17.6224 0 10.7725
      vertex 17.5 0 10
    endloop
  endfacet
  facet normal -0.707108 0 0.707106
    outer loop
      vertex 21.4695 0 7.97746
      vertex 22.0225 5 8.53054
      vertex 21.4695 5 7.97746
    endloop
  endfacet
  facet normal -0.707108 0 0.707106
    outer loop
      vertex 22.0225 5 8.53054
      vertex 21.4695 0 7.97746
      vertex 22.0225 0 8.53054
    endloop
  endfacet
  facet normal -0.156435 0 -0.987688
    outer loop
      vertex 20 0 12.5
      vertex 20.7725 5 12.3776
      vertex 20.7725 0 12.3776
    endloop
  endfacet
  facet normal -0.156435 0 -0.987688
    outer loop
      vertex 20.7725 5 12.3776
      vertex 20 0 12.5
      vertex 20 5 12.5
    endloop
  endfacet
  facet normal 1.79127e-06 -1 3.51557e-06
    outer loop
      vertex 18.5305 5 7.97746
      vertex 19.2275 5 7.62236
      vertex 17.9775 5 8.53054
    endloop
  endfacet
  facet normal 0.453991 0 0.891006
    outer loop
      vertex 18.5305 5 7.97746
      vertex 19.2275 0 7.62236
      vertex 19.2275 5 7.62236
    endloop
  endfacet
  facet normal 0.453991 0 0.891006
    outer loop
      vertex 19.2275 0 7.62236
      vertex 18.5305 5 7.97746
      vertex 18.5305 0 7.97746
    endloop
  endfacet
  facet normal 0.156434 0 0.987688
    outer loop
      vertex 19.2275 5 7.62236
      vertex 20 0 7.5
      vertex 20 5 7.5
    endloop
  endfacet
  facet normal 0.156434 0 0.987688
    outer loop
      vertex 20 0 7.5
      vertex 19.2275 5 7.62236
      vertex 19.2275 0 7.62236
    endloop
  endfacet
  facet normal -0.45399 0 0.891007
    outer loop
      vertex 20.7725 5 7.62236
      vertex 21.4695 0 7.97746
      vertex 21.4695 5 7.97746
    endloop
  endfacet
  facet normal -0.45399 0 0.891007
    outer loop
      vertex 21.4695 0 7.97746
      vertex 20.7725 5 7.62236
      vertex 20.7725 0 7.62236
    endloop
  endfacet
  facet normal 0.453991 0 -0.891006
    outer loop
      vertex 18.5305 0 12.0225
      vertex 19.2275 5 12.3776
      vertex 19.2275 0 12.3776
    endloop
  endfacet
  facet normal 0.453991 0 -0.891006
    outer loop
      vertex 19.2275 5 12.3776
      vertex 18.5305 0 12.0225
      vertex 18.5305 5 12.0225
    endloop
  endfacet
  facet normal 0.707107 -0 0.707107
    outer loop
      vertex 17.9775 0 8.53054
      vertex 18.5305 5 7.97746
      vertex 17.9775 5 8.53054
    endloop
  endfacet
  facet normal 0.707107 0 0.707107
    outer loop
      vertex 18.5305 5 7.97746
      vertex 17.9775 0 8.53054
      vertex 18.5305 0 7.97746
    endloop
  endfacet
  facet normal -0.707108 0 -0.707106
    outer loop
      vertex 22.0225 0 11.4695
      vertex 21.4695 5 12.0225
      vertex 22.0225 5 11.4695
    endloop
  endfacet
  facet normal -0.707108 -0 -0.707106
    outer loop
      vertex 21.4695 5 12.0225
      vertex 22.0225 0 11.4695
      vertex 21.4695 0 12.0225
    endloop
  endfacet
  facet normal -0.891006 0 -0.453991
    outer loop
      vertex 22.3776 0 10.7725
      vertex 22.0225 5 11.4695
      vertex 22.3776 5 10.7725
    endloop
  endfacet
  facet normal -0.891006 -0 -0.453991
    outer loop
      vertex 22.0225 5 11.4695
      vertex 22.3776 0 10.7725
      vertex 22.0225 0 11.4695
    endloop
  endfacet
  facet normal -0.987688 0 -0.156436
    outer loop
      vertex 22.5 0 10
      vertex 22.3776 5 10.7725
      vertex 22.5 5 10
    endloop
  endfacet
  facet normal -0.987688 -0 -0.156436
    outer loop
      vertex 22.3776 5 10.7725
      vertex 22.5 0 10
      vertex 22.3776 0 10.7725
    endloop
  endfacet
  facet normal -0 0.156434 0.987688
    outer loop
      vertex 40 41.5 8.5
      vertex 45 41.0365 8.57341
      vertex 45 41.5 8.5
    endloop
  endfacet
  facet normal 0 0.156434 0.987688
    outer loop
      vertex 45 41.0365 8.57341
      vertex 40 41.5 8.5
      vertex 40 41.0365 8.57341
    endloop
  endfacet
  facet normal 0 -0.707106 0.707108
    outer loop
      vertex 40 42.7135 9.11832
      vertex 45 42.3817 8.78647
      vertex 45 42.7135 9.11832
    endloop
  endfacet
  facet normal 0 -0.707106 0.707108
    outer loop
      vertex 45 42.3817 8.78647
      vertex 40 42.7135 9.11832
      vertex 40 42.3817 8.78647
    endloop
  endfacet
  facet normal 0 0.891004 0.453995
    outer loop
      vertex 45 40.2865 9.11832
      vertex 40 40.0734 9.53647
      vertex 45 40.0734 9.53647
    endloop
  endfacet
  facet normal 0 0.891004 0.453995
    outer loop
      vertex 40 40.0734 9.53647
      vertex 45 40.2865 9.11832
      vertex 40 40.2865 9.11832
    endloop
  endfacet
  facet normal 0 0.156436 -0.987688
    outer loop
      vertex 40 41.0365 11.4266
      vertex 45 41.5 11.5
      vertex 45 41.0365 11.4266
    endloop
  endfacet
  facet normal 0 0.156436 -0.987688
    outer loop
      vertex 45 41.5 11.5
      vertex 40 41.0365 11.4266
      vertex 40 41.5 11.5
    endloop
  endfacet
  facet normal 0 0.70711 -0.707104
    outer loop
      vertex 45 40.2865 10.8817
      vertex 40 40.6183 11.2135
      vertex 45 40.6183 11.2135
    endloop
  endfacet
  facet normal 0 0.70711 -0.707104
    outer loop
      vertex 40 40.6183 11.2135
      vertex 45 40.2865 10.8817
      vertex 40 40.2865 10.8817
    endloop
  endfacet
  facet normal 0 -0.891007 -0.453989
    outer loop
      vertex 40 42.9266 10.4635
      vertex 45 42.7135 10.8817
      vertex 40 42.7135 10.8817
    endloop
  endfacet
  facet normal 0 -0.891007 -0.453989
    outer loop
      vertex 45 42.7135 10.8817
      vertex 40 42.9266 10.4635
      vertex 45 42.9266 10.4635
    endloop
  endfacet
  facet normal 0 -0.987688 -0.15644
    outer loop
      vertex 40 43 10
      vertex 45 42.9266 10.4635
      vertex 40 42.9266 10.4635
    endloop
  endfacet
  facet normal 0 -0.987688 -0.15644
    outer loop
      vertex 45 42.9266 10.4635
      vertex 40 43 10
      vertex 45 43 10
    endloop
  endfacet
  facet normal 0 -0.987688 0.156439
    outer loop
      vertex 40 42.9266 9.53647
      vertex 45 43 10
      vertex 40 43 10
    endloop
  endfacet
  facet normal 0 -0.987688 0.156439
    outer loop
      vertex 45 43 10
      vertex 40 42.9266 9.53647
      vertex 45 42.9266 9.53647
    endloop
  endfacet
  facet normal 0 -0.156436 -0.987688
    outer loop
      vertex 40 41.5 11.5
      vertex 45 41.9635 11.4266
      vertex 45 41.5 11.5
    endloop
  endfacet
  facet normal -0 -0.156436 -0.987688
    outer loop
      vertex 45 41.9635 11.4266
      vertex 40 41.5 11.5
      vertex 40 41.9635 11.4266
    endloop
  endfacet
  facet normal 0 0.891004 -0.453995
    outer loop
      vertex 45 40.0734 10.4635
      vertex 40 40.2865 10.8817
      vertex 45 40.2865 10.8817
    endloop
  endfacet
  facet normal 0 0.891004 -0.453995
    outer loop
      vertex 40 40.2865 10.8817
      vertex 45 40.0734 10.4635
      vertex 40 40.0734 10.4635
    endloop
  endfacet
  facet normal 0 -0.453991 -0.891006
    outer loop
      vertex 40 41.9635 11.4266
      vertex 45 42.3817 11.2135
      vertex 45 41.9635 11.4266
    endloop
  endfacet
  facet normal -0 -0.453991 -0.891006
    outer loop
      vertex 45 42.3817 11.2135
      vertex 40 41.9635 11.4266
      vertex 40 42.3817 11.2135
    endloop
  endfacet
  facet normal 0 0.453988 -0.891008
    outer loop
      vertex 40 40.6183 11.2135
      vertex 45 41.0365 11.4266
      vertex 45 40.6183 11.2135
    endloop
  endfacet
  facet normal 0 0.453988 -0.891008
    outer loop
      vertex 45 41.0365 11.4266
      vertex 40 40.6183 11.2135
      vertex 40 41.0365 11.4266
    endloop
  endfacet
  facet normal 0 0.987689 -0.156432
    outer loop
      vertex 45 40 10
      vertex 40 40.0734 10.4635
      vertex 45 40.0734 10.4635
    endloop
  endfacet
  facet normal 0 0.987689 -0.156432
    outer loop
      vertex 40 40.0734 10.4635
      vertex 45 40 10
      vertex 40 40 10
    endloop
  endfacet
  facet normal 0 -0.156434 0.987688
    outer loop
      vertex 40 41.9635 8.57341
      vertex 45 41.5 8.5
      vertex 45 41.9635 8.57341
    endloop
  endfacet
  facet normal 0 -0.156434 0.987688
    outer loop
      vertex 45 41.5 8.5
      vertex 40 41.9635 8.57341
      vertex 40 41.5 8.5
    endloop
  endfacet
  facet normal 0 0.70711 0.707104
    outer loop
      vertex 45 40.6183 8.78647
      vertex 40 40.2865 9.11832
      vertex 45 40.2865 9.11832
    endloop
  endfacet
  facet normal 0 0.70711 0.707104
    outer loop
      vertex 40 40.2865 9.11832
      vertex 45 40.6183 8.78647
      vertex 40 40.6183 8.78647
    endloop
  endfacet
  facet normal 0 -0.707106 -0.707108
    outer loop
      vertex 40 42.3817 11.2135
      vertex 45 42.7135 10.8817
      vertex 45 42.3817 11.2135
    endloop
  endfacet
  facet normal -0 -0.707106 -0.707108
    outer loop
      vertex 45 42.7135 10.8817
      vertex 40 42.3817 11.2135
      vertex 40 42.7135 10.8817
    endloop
  endfacet
  facet normal 0 -0.891007 0.453989
    outer loop
      vertex 40 42.7135 9.11832
      vertex 45 42.9266 9.53647
      vertex 40 42.9266 9.53647
    endloop
  endfacet
  facet normal 0 -0.891007 0.453989
    outer loop
      vertex 45 42.9266 9.53647
      vertex 40 42.7135 9.11832
      vertex 45 42.7135 9.11832
    endloop
  endfacet
  facet normal -0 0.453988 0.891008
    outer loop
      vertex 40 41.0365 8.57341
      vertex 45 40.6183 8.78647
      vertex 45 41.0365 8.57341
    endloop
  endfacet
  facet normal 0 0.453988 0.891008
    outer loop
      vertex 45 40.6183 8.78647
      vertex 40 41.0365 8.57341
      vertex 40 40.6183 8.78647
    endloop
  endfacet
  facet normal 0 0.987689 0.156432
    outer loop
      vertex 45 40.0734 9.53647
      vertex 40 40 10
      vertex 45 40 10
    endloop
  endfacet
  facet normal 0 0.987689 0.156432
    outer loop
      vertex 40 40 10
      vertex 45 40.0734 9.53647
      vertex 40 40.0734 9.53647
    endloop
  endfacet
  facet normal 0 -0.453991 0.891006
    outer loop
      vertex 40 42.3817 8.78647
      vertex 45 41.9635 8.57341
      vertex 45 42.3817 8.78647
    endloop
  endfacet
  facet normal 0 -0.453991 0.891006
    outer loop
      vertex 45 41.9635 8.57341
      vertex 40 42.3817 8.78647
      vertex 40 41.9635 8.57341
    endloop
  endfacet
endsolid OpenSCAD_Model
