solid OpenSCAD_Model
  facet normal -0 0 1
    outer loop
      vertex 9 21 3
      vertex 21 9 3
      vertex 21 21 3
    endloop
  endfacet
  facet normal 0 0 1
    outer loop
      vertex 21 9 3
      vertex 9 21 3
      vertex 9 9 3
    endloop
  endfacet
  facet normal 1 0 0
    outer loop
      vertex 21 12 15.5
      vertex 21 9 12.5
      vertex 21 12 12.5
    endloop
  endfacet
  facet normal 1 0 0
    outer loop
      vertex 21 9 12.5
      vertex 21 0 15.5
      vertex 21 9 3
    endloop
  endfacet
  facet normal 1 -0 0
    outer loop
      vertex 21 0 15.5
      vertex 21 9 12.5
      vertex 21 12 15.5
    endloop
  endfacet
  facet normal 1 -0 0
    outer loop
      vertex 21 9 3
      vertex 21 21 0
      vertex 21 21 3
    endloop
  endfacet
  facet normal 1 0 0
    outer loop
      vertex 21 9 3
      vertex 21 0 0
      vertex 21 21 0
    endloop
  endfacet
  facet normal 1 0 0
    outer loop
      vertex 21 0 0
      vertex 21 9 3
      vertex 21 0 15.5
    endloop
  endfacet
  facet normal 1 -0 0
    outer loop
      vertex 9 9 12.5
      vertex 9 21 3
      vertex 9 21 12.5
    endloop
  endfacet
  facet normal 1 0 0
    outer loop
      vertex 9 21 3
      vertex 9 9 12.5
      vertex 9 9 3
    endloop
  endfacet
  facet normal 0 1 -0
    outer loop
      vertex 21 9 3
      vertex 9 9 12.5
      vertex 21 9 12.5
    endloop
  endfacet
  facet normal 0 1 0
    outer loop
      vertex 9 9 12.5
      vertex 21 9 3
      vertex 9 9 3
    endloop
  endfacet
  facet normal 0 1 0
    outer loop
      vertex 21 21 3
      vertex 21 21 0
      vertex 9 21 3
    endloop
  endfacet
  facet normal 0 1 0
    outer loop
      vertex 9 21 12.5
      vertex 12 21 15.5
      vertex 12 21 12.5
    endloop
  endfacet
  facet normal 0 1 0
    outer loop
      vertex 12 21 15.5
      vertex 9 21 12.5
      vertex 0 21 15.5
    endloop
  endfacet
  facet normal 0 1 -0
    outer loop
      vertex 9 21 3
      vertex 0 21 15.5
      vertex 9 21 12.5
    endloop
  endfacet
  facet normal 0 1 0
    outer loop
      vertex 9 21 3
      vertex 0 21 0
      vertex 0 21 15.5
    endloop
  endfacet
  facet normal 0 1 0
    outer loop
      vertex 0 21 0
      vertex 9 21 3
      vertex 21 21 0
    endloop
  endfacet
  facet normal 0 0 -1
    outer loop
      vertex 21 9 12.5
      vertex 12 12 12.5
      vertex 21 12 12.5
    endloop
  endfacet
  facet normal 0 0 -1
    outer loop
      vertex 9 9 12.5
      vertex 12 12 12.5
      vertex 21 9 12.5
    endloop
  endfacet
  facet normal 0 0 -1
    outer loop
      vertex 9 21 12.5
      vertex 12 12 12.5
      vertex 9 9 12.5
    endloop
  endfacet
  facet normal 0 0 -1
    outer loop
      vertex 12 12 12.5
      vertex 9 21 12.5
      vertex 12 21 12.5
    endloop
  endfacet
  facet normal 1 -0 0
    outer loop
      vertex 12 12 15.5
      vertex 12 21 12.5
      vertex 12 21 15.5
    endloop
  endfacet
  facet normal 1 0 0
    outer loop
      vertex 12 21 12.5
      vertex 12 12 15.5
      vertex 12 12 12.5
    endloop
  endfacet
  facet normal 0 1 -0
    outer loop
      vertex 21 12 12.5
      vertex 12 12 15.5
      vertex 21 12 15.5
    endloop
  endfacet
  facet normal 0 1 0
    outer loop
      vertex 12 12 15.5
      vertex 21 12 12.5
      vertex 12 12 12.5
    endloop
  endfacet
  facet normal -0 0 1
    outer loop
      vertex 0 21 15.5
      vertex 12 12 15.5
      vertex 12 21 15.5
    endloop
  endfacet
  facet normal 0 0 1
    outer loop
      vertex 12 12 15.5
      vertex 7.8287 5.58156 15.5
      vertex 8 4.5 15.5
    endloop
  endfacet
  facet normal 0 0 1
    outer loop
      vertex 12 12 15.5
      vertex 7.33156 6.55725 15.5
      vertex 7.8287 5.58156 15.5
    endloop
  endfacet
  facet normal 0 0 1
    outer loop
      vertex 12 12 15.5
      vertex 6.55725 7.33156 15.5
      vertex 7.33156 6.55725 15.5
    endloop
  endfacet
  facet normal 0 0 1
    outer loop
      vertex 12 12 15.5
      vertex 5.58156 7.8287 15.5
      vertex 6.55725 7.33156 15.5
    endloop
  endfacet
  facet normal 0 0 1
    outer loop
      vertex 12 12 15.5
      vertex 4.5 8 15.5
      vertex 5.58156 7.8287 15.5
    endloop
  endfacet
  facet normal 0 0 1
    outer loop
      vertex 12 12 15.5
      vertex 0 21 15.5
      vertex 4.5 8 15.5
    endloop
  endfacet
  facet normal 0 0 1
    outer loop
      vertex 4.5 8 15.5
      vertex 0 21 15.5
      vertex 3.41844 7.8287 15.5
    endloop
  endfacet
  facet normal 0 0 1
    outer loop
      vertex 3.41844 7.8287 15.5
      vertex 0 21 15.5
      vertex 2.44275 7.33156 15.5
    endloop
  endfacet
  facet normal 0 0 1
    outer loop
      vertex 1.1713 5.58156 15.5
      vertex 0 21 15.5
      vertex 1 4.5 15.5
    endloop
  endfacet
  facet normal 0 0 1
    outer loop
      vertex 1.66844 6.55725 15.5
      vertex 0 21 15.5
      vertex 1.1713 5.58156 15.5
    endloop
  endfacet
  facet normal 0 0 1
    outer loop
      vertex 2.44275 7.33156 15.5
      vertex 0 21 15.5
      vertex 1.66844 6.55725 15.5
    endloop
  endfacet
  facet normal -0 0 1
    outer loop
      vertex 12 12 15.5
      vertex 21 0 15.5
      vertex 21 12 15.5
    endloop
  endfacet
  facet normal -0 0 1
    outer loop
      vertex 8 4.5 15.5
      vertex 21 0 15.5
      vertex 12 12 15.5
    endloop
  endfacet
  facet normal -0 0 1
    outer loop
      vertex 7.8287 3.41844 15.5
      vertex 21 0 15.5
      vertex 8 4.5 15.5
    endloop
  endfacet
  facet normal -0 0 1
    outer loop
      vertex 7.33156 2.44275 15.5
      vertex 21 0 15.5
      vertex 7.8287 3.41844 15.5
    endloop
  endfacet
  facet normal -0 0 1
    outer loop
      vertex 6.55725 1.66844 15.5
      vertex 21 0 15.5
      vertex 7.33156 2.44275 15.5
    endloop
  endfacet
  facet normal -0 0 1
    outer loop
      vertex 5.58156 1.1713 15.5
      vertex 21 0 15.5
      vertex 6.55725 1.66844 15.5
    endloop
  endfacet
  facet normal -0 0 1
    outer loop
      vertex 4.5 1 15.5
      vertex 21 0 15.5
      vertex 5.58156 1.1713 15.5
    endloop
  endfacet
  facet normal 0 0 1
    outer loop
      vertex 4.5 1 15.5
      vertex 0 0 15.5
      vertex 21 0 15.5
    endloop
  endfacet
  facet normal 0 0 1
    outer loop
      vertex 3.41844 1.1713 15.5
      vertex 0 0 15.5
      vertex 4.5 1 15.5
    endloop
  endfacet
  facet normal 0 0 1
    outer loop
      vertex 2.44275 1.66844 15.5
      vertex 0 0 15.5
      vertex 3.41844 1.1713 15.5
    endloop
  endfacet
  facet normal 0 0 1
    outer loop
      vertex 1.66844 2.44275 15.5
      vertex 0 0 15.5
      vertex 2.44275 1.66844 15.5
    endloop
  endfacet
  facet normal 0 0 1
    outer loop
      vertex 1.1713 3.41844 15.5
      vertex 0 0 15.5
      vertex 1.66844 2.44275 15.5
    endloop
  endfacet
  facet normal 0 0 1
    outer loop
      vertex 1 4.5 15.5
      vertex 0 0 15.5
      vertex 1.1713 3.41844 15.5
    endloop
  endfacet
  facet normal 0 0 1
    outer loop
      vertex 0 0 15.5
      vertex 1 4.5 15.5
      vertex 0 21 15.5
    endloop
  endfacet
  facet normal -0.652546 -0.103353 0.750668
    outer loop
      vertex 7.8287 5.58156 11.5
      vertex 6.5 4.5 10.1961
      vertex 8 4.5 11.5
    endloop
  endfacet
  facet normal -0.652546 -0.103353 0.750668
    outer loop
      vertex 7.8287 5.58156 11.5
      vertex 6.40211 5.11803 10.1961
      vertex 6.5 4.5 10.1961
    endloop
  endfacet
  facet normal 0.652546 -0.103353 0.750668
    outer loop
      vertex 1.1713 5.58156 11.5
      vertex 2.5 4.5 10.1961
      vertex 2.59789 5.11803 10.1961
    endloop
  endfacet
  facet normal 0.652546 -0.103353 0.750668
    outer loop
      vertex 2.5 4.5 10.1961
      vertex 1.1713 5.58156 11.5
      vertex 1 4.5 11.5
    endloop
  endfacet
  facet normal -0.58867 0.299942 0.750668
    outer loop
      vertex 6.40211 3.88197 10.1961
      vertex 7.33156 2.44275 11.5
      vertex 7.8287 3.41844 11.5
    endloop
  endfacet
  facet normal -0.58867 0.299943 0.750668
    outer loop
      vertex 7.33156 2.44275 11.5
      vertex 6.40211 3.88197 10.1961
      vertex 6.11803 3.32443 10.1961
    endloop
  endfacet
  facet normal -0.103353 -0.652546 0.750668
    outer loop
      vertex 4.5 8 11.5
      vertex 5.11803 6.40211 10.1961
      vertex 5.58156 7.8287 11.5
    endloop
  endfacet
  facet normal -0.103353 -0.652546 0.750668
    outer loop
      vertex 5.11803 6.40211 10.1961
      vertex 4.5 8 11.5
      vertex 4.5 6.5 10.1961
    endloop
  endfacet
  facet normal 0.299942 0.58867 0.750668
    outer loop
      vertex 3.32443 2.88197 10.1961
      vertex 3.41844 1.1713 11.5
      vertex 3.88197 2.59789 10.1961
    endloop
  endfacet
  facet normal 0.299942 0.58867 0.750668
    outer loop
      vertex 3.41844 1.1713 11.5
      vertex 3.32443 2.88197 10.1961
      vertex 2.44275 1.66844 11.5
    endloop
  endfacet
  facet normal 0.299943 -0.58867 0.750668
    outer loop
      vertex 3.41844 7.8287 11.5
      vertex 3.32443 6.11803 10.1961
      vertex 3.88197 6.40211 10.1961
    endloop
  endfacet
  facet normal 0.299942 -0.58867 0.750668
    outer loop
      vertex 3.32443 6.11803 10.1961
      vertex 3.41844 7.8287 11.5
      vertex 2.44275 7.33156 11.5
    endloop
  endfacet
  facet normal -0.467171 -0.467171 0.750668
    outer loop
      vertex 6.55725 7.33156 11.5
      vertex 5.67557 6.11803 10.1961
      vertex 6.11803 5.67557 10.1961
    endloop
  endfacet
  facet normal -0.467171 -0.467171 0.750668
    outer loop
      vertex 6.11803 5.67557 10.1961
      vertex 7.33156 6.55725 11.5
      vertex 6.55725 7.33156 11.5
    endloop
  endfacet
  facet normal -0.299942 0.58867 0.750668
    outer loop
      vertex 5.67557 2.88197 10.1961
      vertex 5.58156 1.1713 11.5
      vertex 6.55725 1.66844 11.5
    endloop
  endfacet
  facet normal -0.299943 0.58867 0.750668
    outer loop
      vertex 5.58156 1.1713 11.5
      vertex 5.67557 2.88197 10.1961
      vertex 5.11803 2.59789 10.1961
    endloop
  endfacet
  facet normal 0.58867 0.299942 0.750668
    outer loop
      vertex 2.59789 3.88197 10.1961
      vertex 1.66844 2.44275 11.5
      vertex 2.88197 3.32443 10.1961
    endloop
  endfacet
  facet normal 0.58867 0.299942 0.750668
    outer loop
      vertex 1.66844 2.44275 11.5
      vertex 2.59789 3.88197 10.1961
      vertex 1.1713 3.41844 11.5
    endloop
  endfacet
  facet normal 0.467171 -0.467171 0.750668
    outer loop
      vertex 2.44275 7.33156 11.5
      vertex 2.88197 5.67557 10.1961
      vertex 3.32443 6.11803 10.1961
    endloop
  endfacet
  facet normal 0.467171 -0.467171 0.750668
    outer loop
      vertex 1.66844 6.55725 11.5
      vertex 2.88197 5.67557 10.1961
      vertex 2.44275 7.33156 11.5
    endloop
  endfacet
  facet normal 0.103353 -0.652546 0.750668
    outer loop
      vertex 4.5 8 11.5
      vertex 3.88197 6.40211 10.1961
      vertex 4.5 6.5 10.1961
    endloop
  endfacet
  facet normal 0.103353 -0.652546 0.750668
    outer loop
      vertex 3.41844 7.8287 11.5
      vertex 3.88197 6.40211 10.1961
      vertex 4.5 8 11.5
    endloop
  endfacet
  facet normal -0.299942 -0.58867 0.750668
    outer loop
      vertex 5.58156 7.8287 11.5
      vertex 5.67557 6.11803 10.1961
      vertex 6.55725 7.33156 11.5
    endloop
  endfacet
  facet normal -0.299943 -0.58867 0.750668
    outer loop
      vertex 5.67557 6.11803 10.1961
      vertex 5.58156 7.8287 11.5
      vertex 5.11803 6.40211 10.1961
    endloop
  endfacet
  facet normal -0.58867 -0.299942 0.750668
    outer loop
      vertex 7.33156 6.55725 11.5
      vertex 6.40211 5.11803 10.1961
      vertex 7.8287 5.58156 11.5
    endloop
  endfacet
  facet normal -0.58867 -0.299943 0.750668
    outer loop
      vertex 6.40211 5.11803 10.1961
      vertex 7.33156 6.55725 11.5
      vertex 6.11803 5.67557 10.1961
    endloop
  endfacet
  facet normal -0.467171 0.467171 0.750668
    outer loop
      vertex 7.33156 2.44275 11.5
      vertex 6.11803 3.32443 10.1961
      vertex 6.55725 1.66844 11.5
    endloop
  endfacet
  facet normal -0.467171 0.467171 0.750668
    outer loop
      vertex 5.67557 2.88197 10.1961
      vertex 6.55725 1.66844 11.5
      vertex 6.11803 3.32443 10.1961
    endloop
  endfacet
  facet normal -0.103353 0.652546 0.750668
    outer loop
      vertex 4.5 2.5 10.1961
      vertex 5.58156 1.1713 11.5
      vertex 5.11803 2.59789 10.1961
    endloop
  endfacet
  facet normal -0.103353 0.652546 0.750668
    outer loop
      vertex 5.58156 1.1713 11.5
      vertex 4.5 2.5 10.1961
      vertex 4.5 1 11.5
    endloop
  endfacet
  facet normal 0.467171 0.467171 0.750668
    outer loop
      vertex 2.44275 1.66844 11.5
      vertex 3.32443 2.88197 10.1961
      vertex 2.88197 3.32443 10.1961
    endloop
  endfacet
  facet normal 0.467171 0.467171 0.750668
    outer loop
      vertex 2.88197 3.32443 10.1961
      vertex 1.66844 2.44275 11.5
      vertex 2.44275 1.66844 11.5
    endloop
  endfacet
  facet normal 0.652546 0.103353 0.750668
    outer loop
      vertex 2.5 4.5 10.1961
      vertex 1.1713 3.41844 11.5
      vertex 2.59789 3.88197 10.1961
    endloop
  endfacet
  facet normal 0.652546 0.103353 0.750668
    outer loop
      vertex 1.1713 3.41844 11.5
      vertex 2.5 4.5 10.1961
      vertex 1 4.5 11.5
    endloop
  endfacet
  facet normal 0.58867 -0.299943 0.750668
    outer loop
      vertex 1.66844 6.55725 11.5
      vertex 2.59789 5.11803 10.1961
      vertex 2.88197 5.67557 10.1961
    endloop
  endfacet
  facet normal 0.58867 -0.299942 0.750668
    outer loop
      vertex 2.59789 5.11803 10.1961
      vertex 1.66844 6.55725 11.5
      vertex 1.1713 5.58156 11.5
    endloop
  endfacet
  facet normal -0.652546 0.103353 0.750668
    outer loop
      vertex 6.5 4.5 10.1961
      vertex 7.8287 3.41844 11.5
      vertex 8 4.5 11.5
    endloop
  endfacet
  facet normal -0.652546 0.103353 0.750668
    outer loop
      vertex 6.40211 3.88197 10.1961
      vertex 7.8287 3.41844 11.5
      vertex 6.5 4.5 10.1961
    endloop
  endfacet
  facet normal 0.103353 0.652546 0.750668
    outer loop
      vertex 3.88197 2.59789 10.1961
      vertex 4.5 1 11.5
      vertex 4.5 2.5 10.1961
    endloop
  endfacet
  facet normal 0.103353 0.652546 0.750668
    outer loop
      vertex 3.88197 2.59789 10.1961
      vertex 3.41844 1.1713 11.5
      vertex 4.5 1 11.5
    endloop
  endfacet
  facet normal 0.156435 0.987688 -0
    outer loop
      vertex 4.5 2.5 0
      vertex 3.88197 2.59789 10.1961
      vertex 4.5 2.5 10.1961
    endloop
  endfacet
  facet normal 0.156435 0.987688 0
    outer loop
      vertex 3.88197 2.59789 10.1961
      vertex 4.5 2.5 0
      vertex 3.88197 2.59789 0
    endloop
  endfacet
  facet normal -0.156435 0.987688 0
    outer loop
      vertex 5.11803 2.59789 0
      vertex 4.5 2.5 10.1961
      vertex 5.11803 2.59789 10.1961
    endloop
  endfacet
  facet normal -0.156435 0.987688 0
    outer loop
      vertex 4.5 2.5 10.1961
      vertex 5.11803 2.59789 0
      vertex 4.5 2.5 0
    endloop
  endfacet
  facet normal -0.453991 0.891006 -3.96938e-10
    outer loop
      vertex 5.67557 2.88197 10.1961
      vertex 5.67557 2.88197 0
      vertex 5.11803 2.59789 10.1961
    endloop
  endfacet
  facet normal -0.453991 0.891006 3.96937e-10
    outer loop
      vertex 5.11803 2.59789 0
      vertex 5.11803 2.59789 10.1961
      vertex 5.67557 2.88197 0
    endloop
  endfacet
  facet normal 0.156435 -0.987688 0
    outer loop
      vertex 3.88197 6.40211 0
      vertex 4.5 6.5 10.1961
      vertex 3.88197 6.40211 10.1961
    endloop
  endfacet
  facet normal 0.156435 -0.987688 0
    outer loop
      vertex 4.5 6.5 10.1961
      vertex 3.88197 6.40211 0
      vertex 4.5 6.5 0
    endloop
  endfacet
  facet normal 0 0 -1
    outer loop
      vertex 6.40211 5.11803 0
      vertex 21 0 0
      vertex 6.5 4.5 0
    endloop
  endfacet
  facet normal 0 0 -1
    outer loop
      vertex 21 0 0
      vertex 6.40211 3.88197 0
      vertex 6.5 4.5 0
    endloop
  endfacet
  facet normal 0 0 -1
    outer loop
      vertex 21 0 0
      vertex 6.11803 3.32443 0
      vertex 6.40211 3.88197 0
    endloop
  endfacet
  facet normal 0 0 -1
    outer loop
      vertex 21 0 0
      vertex 5.67557 2.88197 0
      vertex 6.11803 3.32443 0
    endloop
  endfacet
  facet normal 0 0 -1
    outer loop
      vertex 21 0 0
      vertex 5.11803 2.59789 0
      vertex 5.67557 2.88197 0
    endloop
  endfacet
  facet normal 0 0 -1
    outer loop
      vertex 0 0 0
      vertex 5.11803 2.59789 0
      vertex 21 0 0
    endloop
  endfacet
  facet normal -0 0 -1
    outer loop
      vertex 2.59789 3.88197 0
      vertex 0 0 0
      vertex 2.5 4.5 0
    endloop
  endfacet
  facet normal -0 0 -1
    outer loop
      vertex 2.88197 3.32443 0
      vertex 0 0 0
      vertex 2.59789 3.88197 0
    endloop
  endfacet
  facet normal -0 0 -1
    outer loop
      vertex 3.32443 2.88197 0
      vertex 0 0 0
      vertex 2.88197 3.32443 0
    endloop
  endfacet
  facet normal -0 0 -1
    outer loop
      vertex 3.88197 2.59789 0
      vertex 0 0 0
      vertex 3.32443 2.88197 0
    endloop
  endfacet
  facet normal -0 0 -1
    outer loop
      vertex 4.5 2.5 0
      vertex 0 0 0
      vertex 3.88197 2.59789 0
    endloop
  endfacet
  facet normal 0 0 -1
    outer loop
      vertex 5.11803 2.59789 0
      vertex 0 0 0
      vertex 4.5 2.5 0
    endloop
  endfacet
  facet normal 0 0 -1
    outer loop
      vertex 21 0 0
      vertex 6.40211 5.11803 0
      vertex 21 21 0
    endloop
  endfacet
  facet normal 0 0 -1
    outer loop
      vertex 6.11803 5.67557 0
      vertex 21 21 0
      vertex 6.40211 5.11803 0
    endloop
  endfacet
  facet normal 0 0 -1
    outer loop
      vertex 5.67557 6.11803 0
      vertex 21 21 0
      vertex 6.11803 5.67557 0
    endloop
  endfacet
  facet normal 0 0 -1
    outer loop
      vertex 5.11803 6.40211 0
      vertex 21 21 0
      vertex 5.67557 6.11803 0
    endloop
  endfacet
  facet normal 0 0 -1
    outer loop
      vertex 0 21 0
      vertex 5.11803 6.40211 0
      vertex 4.5 6.5 0
    endloop
  endfacet
  facet normal 0 0 -1
    outer loop
      vertex 0 21 0
      vertex 4.5 6.5 0
      vertex 3.88197 6.40211 0
    endloop
  endfacet
  facet normal 0 0 -1
    outer loop
      vertex 0 21 0
      vertex 3.88197 6.40211 0
      vertex 3.32443 6.11803 0
    endloop
  endfacet
  facet normal 0 0 -1
    outer loop
      vertex 0 0 0
      vertex 2.59789 5.11803 0
      vertex 2.5 4.5 0
    endloop
  endfacet
  facet normal 0 0 -1
    outer loop
      vertex 5.11803 6.40211 0
      vertex 0 21 0
      vertex 21 21 0
    endloop
  endfacet
  facet normal 0 0 -1
    outer loop
      vertex 2.88197 5.67557 0
      vertex 0 21 0
      vertex 3.32443 6.11803 0
    endloop
  endfacet
  facet normal 0 0 -1
    outer loop
      vertex 2.59789 5.11803 0
      vertex 0 21 0
      vertex 2.88197 5.67557 0
    endloop
  endfacet
  facet normal 0 0 -1
    outer loop
      vertex 0 21 0
      vertex 2.59789 5.11803 0
      vertex 0 0 0
    endloop
  endfacet
  facet normal 0.707107 -0.707107 0
    outer loop
      vertex 2.88197 5.67557 10.1961
      vertex 3.32443 6.11803 0
      vertex 3.32443 6.11803 10.1961
    endloop
  endfacet
  facet normal 0.707107 -0.707107 0
    outer loop
      vertex 3.32443 6.11803 0
      vertex 2.88197 5.67557 10.1961
      vertex 2.88197 5.67557 0
    endloop
  endfacet
  facet normal -0.156435 -0.987688 0
    outer loop
      vertex 4.5 6.5 0
      vertex 5.11803 6.40211 10.1961
      vertex 4.5 6.5 10.1961
    endloop
  endfacet
  facet normal -0.156435 -0.987688 -0
    outer loop
      vertex 5.11803 6.40211 10.1961
      vertex 4.5 6.5 0
      vertex 5.11803 6.40211 0
    endloop
  endfacet
  facet normal -0.987688 0.156435 0
    outer loop
      vertex 6.40211 3.88197 0
      vertex 6.5 4.5 10.1961
      vertex 6.5 4.5 0
    endloop
  endfacet
  facet normal -0.987688 0.156435 0
    outer loop
      vertex 6.5 4.5 10.1961
      vertex 6.40211 3.88197 0
      vertex 6.40211 3.88197 10.1961
    endloop
  endfacet
  facet normal -0.891006 0.453991 2.12317e-08
    outer loop
      vertex 6.40211 3.88197 0
      vertex 6.11803 3.32443 10.1961
      vertex 6.40211 3.88197 10.1961
    endloop
  endfacet
  facet normal -0.891006 0.453991 -1.06158e-08
    outer loop
      vertex 6.11803 3.32443 0
      vertex 6.11803 3.32443 10.1961
      vertex 6.40211 3.88197 0
    endloop
  endfacet
  facet normal 0.453991 0.891006 3.96929e-10
    outer loop
      vertex 3.88197 2.59789 10.1961
      vertex 3.88197 2.59789 0
      vertex 3.32443 2.88197 10.1961
    endloop
  endfacet
  facet normal 0.453991 0.891006 1.02189e-08
    outer loop
      vertex 3.32443 2.88197 0
      vertex 3.32443 2.88197 10.1961
      vertex 3.88197 2.59789 0
    endloop
  endfacet
  facet normal 0.987688 -0.156435 0
    outer loop
      vertex 2.5 4.5 10.1961
      vertex 2.59789 5.11803 0
      vertex 2.59789 5.11803 10.1961
    endloop
  endfacet
  facet normal 0.987688 -0.156435 0
    outer loop
      vertex 2.59789 5.11803 0
      vertex 2.5 4.5 10.1961
      vertex 2.5 4.5 0
    endloop
  endfacet
  facet normal 0.891006 -0.453991 -3.96938e-10
    outer loop
      vertex 2.59789 5.11803 10.1961
      vertex 2.88197 5.67557 0
      vertex 2.88197 5.67557 10.1961
    endloop
  endfacet
  facet normal 0.891006 -0.453991 3.96937e-10
    outer loop
      vertex 2.59789 5.11803 10.1961
      vertex 2.59789 5.11803 0
      vertex 2.88197 5.67557 0
    endloop
  endfacet
  facet normal 0.987688 0.156435 0
    outer loop
      vertex 2.59789 3.88197 10.1961
      vertex 2.5 4.5 0
      vertex 2.5 4.5 10.1961
    endloop
  endfacet
  facet normal 0.987688 0.156435 0
    outer loop
      vertex 2.5 4.5 0
      vertex 2.59789 3.88197 10.1961
      vertex 2.59789 3.88197 0
    endloop
  endfacet
  facet normal 0.891006 0.453991 3.96929e-10
    outer loop
      vertex 2.88197 3.32443 10.1961
      vertex 2.59789 3.88197 0
      vertex 2.59789 3.88197 10.1961
    endloop
  endfacet
  facet normal 0.891006 0.453991 1.02189e-08
    outer loop
      vertex 2.88197 3.32443 10.1961
      vertex 2.88197 3.32443 0
      vertex 2.59789 3.88197 0
    endloop
  endfacet
  facet normal -0.453991 -0.891006 2.12317e-08
    outer loop
      vertex 5.11803 6.40211 10.1961
      vertex 5.11803 6.40211 0
      vertex 5.67557 6.11803 10.1961
    endloop
  endfacet
  facet normal -0.453991 -0.891006 -2.12317e-08
    outer loop
      vertex 5.67557 6.11803 0
      vertex 5.67557 6.11803 10.1961
      vertex 5.11803 6.40211 0
    endloop
  endfacet
  facet normal -0.987688 -0.156435 0
    outer loop
      vertex 6.5 4.5 0
      vertex 6.40211 5.11803 10.1961
      vertex 6.40211 5.11803 0
    endloop
  endfacet
  facet normal -0.987688 -0.156435 0
    outer loop
      vertex 6.40211 5.11803 10.1961
      vertex 6.5 4.5 0
      vertex 6.5 4.5 10.1961
    endloop
  endfacet
  facet normal -0.707107 0.707107 0
    outer loop
      vertex 5.67557 2.88197 0
      vertex 6.11803 3.32443 10.1961
      vertex 6.11803 3.32443 0
    endloop
  endfacet
  facet normal -0.707107 0.707107 0
    outer loop
      vertex 6.11803 3.32443 10.1961
      vertex 5.67557 2.88197 0
      vertex 5.67557 2.88197 10.1961
    endloop
  endfacet
  facet normal 0.453991 -0.891006 -1.06159e-08
    outer loop
      vertex 3.32443 6.11803 10.1961
      vertex 3.32443 6.11803 0
      vertex 3.88197 6.40211 10.1961
    endloop
  endfacet
  facet normal 0.453991 -0.891006 2.12317e-08
    outer loop
      vertex 3.88197 6.40211 0
      vertex 3.88197 6.40211 10.1961
      vertex 3.32443 6.11803 0
    endloop
  endfacet
  facet normal 0.707107 0.707107 0
    outer loop
      vertex 3.32443 2.88197 10.1961
      vertex 2.88197 3.32443 0
      vertex 2.88197 3.32443 10.1961
    endloop
  endfacet
  facet normal 0.707107 0.707107 0
    outer loop
      vertex 2.88197 3.32443 0
      vertex 3.32443 2.88197 10.1961
      vertex 3.32443 2.88197 0
    endloop
  endfacet
  facet normal -0.707107 -0.707107 0
    outer loop
      vertex 6.11803 5.67557 0
      vertex 5.67557 6.11803 10.1961
      vertex 5.67557 6.11803 0
    endloop
  endfacet
  facet normal -0.707107 -0.707107 0
    outer loop
      vertex 5.67557 6.11803 10.1961
      vertex 6.11803 5.67557 0
      vertex 6.11803 5.67557 10.1961
    endloop
  endfacet
  facet normal -0.891006 -0.453991 -2.12317e-08
    outer loop
      vertex 6.11803 5.67557 0
      vertex 6.40211 5.11803 10.1961
      vertex 6.11803 5.67557 10.1961
    endloop
  endfacet
  facet normal -0.891006 -0.453991 2.12317e-08
    outer loop
      vertex 6.40211 5.11803 0
      vertex 6.40211 5.11803 10.1961
      vertex 6.11803 5.67557 0
    endloop
  endfacet
  facet normal -0.987688 -0.156435 0
    outer loop
      vertex 8 4.5 11.5
      vertex 7.8287 5.58156 15.5
      vertex 7.8287 5.58156 11.5
    endloop
  endfacet
  facet normal -0.987688 -0.156435 0
    outer loop
      vertex 7.8287 5.58156 15.5
      vertex 8 4.5 11.5
      vertex 8 4.5 15.5
    endloop
  endfacet
  facet normal -0.707107 0.707107 0
    outer loop
      vertex 6.55725 1.66844 11.5
      vertex 7.33156 2.44275 15.5
      vertex 7.33156 2.44275 11.5
    endloop
  endfacet
  facet normal -0.707107 0.707107 0
    outer loop
      vertex 7.33156 2.44275 15.5
      vertex 6.55725 1.66844 11.5
      vertex 6.55725 1.66844 15.5
    endloop
  endfacet
  facet normal -0.891007 0.45399 0
    outer loop
      vertex 7.33156 2.44275 11.5
      vertex 7.8287 3.41844 15.5
      vertex 7.8287 3.41844 11.5
    endloop
  endfacet
  facet normal -0.891007 0.45399 0
    outer loop
      vertex 7.8287 3.41844 15.5
      vertex 7.33156 2.44275 11.5
      vertex 7.33156 2.44275 15.5
    endloop
  endfacet
  facet normal -0.987688 0.156435 0
    outer loop
      vertex 7.8287 3.41844 11.5
      vertex 8 4.5 15.5
      vertex 8 4.5 11.5
    endloop
  endfacet
  facet normal -0.987688 0.156435 0
    outer loop
      vertex 8 4.5 15.5
      vertex 7.8287 3.41844 11.5
      vertex 7.8287 3.41844 15.5
    endloop
  endfacet
  facet normal -0.45399 0.891007 0
    outer loop
      vertex 6.55725 1.66844 11.5
      vertex 5.58156 1.1713 15.5
      vertex 6.55725 1.66844 15.5
    endloop
  endfacet
  facet normal -0.45399 0.891007 0
    outer loop
      vertex 5.58156 1.1713 15.5
      vertex 6.55725 1.66844 11.5
      vertex 5.58156 1.1713 11.5
    endloop
  endfacet
  facet normal 0.987688 -0.156435 0
    outer loop
      vertex 1 4.5 15.5
      vertex 1.1713 5.58156 11.5
      vertex 1.1713 5.58156 15.5
    endloop
  endfacet
  facet normal 0.987688 -0.156435 0
    outer loop
      vertex 1.1713 5.58156 11.5
      vertex 1 4.5 15.5
      vertex 1 4.5 11.5
    endloop
  endfacet
  facet normal 0.891007 0.45399 0
    outer loop
      vertex 1.66844 2.44275 15.5
      vertex 1.1713 3.41844 11.5
      vertex 1.1713 3.41844 15.5
    endloop
  endfacet
  facet normal 0.891007 0.45399 0
    outer loop
      vertex 1.1713 3.41844 11.5
      vertex 1.66844 2.44275 15.5
      vertex 1.66844 2.44275 11.5
    endloop
  endfacet
  facet normal 0.891007 -0.45399 0
    outer loop
      vertex 1.1713 5.58156 15.5
      vertex 1.66844 6.55725 11.5
      vertex 1.66844 6.55725 15.5
    endloop
  endfacet
  facet normal 0.891007 -0.45399 0
    outer loop
      vertex 1.66844 6.55725 11.5
      vertex 1.1713 5.58156 15.5
      vertex 1.1713 5.58156 11.5
    endloop
  endfacet
  facet normal 0.707107 -0.707107 0
    outer loop
      vertex 1.66844 6.55725 15.5
      vertex 2.44275 7.33156 11.5
      vertex 2.44275 7.33156 15.5
    endloop
  endfacet
  facet normal 0.707107 -0.707107 0
    outer loop
      vertex 2.44275 7.33156 11.5
      vertex 1.66844 6.55725 15.5
      vertex 1.66844 6.55725 11.5
    endloop
  endfacet
  facet normal 0.45399 -0.891007 0
    outer loop
      vertex 2.44275 7.33156 11.5
      vertex 3.41844 7.8287 15.5
      vertex 2.44275 7.33156 15.5
    endloop
  endfacet
  facet normal 0.45399 -0.891007 0
    outer loop
      vertex 3.41844 7.8287 15.5
      vertex 2.44275 7.33156 11.5
      vertex 3.41844 7.8287 11.5
    endloop
  endfacet
  facet normal -0.45399 -0.891007 0
    outer loop
      vertex 5.58156 7.8287 11.5
      vertex 6.55725 7.33156 15.5
      vertex 5.58156 7.8287 15.5
    endloop
  endfacet
  facet normal -0.45399 -0.891007 -0
    outer loop
      vertex 6.55725 7.33156 15.5
      vertex 5.58156 7.8287 11.5
      vertex 6.55725 7.33156 11.5
    endloop
  endfacet
  facet normal 0.987688 0.156435 0
    outer loop
      vertex 1.1713 3.41844 15.5
      vertex 1 4.5 11.5
      vertex 1 4.5 15.5
    endloop
  endfacet
  facet normal 0.987688 0.156435 0
    outer loop
      vertex 1 4.5 11.5
      vertex 1.1713 3.41844 15.5
      vertex 1.1713 3.41844 11.5
    endloop
  endfacet
  facet normal 0.45399 0.891007 -0
    outer loop
      vertex 3.41844 1.1713 11.5
      vertex 2.44275 1.66844 15.5
      vertex 3.41844 1.1713 15.5
    endloop
  endfacet
  facet normal 0.45399 0.891007 0
    outer loop
      vertex 2.44275 1.66844 15.5
      vertex 3.41844 1.1713 11.5
      vertex 2.44275 1.66844 11.5
    endloop
  endfacet
  facet normal 0.156435 0.987688 -0
    outer loop
      vertex 4.5 1 11.5
      vertex 3.41844 1.1713 15.5
      vertex 4.5 1 15.5
    endloop
  endfacet
  facet normal 0.156435 0.987688 0
    outer loop
      vertex 3.41844 1.1713 15.5
      vertex 4.5 1 11.5
      vertex 3.41844 1.1713 11.5
    endloop
  endfacet
  facet normal -0.156435 0.987688 0
    outer loop
      vertex 5.58156 1.1713 11.5
      vertex 4.5 1 15.5
      vertex 5.58156 1.1713 15.5
    endloop
  endfacet
  facet normal -0.156435 0.987688 0
    outer loop
      vertex 4.5 1 15.5
      vertex 5.58156 1.1713 11.5
      vertex 4.5 1 11.5
    endloop
  endfacet
  facet normal 0.156435 -0.987688 0
    outer loop
      vertex 3.41844 7.8287 11.5
      vertex 4.5 8 15.5
      vertex 3.41844 7.8287 15.5
    endloop
  endfacet
  facet normal 0.156435 -0.987688 0
    outer loop
      vertex 4.5 8 15.5
      vertex 3.41844 7.8287 11.5
      vertex 4.5 8 11.5
    endloop
  endfacet
  facet normal -0.707107 -0.707107 0
    outer loop
      vertex 7.33156 6.55725 11.5
      vertex 6.55725 7.33156 15.5
      vertex 6.55725 7.33156 11.5
    endloop
  endfacet
  facet normal -0.707107 -0.707107 0
    outer loop
      vertex 6.55725 7.33156 15.5
      vertex 7.33156 6.55725 11.5
      vertex 7.33156 6.55725 15.5
    endloop
  endfacet
  facet normal -0.156435 -0.987688 0
    outer loop
      vertex 4.5 8 11.5
      vertex 5.58156 7.8287 15.5
      vertex 4.5 8 15.5
    endloop
  endfacet
  facet normal -0.156435 -0.987688 -0
    outer loop
      vertex 5.58156 7.8287 15.5
      vertex 4.5 8 11.5
      vertex 5.58156 7.8287 11.5
    endloop
  endfacet
  facet normal 0.707107 0.707107 0
    outer loop
      vertex 2.44275 1.66844 15.5
      vertex 1.66844 2.44275 11.5
      vertex 1.66844 2.44275 15.5
    endloop
  endfacet
  facet normal 0.707107 0.707107 0
    outer loop
      vertex 1.66844 2.44275 11.5
      vertex 2.44275 1.66844 15.5
      vertex 2.44275 1.66844 11.5
    endloop
  endfacet
  facet normal -0.891007 -0.45399 0
    outer loop
      vertex 7.8287 5.58156 11.5
      vertex 7.33156 6.55725 15.5
      vertex 7.33156 6.55725 11.5
    endloop
  endfacet
  facet normal -0.891007 -0.45399 0
    outer loop
      vertex 7.33156 6.55725 15.5
      vertex 7.8287 5.58156 11.5
      vertex 7.8287 5.58156 15.5
    endloop
  endfacet
  facet normal -1 0 0
    outer loop
      vertex 0 0 0
      vertex 0 21 15.5
      vertex 0 21 0
    endloop
  endfacet
  facet normal -1 -0 0
    outer loop
      vertex 0 21 15.5
      vertex 0 0 0
      vertex 0 0 15.5
    endloop
  endfacet
  facet normal 0 -1 0
    outer loop
      vertex 0 0 0
      vertex 21 0 15.5
      vertex 0 0 15.5
    endloop
  endfacet
  facet normal 0 -1 -0
    outer loop
      vertex 21 0 15.5
      vertex 0 0 0
      vertex 21 0 0
    endloop
  endfacet
endsolid OpenSCAD_Model
