solid OpenSCAD_Model
  facet normal -0 0 1
    outer loop
      vertex 8 20 3
      vertex 20 8 3
      vertex 20 20 3
    endloop
  endfacet
  facet normal 0 0 1
    outer loop
      vertex 20 8 3
      vertex 8 20 3
      vertex 8 8 3
    endloop
  endfacet
  facet normal 1 0 0
    outer loop
      vertex 20 11 16
      vertex 20 8 13
      vertex 20 11 13
    endloop
  endfacet
  facet normal 1 0 0
    outer loop
      vertex 20 8 13
      vertex 20 0 16
      vertex 20 8 3
    endloop
  endfacet
  facet normal 1 -0 0
    outer loop
      vertex 20 0 16
      vertex 20 8 13
      vertex 20 11 16
    endloop
  endfacet
  facet normal 1 -0 0
    outer loop
      vertex 20 8 3
      vertex 20 20 0
      vertex 20 20 3
    endloop
  endfacet
  facet normal 1 0 0
    outer loop
      vertex 20 8 3
      vertex 20 0 0
      vertex 20 20 0
    endloop
  endfacet
  facet normal 1 0 0
    outer loop
      vertex 20 0 0
      vertex 20 8 3
      vertex 20 0 16
    endloop
  endfacet
  facet normal 1 -0 0
    outer loop
      vertex 8 8 13
      vertex 8 20 3
      vertex 8 20 13
    endloop
  endfacet
  facet normal 1 0 0
    outer loop
      vertex 8 20 3
      vertex 8 8 13
      vertex 8 8 3
    endloop
  endfacet
  facet normal 0 1 -0
    outer loop
      vertex 20 8 3
      vertex 8 8 13
      vertex 20 8 13
    endloop
  endfacet
  facet normal 0 1 0
    outer loop
      vertex 8 8 13
      vertex 20 8 3
      vertex 8 8 3
    endloop
  endfacet
  facet normal 0 1 0
    outer loop
      vertex 20 20 3
      vertex 20 20 0
      vertex 8 20 3
    endloop
  endfacet
  facet normal 0 1 0
    outer loop
      vertex 8 20 13
      vertex 11 20 16
      vertex 11 20 13
    endloop
  endfacet
  facet normal 0 1 0
    outer loop
      vertex 11 20 16
      vertex 8 20 13
      vertex 0 20 16
    endloop
  endfacet
  facet normal 0 1 -0
    outer loop
      vertex 8 20 3
      vertex 0 20 16
      vertex 8 20 13
    endloop
  endfacet
  facet normal 0 1 0
    outer loop
      vertex 8 20 3
      vertex 0 20 0
      vertex 0 20 16
    endloop
  endfacet
  facet normal 0 1 0
    outer loop
      vertex 0 20 0
      vertex 8 20 3
      vertex 20 20 0
    endloop
  endfacet
  facet normal 0 0 -1
    outer loop
      vertex 20 8 13
      vertex 11 11 13
      vertex 20 11 13
    endloop
  endfacet
  facet normal 0 0 -1
    outer loop
      vertex 8 8 13
      vertex 11 11 13
      vertex 20 8 13
    endloop
  endfacet
  facet normal 0 0 -1
    outer loop
      vertex 8 20 13
      vertex 11 11 13
      vertex 8 8 13
    endloop
  endfacet
  facet normal 0 0 -1
    outer loop
      vertex 11 11 13
      vertex 8 20 13
      vertex 11 20 13
    endloop
  endfacet
  facet normal 1 -0 0
    outer loop
      vertex 11 11 16
      vertex 11 20 13
      vertex 11 20 16
    endloop
  endfacet
  facet normal 1 0 0
    outer loop
      vertex 11 20 13
      vertex 11 11 16
      vertex 11 11 13
    endloop
  endfacet
  facet normal 0 1 -0
    outer loop
      vertex 20 11 13
      vertex 11 11 16
      vertex 20 11 16
    endloop
  endfacet
  facet normal 0 1 0
    outer loop
      vertex 11 11 16
      vertex 20 11 13
      vertex 11 11 13
    endloop
  endfacet
  facet normal -0 0 1
    outer loop
      vertex 0 20 16
      vertex 11 11 16
      vertex 11 20 16
    endloop
  endfacet
  facet normal 0 0 1
    outer loop
      vertex 11 11 16
      vertex 7.3287 5.08156 16
      vertex 7.5 4 16
    endloop
  endfacet
  facet normal 0 0 1
    outer loop
      vertex 11 11 16
      vertex 6.83156 6.05725 16
      vertex 7.3287 5.08156 16
    endloop
  endfacet
  facet normal 0 0 1
    outer loop
      vertex 11 11 16
      vertex 6.05725 6.83156 16
      vertex 6.83156 6.05725 16
    endloop
  endfacet
  facet normal 0 0 1
    outer loop
      vertex 11 11 16
      vertex 5.08156 7.3287 16
      vertex 6.05725 6.83156 16
    endloop
  endfacet
  facet normal 0 0 1
    outer loop
      vertex 11 11 16
      vertex 4 7.5 16
      vertex 5.08156 7.3287 16
    endloop
  endfacet
  facet normal 0 0 1
    outer loop
      vertex 11 11 16
      vertex 0 20 16
      vertex 4 7.5 16
    endloop
  endfacet
  facet normal 0 0 1
    outer loop
      vertex 4 7.5 16
      vertex 0 20 16
      vertex 2.91844 7.3287 16
    endloop
  endfacet
  facet normal 0 0 1
    outer loop
      vertex 2.91844 7.3287 16
      vertex 0 20 16
      vertex 1.94275 6.83156 16
    endloop
  endfacet
  facet normal 0 0 1
    outer loop
      vertex 0.671303 5.08156 16
      vertex 0 20 16
      vertex 0.5 4 16
    endloop
  endfacet
  facet normal 0 0 1
    outer loop
      vertex 1.16844 6.05725 16
      vertex 0 20 16
      vertex 0.671303 5.08156 16
    endloop
  endfacet
  facet normal 0 0 1
    outer loop
      vertex 1.94275 6.83156 16
      vertex 0 20 16
      vertex 1.16844 6.05725 16
    endloop
  endfacet
  facet normal -0 0 1
    outer loop
      vertex 11 11 16
      vertex 20 0 16
      vertex 20 11 16
    endloop
  endfacet
  facet normal -0 0 1
    outer loop
      vertex 7.5 4 16
      vertex 20 0 16
      vertex 11 11 16
    endloop
  endfacet
  facet normal -0 0 1
    outer loop
      vertex 7.3287 2.91844 16
      vertex 20 0 16
      vertex 7.5 4 16
    endloop
  endfacet
  facet normal -0 0 1
    outer loop
      vertex 6.83156 1.94275 16
      vertex 20 0 16
      vertex 7.3287 2.91844 16
    endloop
  endfacet
  facet normal -0 0 1
    outer loop
      vertex 6.05725 1.16844 16
      vertex 20 0 16
      vertex 6.83156 1.94275 16
    endloop
  endfacet
  facet normal -0 0 1
    outer loop
      vertex 5.08156 0.671303 16
      vertex 20 0 16
      vertex 6.05725 1.16844 16
    endloop
  endfacet
  facet normal -0 0 1
    outer loop
      vertex 4 0.5 16
      vertex 20 0 16
      vertex 5.08156 0.671303 16
    endloop
  endfacet
  facet normal 0 0 1
    outer loop
      vertex 4 0.5 16
      vertex 0 0 16
      vertex 20 0 16
    endloop
  endfacet
  facet normal 0 0 1
    outer loop
      vertex 2.91844 0.671303 16
      vertex 0 0 16
      vertex 4 0.5 16
    endloop
  endfacet
  facet normal 0 0 1
    outer loop
      vertex 1.94275 1.16844 16
      vertex 0 0 16
      vertex 2.91844 0.671303 16
    endloop
  endfacet
  facet normal 0 0 1
    outer loop
      vertex 1.16844 1.94275 16
      vertex 0 0 16
      vertex 1.94275 1.16844 16
    endloop
  endfacet
  facet normal 0 0 1
    outer loop
      vertex 0.671303 2.91844 16
      vertex 0 0 16
      vertex 1.16844 1.94275 16
    endloop
  endfacet
  facet normal 0 0 1
    outer loop
      vertex 0.5 4 16
      vertex 0 0 16
      vertex 0.671303 2.91844 16
    endloop
  endfacet
  facet normal 0 0 1
    outer loop
      vertex 0 0 16
      vertex 0.5 4 16
      vertex 0 20 16
    endloop
  endfacet
  facet normal -0.652546 -0.103353 0.750668
    outer loop
      vertex 7.3287 5.08156 14
      vertex 6 4 12.6961
      vertex 7.5 4 14
    endloop
  endfacet
  facet normal -0.652546 -0.103353 0.750668
    outer loop
      vertex 7.3287 5.08156 14
      vertex 5.90211 4.61803 12.6961
      vertex 6 4 12.6961
    endloop
  endfacet
  facet normal 0.652546 -0.103353 0.750668
    outer loop
      vertex 0.671303 5.08156 14
      vertex 2 4 12.6961
      vertex 2.09789 4.61803 12.6961
    endloop
  endfacet
  facet normal 0.652546 -0.103353 0.750668
    outer loop
      vertex 2 4 12.6961
      vertex 0.671303 5.08156 14
      vertex 0.5 4 14
    endloop
  endfacet
  facet normal -0.652546 0.103353 0.750668
    outer loop
      vertex 6 4 12.6961
      vertex 7.3287 2.91844 14
      vertex 7.5 4 14
    endloop
  endfacet
  facet normal -0.652546 0.103353 0.750668
    outer loop
      vertex 5.90211 3.38197 12.6961
      vertex 7.3287 2.91844 14
      vertex 6 4 12.6961
    endloop
  endfacet
  facet normal -0.103353 -0.652546 0.750668
    outer loop
      vertex 4 7.5 14
      vertex 4.61803 5.90211 12.6961
      vertex 5.08156 7.3287 14
    endloop
  endfacet
  facet normal -0.103353 -0.652546 0.750668
    outer loop
      vertex 4.61803 5.90211 12.6961
      vertex 4 7.5 14
      vertex 4 6 12.6961
    endloop
  endfacet
  facet normal 0.103353 0.652546 0.750668
    outer loop
      vertex 3.38197 2.09789 12.6961
      vertex 4 0.5 14
      vertex 4 2 12.6961
    endloop
  endfacet
  facet normal 0.103353 0.652546 0.750668
    outer loop
      vertex 3.38197 2.09789 12.6961
      vertex 2.91844 0.671303 14
      vertex 4 0.5 14
    endloop
  endfacet
  facet normal 0.299943 -0.58867 0.750668
    outer loop
      vertex 2.91844 7.3287 14
      vertex 2.82443 5.61803 12.6961
      vertex 3.38197 5.90211 12.6961
    endloop
  endfacet
  facet normal 0.299942 -0.58867 0.750668
    outer loop
      vertex 2.82443 5.61803 12.6961
      vertex 2.91844 7.3287 14
      vertex 1.94275 6.83156 14
    endloop
  endfacet
  facet normal -0.467171 -0.467171 0.750668
    outer loop
      vertex 6.05725 6.83156 14
      vertex 5.17557 5.61803 12.6961
      vertex 5.61803 5.17557 12.6961
    endloop
  endfacet
  facet normal -0.467171 -0.467171 0.750668
    outer loop
      vertex 5.61803 5.17557 12.6961
      vertex 6.83156 6.05725 14
      vertex 6.05725 6.83156 14
    endloop
  endfacet
  facet normal -0.299942 0.58867 0.750668
    outer loop
      vertex 5.17557 2.38197 12.6961
      vertex 5.08156 0.671303 14
      vertex 6.05725 1.16844 14
    endloop
  endfacet
  facet normal -0.299943 0.58867 0.750668
    outer loop
      vertex 5.08156 0.671303 14
      vertex 5.17557 2.38197 12.6961
      vertex 4.61803 2.09789 12.6961
    endloop
  endfacet
  facet normal 0.58867 0.299942 0.750668
    outer loop
      vertex 2.09789 3.38197 12.6961
      vertex 1.16844 1.94275 14
      vertex 2.38197 2.82443 12.6961
    endloop
  endfacet
  facet normal 0.58867 0.299942 0.750668
    outer loop
      vertex 1.16844 1.94275 14
      vertex 2.09789 3.38197 12.6961
      vertex 0.671303 2.91844 14
    endloop
  endfacet
  facet normal 0.467171 -0.467171 0.750668
    outer loop
      vertex 1.94275 6.83156 14
      vertex 2.38197 5.17557 12.6961
      vertex 2.82443 5.61803 12.6961
    endloop
  endfacet
  facet normal 0.467171 -0.467171 0.750668
    outer loop
      vertex 1.16844 6.05725 14
      vertex 2.38197 5.17557 12.6961
      vertex 1.94275 6.83156 14
    endloop
  endfacet
  facet normal 0.103353 -0.652546 0.750668
    outer loop
      vertex 4 7.5 14
      vertex 3.38197 5.90211 12.6961
      vertex 4 6 12.6961
    endloop
  endfacet
  facet normal 0.103353 -0.652546 0.750668
    outer loop
      vertex 2.91844 7.3287 14
      vertex 3.38197 5.90211 12.6961
      vertex 4 7.5 14
    endloop
  endfacet
  facet normal -0.299942 -0.58867 0.750668
    outer loop
      vertex 5.08156 7.3287 14
      vertex 5.17557 5.61803 12.6961
      vertex 6.05725 6.83156 14
    endloop
  endfacet
  facet normal -0.299943 -0.58867 0.750668
    outer loop
      vertex 5.17557 5.61803 12.6961
      vertex 5.08156 7.3287 14
      vertex 4.61803 5.90211 12.6961
    endloop
  endfacet
  facet normal -0.58867 -0.299942 0.750668
    outer loop
      vertex 6.83156 6.05725 14
      vertex 5.90211 4.61803 12.6961
      vertex 7.3287 5.08156 14
    endloop
  endfacet
  facet normal -0.58867 -0.299943 0.750668
    outer loop
      vertex 5.90211 4.61803 12.6961
      vertex 6.83156 6.05725 14
      vertex 5.61803 5.17557 12.6961
    endloop
  endfacet
  facet normal -0.467171 0.467171 0.750668
    outer loop
      vertex 6.83156 1.94275 14
      vertex 5.61803 2.82443 12.6961
      vertex 6.05725 1.16844 14
    endloop
  endfacet
  facet normal -0.467171 0.467171 0.750668
    outer loop
      vertex 5.17557 2.38197 12.6961
      vertex 6.05725 1.16844 14
      vertex 5.61803 2.82443 12.6961
    endloop
  endfacet
  facet normal -0.103353 0.652546 0.750668
    outer loop
      vertex 4 2 12.6961
      vertex 5.08156 0.671303 14
      vertex 4.61803 2.09789 12.6961
    endloop
  endfacet
  facet normal -0.103353 0.652546 0.750668
    outer loop
      vertex 5.08156 0.671303 14
      vertex 4 2 12.6961
      vertex 4 0.5 14
    endloop
  endfacet
  facet normal 0.467171 0.467171 0.750668
    outer loop
      vertex 1.94275 1.16844 14
      vertex 2.82443 2.38197 12.6961
      vertex 2.38197 2.82443 12.6961
    endloop
  endfacet
  facet normal 0.467171 0.467171 0.750668
    outer loop
      vertex 2.38197 2.82443 12.6961
      vertex 1.16844 1.94275 14
      vertex 1.94275 1.16844 14
    endloop
  endfacet
  facet normal 0.652546 0.103353 0.750668
    outer loop
      vertex 2 4 12.6961
      vertex 0.671303 2.91844 14
      vertex 2.09789 3.38197 12.6961
    endloop
  endfacet
  facet normal 0.652546 0.103353 0.750668
    outer loop
      vertex 0.671303 2.91844 14
      vertex 2 4 12.6961
      vertex 0.5 4 14
    endloop
  endfacet
  facet normal 0.58867 -0.299943 0.750668
    outer loop
      vertex 1.16844 6.05725 14
      vertex 2.09789 4.61803 12.6961
      vertex 2.38197 5.17557 12.6961
    endloop
  endfacet
  facet normal 0.58867 -0.299942 0.750668
    outer loop
      vertex 2.09789 4.61803 12.6961
      vertex 1.16844 6.05725 14
      vertex 0.671303 5.08156 14
    endloop
  endfacet
  facet normal -0.58867 0.299942 0.750668
    outer loop
      vertex 5.90211 3.38197 12.6961
      vertex 6.83156 1.94275 14
      vertex 7.3287 2.91844 14
    endloop
  endfacet
  facet normal -0.58867 0.299943 0.750668
    outer loop
      vertex 6.83156 1.94275 14
      vertex 5.90211 3.38197 12.6961
      vertex 5.61803 2.82443 12.6961
    endloop
  endfacet
  facet normal 0.299942 0.58867 0.750668
    outer loop
      vertex 2.82443 2.38197 12.6961
      vertex 2.91844 0.671303 14
      vertex 3.38197 2.09789 12.6961
    endloop
  endfacet
  facet normal 0.299942 0.58867 0.750668
    outer loop
      vertex 2.91844 0.671303 14
      vertex 2.82443 2.38197 12.6961
      vertex 1.94275 1.16844 14
    endloop
  endfacet
  facet normal -0.156435 0.987688 0
    outer loop
      vertex 4.61803 2.09789 0
      vertex 4 2 12.6961
      vertex 4.61803 2.09789 12.6961
    endloop
  endfacet
  facet normal -0.156435 0.987688 0
    outer loop
      vertex 4 2 12.6961
      vertex 4.61803 2.09789 0
      vertex 4 2 0
    endloop
  endfacet
  facet normal -0.453991 0.891006 -3.18776e-10
    outer loop
      vertex 5.17557 2.38197 12.6961
      vertex 5.17557 2.38197 0
      vertex 4.61803 2.09789 12.6961
    endloop
  endfacet
  facet normal -0.453991 0.891006 3.18776e-10
    outer loop
      vertex 4.61803 2.09789 0
      vertex 4.61803 2.09789 12.6961
      vertex 5.17557 2.38197 0
    endloop
  endfacet
  facet normal 0.156435 -0.987688 0
    outer loop
      vertex 3.38197 5.90211 0
      vertex 4 6 12.6961
      vertex 3.38197 5.90211 12.6961
    endloop
  endfacet
  facet normal 0.156435 -0.987688 0
    outer loop
      vertex 4 6 12.6961
      vertex 3.38197 5.90211 0
      vertex 4 6 0
    endloop
  endfacet
  facet normal 0.987688 0.156435 0
    outer loop
      vertex 2.09789 3.38197 12.6961
      vertex 2 4 0
      vertex 2 4 12.6961
    endloop
  endfacet
  facet normal 0.987688 0.156435 0
    outer loop
      vertex 2 4 0
      vertex 2.09789 3.38197 12.6961
      vertex 2.09789 3.38197 0
    endloop
  endfacet
  facet normal 0 0 -1
    outer loop
      vertex 5.90211 4.61803 0
      vertex 20 0 0
      vertex 6 4 0
    endloop
  endfacet
  facet normal 0 0 -1
    outer loop
      vertex 20 0 0
      vertex 5.90211 3.38197 0
      vertex 6 4 0
    endloop
  endfacet
  facet normal 0 0 -1
    outer loop
      vertex 20 0 0
      vertex 5.61803 2.82443 0
      vertex 5.90211 3.38197 0
    endloop
  endfacet
  facet normal 0 0 -1
    outer loop
      vertex 20 0 0
      vertex 5.17557 2.38197 0
      vertex 5.61803 2.82443 0
    endloop
  endfacet
  facet normal 0 0 -1
    outer loop
      vertex 20 0 0
      vertex 4.61803 2.09789 0
      vertex 5.17557 2.38197 0
    endloop
  endfacet
  facet normal 0 0 -1
    outer loop
      vertex 0 0 0
      vertex 4.61803 2.09789 0
      vertex 20 0 0
    endloop
  endfacet
  facet normal -0 0 -1
    outer loop
      vertex 2.09789 3.38197 0
      vertex 0 0 0
      vertex 2 4 0
    endloop
  endfacet
  facet normal -0 0 -1
    outer loop
      vertex 2.38197 2.82443 0
      vertex 0 0 0
      vertex 2.09789 3.38197 0
    endloop
  endfacet
  facet normal -0 0 -1
    outer loop
      vertex 2.82443 2.38197 0
      vertex 0 0 0
      vertex 2.38197 2.82443 0
    endloop
  endfacet
  facet normal -0 0 -1
    outer loop
      vertex 3.38197 2.09789 0
      vertex 0 0 0
      vertex 2.82443 2.38197 0
    endloop
  endfacet
  facet normal -0 0 -1
    outer loop
      vertex 4 2 0
      vertex 0 0 0
      vertex 3.38197 2.09789 0
    endloop
  endfacet
  facet normal 0 0 -1
    outer loop
      vertex 4.61803 2.09789 0
      vertex 0 0 0
      vertex 4 2 0
    endloop
  endfacet
  facet normal 0 0 -1
    outer loop
      vertex 5.61803 5.17557 0
      vertex 20 0 0
      vertex 5.90211 4.61803 0
    endloop
  endfacet
  facet normal 0 0 -1
    outer loop
      vertex 20 0 0
      vertex 5.61803 5.17557 0
      vertex 20 20 0
    endloop
  endfacet
  facet normal 0 0 -1
    outer loop
      vertex 5.17557 5.61803 0
      vertex 20 20 0
      vertex 5.61803 5.17557 0
    endloop
  endfacet
  facet normal 0 0 -1
    outer loop
      vertex 0 20 0
      vertex 5.17557 5.61803 0
      vertex 4.61803 5.90211 0
    endloop
  endfacet
  facet normal 0 0 -1
    outer loop
      vertex 0 20 0
      vertex 4.61803 5.90211 0
      vertex 4 6 0
    endloop
  endfacet
  facet normal 0 0 -1
    outer loop
      vertex 0 20 0
      vertex 4 6 0
      vertex 3.38197 5.90211 0
    endloop
  endfacet
  facet normal 0 0 -1
    outer loop
      vertex 0 20 0
      vertex 3.38197 5.90211 0
      vertex 2.82443 5.61803 0
    endloop
  endfacet
  facet normal 0 0 -1
    outer loop
      vertex 0 0 0
      vertex 2.09789 4.61803 0
      vertex 2 4 0
    endloop
  endfacet
  facet normal 0 0 -1
    outer loop
      vertex 5.17557 5.61803 0
      vertex 0 20 0
      vertex 20 20 0
    endloop
  endfacet
  facet normal 0 0 -1
    outer loop
      vertex 2.38197 5.17557 0
      vertex 0 20 0
      vertex 2.82443 5.61803 0
    endloop
  endfacet
  facet normal 0 0 -1
    outer loop
      vertex 2.09789 4.61803 0
      vertex 0 20 0
      vertex 2.38197 5.17557 0
    endloop
  endfacet
  facet normal 0 0 -1
    outer loop
      vertex 0 20 0
      vertex 2.09789 4.61803 0
      vertex 0 0 0
    endloop
  endfacet
  facet normal 0.453991 0.891006 3.18769e-10
    outer loop
      vertex 3.38197 2.09789 12.6961
      vertex 3.38197 2.09789 0
      vertex 2.82443 2.38197 12.6961
    endloop
  endfacet
  facet normal 0.453991 0.891006 8.20668e-09
    outer loop
      vertex 2.82443 2.38197 0
      vertex 2.82443 2.38197 12.6961
      vertex 3.38197 2.09789 0
    endloop
  endfacet
  facet normal 0.156435 0.987688 -0
    outer loop
      vertex 4 2 0
      vertex 3.38197 2.09789 12.6961
      vertex 4 2 12.6961
    endloop
  endfacet
  facet normal 0.156435 0.987688 0
    outer loop
      vertex 3.38197 2.09789 12.6961
      vertex 4 2 0
      vertex 3.38197 2.09789 0
    endloop
  endfacet
  facet normal 0.987688 -0.156435 0
    outer loop
      vertex 2 4 12.6961
      vertex 2.09789 4.61803 0
      vertex 2.09789 4.61803 12.6961
    endloop
  endfacet
  facet normal 0.987688 -0.156435 0
    outer loop
      vertex 2.09789 4.61803 0
      vertex 2 4 12.6961
      vertex 2 4 0
    endloop
  endfacet
  facet normal -0.156435 -0.987688 0
    outer loop
      vertex 4 6 0
      vertex 4.61803 5.90211 12.6961
      vertex 4 6 12.6961
    endloop
  endfacet
  facet normal -0.156435 -0.987688 -0
    outer loop
      vertex 4.61803 5.90211 12.6961
      vertex 4 6 0
      vertex 4.61803 5.90211 0
    endloop
  endfacet
  facet normal -0.987688 -0.156435 0
    outer loop
      vertex 6 4 0
      vertex 5.90211 4.61803 12.6961
      vertex 5.90211 4.61803 0
    endloop
  endfacet
  facet normal -0.987688 -0.156435 0
    outer loop
      vertex 5.90211 4.61803 12.6961
      vertex 6 4 0
      vertex 6 4 12.6961
    endloop
  endfacet
  facet normal -0.707107 0.707107 0
    outer loop
      vertex 5.17557 2.38197 0
      vertex 5.61803 2.82443 12.6961
      vertex 5.61803 2.82443 0
    endloop
  endfacet
  facet normal -0.707107 0.707107 0
    outer loop
      vertex 5.61803 2.82443 12.6961
      vertex 5.17557 2.38197 0
      vertex 5.17557 2.38197 12.6961
    endloop
  endfacet
  facet normal 0.891006 -0.453991 -3.18776e-10
    outer loop
      vertex 2.09789 4.61803 12.6961
      vertex 2.38197 5.17557 0
      vertex 2.38197 5.17557 12.6961
    endloop
  endfacet
  facet normal 0.891006 -0.453991 3.18776e-10
    outer loop
      vertex 2.09789 4.61803 12.6961
      vertex 2.09789 4.61803 0
      vertex 2.38197 5.17557 0
    endloop
  endfacet
  facet normal 0.891006 0.453991 3.18769e-10
    outer loop
      vertex 2.38197 2.82443 12.6961
      vertex 2.09789 3.38197 0
      vertex 2.09789 3.38197 12.6961
    endloop
  endfacet
  facet normal 0.891006 0.453991 8.20668e-09
    outer loop
      vertex 2.38197 2.82443 12.6961
      vertex 2.38197 2.82443 0
      vertex 2.09789 3.38197 0
    endloop
  endfacet
  facet normal -0.453991 -0.891006 1.70509e-08
    outer loop
      vertex 4.61803 5.90211 12.6961
      vertex 4.61803 5.90211 0
      vertex 5.17557 5.61803 12.6961
    endloop
  endfacet
  facet normal -0.453991 -0.891006 -1.70509e-08
    outer loop
      vertex 5.17557 5.61803 0
      vertex 5.17557 5.61803 12.6961
      vertex 4.61803 5.90211 0
    endloop
  endfacet
  facet normal -0.891006 0.453991 1.70509e-08
    outer loop
      vertex 5.90211 3.38197 0
      vertex 5.61803 2.82443 12.6961
      vertex 5.90211 3.38197 12.6961
    endloop
  endfacet
  facet normal -0.891006 0.453991 -8.52546e-09
    outer loop
      vertex 5.61803 2.82443 0
      vertex 5.61803 2.82443 12.6961
      vertex 5.90211 3.38197 0
    endloop
  endfacet
  facet normal -0.987688 0.156435 0
    outer loop
      vertex 5.90211 3.38197 0
      vertex 6 4 12.6961
      vertex 6 4 0
    endloop
  endfacet
  facet normal -0.987688 0.156435 0
    outer loop
      vertex 6 4 12.6961
      vertex 5.90211 3.38197 0
      vertex 5.90211 3.38197 12.6961
    endloop
  endfacet
  facet normal 0.707107 -0.707107 0
    outer loop
      vertex 2.38197 5.17557 12.6961
      vertex 2.82443 5.61803 0
      vertex 2.82443 5.61803 12.6961
    endloop
  endfacet
  facet normal 0.707107 -0.707107 0
    outer loop
      vertex 2.82443 5.61803 0
      vertex 2.38197 5.17557 12.6961
      vertex 2.38197 5.17557 0
    endloop
  endfacet
  facet normal 0.453991 -0.891006 -8.52547e-09
    outer loop
      vertex 2.82443 5.61803 12.6961
      vertex 2.82443 5.61803 0
      vertex 3.38197 5.90211 12.6961
    endloop
  endfacet
  facet normal 0.453991 -0.891006 1.70509e-08
    outer loop
      vertex 3.38197 5.90211 0
      vertex 3.38197 5.90211 12.6961
      vertex 2.82443 5.61803 0
    endloop
  endfacet
  facet normal 0.707107 0.707107 0
    outer loop
      vertex 2.82443 2.38197 12.6961
      vertex 2.38197 2.82443 0
      vertex 2.38197 2.82443 12.6961
    endloop
  endfacet
  facet normal 0.707107 0.707107 0
    outer loop
      vertex 2.38197 2.82443 0
      vertex 2.82443 2.38197 12.6961
      vertex 2.82443 2.38197 0
    endloop
  endfacet
  facet normal -0.707107 -0.707107 0
    outer loop
      vertex 5.61803 5.17557 0
      vertex 5.17557 5.61803 12.6961
      vertex 5.17557 5.61803 0
    endloop
  endfacet
  facet normal -0.707107 -0.707107 0
    outer loop
      vertex 5.17557 5.61803 12.6961
      vertex 5.61803 5.17557 0
      vertex 5.61803 5.17557 12.6961
    endloop
  endfacet
  facet normal -0.891006 -0.453991 -1.70509e-08
    outer loop
      vertex 5.61803 5.17557 0
      vertex 5.90211 4.61803 12.6961
      vertex 5.61803 5.17557 12.6961
    endloop
  endfacet
  facet normal -0.891006 -0.453991 1.70509e-08
    outer loop
      vertex 5.90211 4.61803 0
      vertex 5.90211 4.61803 12.6961
      vertex 5.61803 5.17557 0
    endloop
  endfacet
  facet normal -0.987688 -0.156435 0
    outer loop
      vertex 7.5 4 14
      vertex 7.3287 5.08156 16
      vertex 7.3287 5.08156 14
    endloop
  endfacet
  facet normal -0.987688 -0.156435 0
    outer loop
      vertex 7.3287 5.08156 16
      vertex 7.5 4 14
      vertex 7.5 4 16
    endloop
  endfacet
  facet normal -0.707107 0.707107 0
    outer loop
      vertex 6.05725 1.16844 14
      vertex 6.83156 1.94275 16
      vertex 6.83156 1.94275 14
    endloop
  endfacet
  facet normal -0.707107 0.707107 0
    outer loop
      vertex 6.83156 1.94275 16
      vertex 6.05725 1.16844 14
      vertex 6.05725 1.16844 16
    endloop
  endfacet
  facet normal -0.891007 0.45399 0
    outer loop
      vertex 6.83156 1.94275 14
      vertex 7.3287 2.91844 16
      vertex 7.3287 2.91844 14
    endloop
  endfacet
  facet normal -0.891007 0.45399 0
    outer loop
      vertex 7.3287 2.91844 16
      vertex 6.83156 1.94275 14
      vertex 6.83156 1.94275 16
    endloop
  endfacet
  facet normal 0.891007 -0.45399 0
    outer loop
      vertex 0.671303 5.08156 16
      vertex 1.16844 6.05725 14
      vertex 1.16844 6.05725 16
    endloop
  endfacet
  facet normal 0.891007 -0.45399 0
    outer loop
      vertex 1.16844 6.05725 14
      vertex 0.671303 5.08156 16
      vertex 0.671303 5.08156 14
    endloop
  endfacet
  facet normal -0.987688 0.156435 0
    outer loop
      vertex 7.3287 2.91844 14
      vertex 7.5 4 16
      vertex 7.5 4 14
    endloop
  endfacet
  facet normal -0.987688 0.156435 0
    outer loop
      vertex 7.5 4 16
      vertex 7.3287 2.91844 14
      vertex 7.3287 2.91844 16
    endloop
  endfacet
  facet normal 0.45399 -0.891007 0
    outer loop
      vertex 1.94275 6.83156 14
      vertex 2.91844 7.3287 16
      vertex 1.94275 6.83156 16
    endloop
  endfacet
  facet normal 0.45399 -0.891007 0
    outer loop
      vertex 2.91844 7.3287 16
      vertex 1.94275 6.83156 14
      vertex 2.91844 7.3287 14
    endloop
  endfacet
  facet normal -0.156435 -0.987688 0
    outer loop
      vertex 4 7.5 14
      vertex 5.08156 7.3287 16
      vertex 4 7.5 16
    endloop
  endfacet
  facet normal -0.156435 -0.987688 -0
    outer loop
      vertex 5.08156 7.3287 16
      vertex 4 7.5 14
      vertex 5.08156 7.3287 14
    endloop
  endfacet
  facet normal -0.156435 0.987688 0
    outer loop
      vertex 5.08156 0.671303 14
      vertex 4 0.5 16
      vertex 5.08156 0.671303 16
    endloop
  endfacet
  facet normal -0.156435 0.987688 0
    outer loop
      vertex 4 0.5 16
      vertex 5.08156 0.671303 14
      vertex 4 0.5 14
    endloop
  endfacet
  facet normal -0.45399 0.891007 0
    outer loop
      vertex 6.05725 1.16844 14
      vertex 5.08156 0.671303 16
      vertex 6.05725 1.16844 16
    endloop
  endfacet
  facet normal -0.45399 0.891007 0
    outer loop
      vertex 5.08156 0.671303 16
      vertex 6.05725 1.16844 14
      vertex 5.08156 0.671303 14
    endloop
  endfacet
  facet normal 0.707107 -0.707107 0
    outer loop
      vertex 1.16844 6.05725 16
      vertex 1.94275 6.83156 14
      vertex 1.94275 6.83156 16
    endloop
  endfacet
  facet normal 0.707107 -0.707107 0
    outer loop
      vertex 1.94275 6.83156 14
      vertex 1.16844 6.05725 16
      vertex 1.16844 6.05725 14
    endloop
  endfacet
  facet normal 0.891007 0.45399 0
    outer loop
      vertex 1.16844 1.94275 16
      vertex 0.671303 2.91844 14
      vertex 0.671303 2.91844 16
    endloop
  endfacet
  facet normal 0.891007 0.45399 0
    outer loop
      vertex 0.671303 2.91844 14
      vertex 1.16844 1.94275 16
      vertex 1.16844 1.94275 14
    endloop
  endfacet
  facet normal 0.987688 0.156435 0
    outer loop
      vertex 0.671303 2.91844 16
      vertex 0.5 4 14
      vertex 0.5 4 16
    endloop
  endfacet
  facet normal 0.987688 0.156435 0
    outer loop
      vertex 0.5 4 14
      vertex 0.671303 2.91844 16
      vertex 0.671303 2.91844 14
    endloop
  endfacet
  facet normal 0.987688 -0.156435 0
    outer loop
      vertex 0.5 4 16
      vertex 0.671303 5.08156 14
      vertex 0.671303 5.08156 16
    endloop
  endfacet
  facet normal 0.987688 -0.156435 0
    outer loop
      vertex 0.671303 5.08156 14
      vertex 0.5 4 16
      vertex 0.5 4 14
    endloop
  endfacet
  facet normal 0.156435 0.987688 -0
    outer loop
      vertex 4 0.5 14
      vertex 2.91844 0.671303 16
      vertex 4 0.5 16
    endloop
  endfacet
  facet normal 0.156435 0.987688 0
    outer loop
      vertex 2.91844 0.671303 16
      vertex 4 0.5 14
      vertex 2.91844 0.671303 14
    endloop
  endfacet
  facet normal 0.45399 0.891007 -0
    outer loop
      vertex 2.91844 0.671303 14
      vertex 1.94275 1.16844 16
      vertex 2.91844 0.671303 16
    endloop
  endfacet
  facet normal 0.45399 0.891007 0
    outer loop
      vertex 1.94275 1.16844 16
      vertex 2.91844 0.671303 14
      vertex 1.94275 1.16844 14
    endloop
  endfacet
  facet normal 0.156435 -0.987688 0
    outer loop
      vertex 2.91844 7.3287 14
      vertex 4 7.5 16
      vertex 2.91844 7.3287 16
    endloop
  endfacet
  facet normal 0.156435 -0.987688 0
    outer loop
      vertex 4 7.5 16
      vertex 2.91844 7.3287 14
      vertex 4 7.5 14
    endloop
  endfacet
  facet normal -0.45399 -0.891007 0
    outer loop
      vertex 5.08156 7.3287 14
      vertex 6.05725 6.83156 16
      vertex 5.08156 7.3287 16
    endloop
  endfacet
  facet normal -0.45399 -0.891007 -0
    outer loop
      vertex 6.05725 6.83156 16
      vertex 5.08156 7.3287 14
      vertex 6.05725 6.83156 14
    endloop
  endfacet
  facet normal 0.707107 0.707107 0
    outer loop
      vertex 1.94275 1.16844 16
      vertex 1.16844 1.94275 14
      vertex 1.16844 1.94275 16
    endloop
  endfacet
  facet normal 0.707107 0.707107 0
    outer loop
      vertex 1.16844 1.94275 14
      vertex 1.94275 1.16844 16
      vertex 1.94275 1.16844 14
    endloop
  endfacet
  facet normal -0.707107 -0.707107 0
    outer loop
      vertex 6.83156 6.05725 14
      vertex 6.05725 6.83156 16
      vertex 6.05725 6.83156 14
    endloop
  endfacet
  facet normal -0.707107 -0.707107 0
    outer loop
      vertex 6.05725 6.83156 16
      vertex 6.83156 6.05725 14
      vertex 6.83156 6.05725 16
    endloop
  endfacet
  facet normal -0.891007 -0.45399 0
    outer loop
      vertex 7.3287 5.08156 14
      vertex 6.83156 6.05725 16
      vertex 6.83156 6.05725 14
    endloop
  endfacet
  facet normal -0.891007 -0.45399 0
    outer loop
      vertex 6.83156 6.05725 16
      vertex 7.3287 5.08156 14
      vertex 7.3287 5.08156 16
    endloop
  endfacet
  facet normal -1 0 0
    outer loop
      vertex 0 0 0
      vertex 0 20 16
      vertex 0 20 0
    endloop
  endfacet
  facet normal -1 -0 0
    outer loop
      vertex 0 20 16
      vertex 0 0 0
      vertex 0 0 16
    endloop
  endfacet
  facet normal 0 -1 0
    outer loop
      vertex 0 0 0
      vertex 20 0 16
      vertex 0 0 16
    endloop
  endfacet
  facet normal 0 -1 -0
    outer loop
      vertex 20 0 16
      vertex 0 0 0
      vertex 20 0 0
    endloop
  endfacet
endsolid OpenSCAD_Model
