solid OpenSCAD_Model
  facet normal 0.0050605 -0.0319534 -0.999477
    outer loop
      vertex 33.3963 -2.81625 0
      vertex 32.4693 -2.96307 0
      vertex 34.427 28.7458 -1.00383
    endloop
  endfacet
  facet normal 0 -0.0317284 -0.999497
    outer loop
      vertex 32 -3 0
      vertex 3 29.9817 -1.04698
      vertex 32 29.9817 -1.04698
    endloop
  endfacet
  facet normal 0 -0.0317284 -0.999497
    outer loop
      vertex 3 29.9817 -1.04698
      vertex 32 -3 0
      vertex 2.99998 -3 0
    endloop
  endfacet
  facet normal 0.0784711 0.996916 -0
    outer loop
      vertex 32.4693 32.9631 0
      vertex 32 33 7
      vertex 32.4693 32.9631 7
    endloop
  endfacet
  facet normal 0.0784711 0.996916 0
    outer loop
      vertex 32 33 7
      vertex 32.4693 32.9631 0
      vertex 32 33 0
    endloop
  endfacet
  facet normal -0.189297 -0.0148956 -0.981807
    outer loop
      vertex -2.96307 2.53073 0
      vertex -3 3 0
      vertex 0 26.9836 -0.942286
    endloop
  endfacet
  facet normal 0.45399 -0.891007 0
    outer loop
      vertex 34.289 -2.5262 0
      vertex 35.1253 -2.10008 7
      vertex 34.289 -2.5262 7
    endloop
  endfacet
  facet normal 0.45399 -0.891007 0
    outer loop
      vertex 35.1253 -2.10008 7
      vertex 34.289 -2.5262 0
      vertex 35.1253 -2.10008 0
    endloop
  endfacet
  facet normal -0.29956 0.0141571 -0.953972
    outer loop
      vertex 0 26.9836 -0.942286
      vertex -3 27 0
      vertex 0.14682 27.91 -0.97464
    endloop
  endfacet
  facet normal -0.000503158 -0.0317284 -0.999496
    outer loop
      vertex 2.99998 -3 0
      vertex 2.07294 29.835 -1.04186
      vertex 3 29.9817 -1.04698
    endloop
  endfacet
  facet normal 0.0164612 -0.0323069 -0.999342
    outer loop
      vertex 35.1253 -2.10008 0
      vertex 34.289 -2.5262 0
      vertex 35 26.9836 -0.942286
    endloop
  endfacet
  facet normal -0.299661 0 -0.954046
    outer loop
      vertex 0 26.9836 -0.942286
      vertex -3 3 0
      vertex -3 27 0
    endloop
  endfacet
  facet normal -1 0 0
    outer loop
      vertex -3 3 0
      vertex -3 27 7
      vertex -3 27 0
    endloop
  endfacet
  facet normal -1 -0 0
    outer loop
      vertex -3 27 7
      vertex -3 3 0
      vertex -3 3 7
    endloop
  endfacet
  facet normal -0.45399 0.891007 0
    outer loop
      vertex 0.710968 32.5262 0
      vertex -0.125336 32.1001 7
      vertex 0.710968 32.5262 7
    endloop
  endfacet
  facet normal -0.45399 0.891007 0
    outer loop
      vertex -0.125336 32.1001 7
      vertex 0.710968 32.5262 0
      vertex -0.125336 32.1001 0
    endloop
  endfacet
  facet normal 0.996916 0.0784711 0
    outer loop
      vertex 38 27 7
      vertex 37.9631 27.4693 0
      vertex 37.9631 27.4693 7
    endloop
  endfacet
  facet normal 0.996916 0.0784711 0
    outer loop
      vertex 37.9631 27.4693 0
      vertex 38 27 7
      vertex 38 27 0
    endloop
  endfacet
  facet normal 1 -0 0
    outer loop
      vertex 38 3 7
      vertex 38 27 0
      vertex 38 27 7
    endloop
  endfacet
  facet normal 1 0 0
    outer loop
      vertex 38 27 0
      vertex 38 3 7
      vertex 38 3 0
    endloop
  endfacet
  facet normal -0.148224 0.290907 -0.9452
    outer loop
      vertex 2.07294 29.835 -1.04186
      vertex -0.125336 32.1001 0
      vertex 0.710968 32.5262 0
    endloop
  endfacet
  facet normal 0.240033 0.207059 -0.948425
    outer loop
      vertex 34.427 28.7458 -1.00383
      vertex 33.7634 29.4091 -1.02699
      vertex 36.5484 30.8847 0
    endloop
  endfacet
  facet normal -0.891007 0.45399 0
    outer loop
      vertex -2.5262 29.289 0
      vertex -2.10008 30.1253 7
      vertex -2.10008 30.1253 0
    endloop
  endfacet
  facet normal -0.891007 0.45399 0
    outer loop
      vertex -2.10008 30.1253 7
      vertex -2.5262 29.289 0
      vertex -2.5262 29.289 7
    endloop
  endfacet
  facet normal 0 0 1
    outer loop
      vertex 35 27 7
      vertex 38 27 7
      vertex 37.9631 27.4693 7
    endloop
  endfacet
  facet normal 0 0 1
    outer loop
      vertex 38 27 7
      vertex 35 27 7
      vertex 38 3 7
    endloop
  endfacet
  facet normal 0 0 1
    outer loop
      vertex 35 27 7
      vertex 37.9631 27.4693 7
      vertex 37.8162 28.3964 7
    endloop
  endfacet
  facet normal 0 0 1
    outer loop
      vertex 35 3 7
      vertex 38 3 7
      vertex 35 27 7
    endloop
  endfacet
  facet normal 0 0 1
    outer loop
      vertex 34.8532 27.927 7
      vertex 37.8162 28.3964 7
      vertex 37.5262 29.289 7
    endloop
  endfacet
  facet normal 0 0 1
    outer loop
      vertex 38 3 7
      vertex 35 3 7
      vertex 37.9631 2.53069 7
    endloop
  endfacet
  facet normal 0 0 1
    outer loop
      vertex 34.8532 27.927 7
      vertex 37.5262 29.289 7
      vertex 37.1001 30.1253 7
    endloop
  endfacet
  facet normal 0 0 1
    outer loop
      vertex 37.9631 2.53069 7
      vertex 35 3 7
      vertex 37.8162 1.60362 7
    endloop
  endfacet
  facet normal 0 0 1
    outer loop
      vertex 34.427 28.7634 7
      vertex 37.1001 30.1253 7
      vertex 36.5484 30.8847 7
    endloop
  endfacet
  facet normal -0 0 1
    outer loop
      vertex 34.8532 2.07294 7
      vertex 37.8162 1.60362 7
      vertex 35 3 7
    endloop
  endfacet
  facet normal 0 0 1
    outer loop
      vertex 34.427 28.7634 7
      vertex 36.5484 30.8847 7
      vertex 35.8847 31.5484 7
    endloop
  endfacet
  facet normal 0 0 1
    outer loop
      vertex 37.8162 1.60362 7
      vertex 34.8532 2.07294 7
      vertex 37.5262 0.710968 7
    endloop
  endfacet
  facet normal 0 0 1
    outer loop
      vertex 33.7634 29.427 7
      vertex 35.8847 31.5484 7
      vertex 35.1253 32.1001 7
    endloop
  endfacet
  facet normal 0 0 1
    outer loop
      vertex 37.5262 0.710968 7
      vertex 34.8532 2.07294 7
      vertex 37.1001 -0.125336 7
    endloop
  endfacet
  facet normal -0 0 1
    outer loop
      vertex 34.427 1.23663 7
      vertex 37.1001 -0.125336 7
      vertex 34.8532 2.07294 7
    endloop
  endfacet
  facet normal 0 0 1
    outer loop
      vertex 37.8162 28.3964 7
      vertex 34.8532 27.927 7
      vertex 35 27 7
    endloop
  endfacet
  facet normal 0 0 1
    outer loop
      vertex 37.1001 30.1253 7
      vertex 34.427 28.7634 7
      vertex 34.8532 27.927 7
    endloop
  endfacet
  facet normal 0 0 1
    outer loop
      vertex 33.7634 29.427 7
      vertex 35.1253 32.1001 7
      vertex 34.289 32.5262 7
    endloop
  endfacet
  facet normal 0 0 1
    outer loop
      vertex 35.8847 31.5484 7
      vertex 33.7634 29.427 7
      vertex 34.427 28.7634 7
    endloop
  endfacet
  facet normal 0 0 1
    outer loop
      vertex 32.927 29.8532 7
      vertex 34.289 32.5262 7
      vertex 33.3964 32.8162 7
    endloop
  endfacet
  facet normal 0 0 1
    outer loop
      vertex 34.289 32.5262 7
      vertex 32.927 29.8532 7
      vertex 33.7634 29.427 7
    endloop
  endfacet
  facet normal 0 0 1
    outer loop
      vertex 32.4693 32.9631 7
      vertex 32.927 29.8532 7
      vertex 33.3964 32.8162 7
    endloop
  endfacet
  facet normal 0 0 1
    outer loop
      vertex 32 30 7
      vertex 32.4693 32.9631 7
      vertex 32 33 7
    endloop
  endfacet
  facet normal 0 0 1
    outer loop
      vertex 32.4693 32.9631 7
      vertex 32 30 7
      vertex 32.927 29.8532 7
    endloop
  endfacet
  facet normal -0 0 1
    outer loop
      vertex 3 33 7
      vertex 32 30 7
      vertex 32 33 7
    endloop
  endfacet
  facet normal 0 0 1
    outer loop
      vertex 3 33 7
      vertex 3 30 7
      vertex 32 30 7
    endloop
  endfacet
  facet normal -0 0 1
    outer loop
      vertex 2.53069 32.9631 7
      vertex 3 30 7
      vertex 3 33 7
    endloop
  endfacet
  facet normal 0 0 1
    outer loop
      vertex 2.53069 32.9631 7
      vertex 2.07294 29.8532 7
      vertex 3 30 7
    endloop
  endfacet
  facet normal -0 0 1
    outer loop
      vertex 1.60362 32.8162 7
      vertex 2.07294 29.8532 7
      vertex 2.53069 32.9631 7
    endloop
  endfacet
  facet normal -0 0 1
    outer loop
      vertex 0.710968 32.5262 7
      vertex 2.07294 29.8532 7
      vertex 1.60362 32.8162 7
    endloop
  endfacet
  facet normal 0 0 1
    outer loop
      vertex 2.07294 29.8532 7
      vertex 0.710968 32.5262 7
      vertex 1.23663 29.427 7
    endloop
  endfacet
  facet normal -0 0 1
    outer loop
      vertex -0.125336 32.1001 7
      vertex 1.23663 29.427 7
      vertex 0.710968 32.5262 7
    endloop
  endfacet
  facet normal -0 0 1
    outer loop
      vertex -0.884689 31.5484 7
      vertex 1.23663 29.427 7
      vertex -0.125336 32.1001 7
    endloop
  endfacet
  facet normal 0 0 1
    outer loop
      vertex 1.23663 29.427 7
      vertex -0.884689 31.5484 7
      vertex 0.572937 28.7634 7
    endloop
  endfacet
  facet normal -0 0 1
    outer loop
      vertex -2.10008 30.1253 7
      vertex 0.572937 28.7634 7
      vertex -1.54839 30.8847 7
    endloop
  endfacet
  facet normal -0 0 1
    outer loop
      vertex -1.54839 30.8847 7
      vertex 0.572937 28.7634 7
      vertex -0.884689 31.5484 7
    endloop
  endfacet
  facet normal 0 0 1
    outer loop
      vertex 37.1001 -0.125336 7
      vertex 34.427 1.23663 7
      vertex 36.5484 -0.884689 7
    endloop
  endfacet
  facet normal 0 0 1
    outer loop
      vertex 36.5484 -0.884689 7
      vertex 34.427 1.23663 7
      vertex 35.8847 -1.54839 7
    endloop
  endfacet
  facet normal -0 0 1
    outer loop
      vertex 33.7634 0.572937 7
      vertex 35.8847 -1.54839 7
      vertex 34.427 1.23663 7
    endloop
  endfacet
  facet normal 0 0 1
    outer loop
      vertex 35.8847 -1.54839 7
      vertex 33.7634 0.572937 7
      vertex 35.1253 -2.10008 7
    endloop
  endfacet
  facet normal 0 0 1
    outer loop
      vertex 35.1253 -2.10008 7
      vertex 33.7634 0.572937 7
      vertex 34.289 -2.5262 7
    endloop
  endfacet
  facet normal -0 0 1
    outer loop
      vertex 32.927 0.14682 7
      vertex 34.289 -2.5262 7
      vertex 33.7634 0.572937 7
    endloop
  endfacet
  facet normal 0 0 1
    outer loop
      vertex 34.289 -2.5262 7
      vertex 32.927 0.14682 7
      vertex 33.3963 -2.81625 7
    endloop
  endfacet
  facet normal 0 0 1
    outer loop
      vertex 32.927 0.14682 7
      vertex 32.4693 -2.96307 7
      vertex 33.3963 -2.81625 7
    endloop
  endfacet
  facet normal -0 0 1
    outer loop
      vertex 32 0 7
      vertex 32.4693 -2.96307 7
      vertex 32.927 0.14682 7
    endloop
  endfacet
  facet normal 0 0 1
    outer loop
      vertex 32 0 7
      vertex 32 -3 7
      vertex 32.4693 -2.96307 7
    endloop
  endfacet
  facet normal -0 0 1
    outer loop
      vertex 2.99998 0 7
      vertex 32 -3 7
      vertex 32 0 7
    endloop
  endfacet
  facet normal 0 0 1
    outer loop
      vertex 2.99998 0 7
      vertex 2.99998 -3 7
      vertex 32 -3 7
    endloop
  endfacet
  facet normal 0 0 1
    outer loop
      vertex 2.99998 0 7
      vertex 2.53072 -2.96307 7
      vertex 2.99998 -3 7
    endloop
  endfacet
  facet normal 0 0 1
    outer loop
      vertex 2.07294 0.14682 7
      vertex 2.53072 -2.96307 7
      vertex 2.99998 0 7
    endloop
  endfacet
  facet normal 0 0 1
    outer loop
      vertex 2.07294 0.14682 7
      vertex 1.60367 -2.81625 7
      vertex 2.53072 -2.96307 7
    endloop
  endfacet
  facet normal 0 0 1
    outer loop
      vertex 0.710968 -2.5262 7
      vertex 2.07294 0.14682 7
      vertex 1.23663 0.572937 7
    endloop
  endfacet
  facet normal 0 0 1
    outer loop
      vertex 2.07294 0.14682 7
      vertex 0.710968 -2.5262 7
      vertex 1.60367 -2.81625 7
    endloop
  endfacet
  facet normal 0 0 1
    outer loop
      vertex -0.884689 -1.54839 7
      vertex 1.23663 0.572937 7
      vertex 0.572937 1.23663 7
    endloop
  endfacet
  facet normal 0 0 1
    outer loop
      vertex -2.10008 -0.125336 7
      vertex 0.572937 1.23663 7
      vertex 0.14682 2.07294 7
    endloop
  endfacet
  facet normal 0 0 1
    outer loop
      vertex -2.81625 1.60367 7
      vertex 0.14682 2.07294 7
      vertex 0 3 7
    endloop
  endfacet
  facet normal 0 0 1
    outer loop
      vertex 1.23663 0.572937 7
      vertex -0.125336 -2.10008 7
      vertex 0.710968 -2.5262 7
    endloop
  endfacet
  facet normal 0 0 1
    outer loop
      vertex 0 27 7
      vertex -3 27 7
      vertex 0 3 7
    endloop
  endfacet
  facet normal 0 0 1
    outer loop
      vertex 0.572937 28.7634 7
      vertex -2.10008 30.1253 7
      vertex 0.14682 27.927 7
    endloop
  endfacet
  facet normal 0 0 1
    outer loop
      vertex -3 3 7
      vertex 0 3 7
      vertex -3 27 7
    endloop
  endfacet
  facet normal -0 0 1
    outer loop
      vertex -2.5262 29.289 7
      vertex 0.14682 27.927 7
      vertex -2.10008 30.1253 7
    endloop
  endfacet
  facet normal 0 -0 1
    outer loop
      vertex -2.96307 2.53073 7
      vertex 0 3 7
      vertex -3 3 7
    endloop
  endfacet
  facet normal -0 0 1
    outer loop
      vertex -2.81625 28.3963 7
      vertex 0.14682 27.927 7
      vertex -2.5262 29.289 7
    endloop
  endfacet
  facet normal 0 -0 1
    outer loop
      vertex -2.81625 1.60367 7
      vertex 0 3 7
      vertex -2.96307 2.53073 7
    endloop
  endfacet
  facet normal 0 0 1
    outer loop
      vertex 0.14682 27.927 7
      vertex -2.81625 28.3963 7
      vertex 0 27 7
    endloop
  endfacet
  facet normal 0 0 1
    outer loop
      vertex 1.23663 0.572937 7
      vertex -0.884689 -1.54839 7
      vertex -0.125336 -2.10008 7
    endloop
  endfacet
  facet normal 0 0 1
    outer loop
      vertex 0 27 7
      vertex -2.81625 28.3963 7
      vertex -2.96307 27.4693 7
    endloop
  endfacet
  facet normal 0 0 1
    outer loop
      vertex 0.572937 1.23663 7
      vertex -1.54839 -0.884689 7
      vertex -0.884689 -1.54839 7
    endloop
  endfacet
  facet normal 0 0 1
    outer loop
      vertex 0 27 7
      vertex -2.96307 27.4693 7
      vertex -3 27 7
    endloop
  endfacet
  facet normal 0 0 1
    outer loop
      vertex 0.572937 1.23663 7
      vertex -2.10008 -0.125336 7
      vertex -1.54839 -0.884689 7
    endloop
  endfacet
  facet normal 0 0 1
    outer loop
      vertex 0.14682 2.07294 7
      vertex -2.5262 0.710968 7
      vertex -2.10008 -0.125336 7
    endloop
  endfacet
  facet normal 0 0 1
    outer loop
      vertex 0.14682 2.07294 7
      vertex -2.81625 1.60367 7
      vertex -2.5262 0.710968 7
    endloop
  endfacet
  facet normal -0.00160019 -0.0317593 -0.999494
    outer loop
      vertex 2.99998 -3 0
      vertex 1.23663 29.4091 -1.02699
      vertex 2.07294 29.835 -1.04186
    endloop
  endfacet
  facet normal -0.288062 0.11366 -0.950843
    outer loop
      vertex 0.14682 27.91 -0.97464
      vertex -2.5262 29.289 0
      vertex 0.572937 28.7458 -1.00383
    endloop
  endfacet
  facet normal -0.282058 0.143716 -0.948572
    outer loop
      vertex 0.572937 28.7458 -1.00383
      vertex -2.5262 29.289 0
      vertex -2.10008 30.1253 0
    endloop
  endfacet
  facet normal 0.80902 0.587781 0
    outer loop
      vertex 37.1001 30.1253 7
      vertex 36.5484 30.8847 0
      vertex 36.5484 30.8847 7
    endloop
  endfacet
  facet normal 0.80902 0.587781 0
    outer loop
      vertex 36.5484 30.8847 0
      vertex 37.1001 30.1253 7
      vertex 37.1001 30.1253 0
    endloop
  endfacet
  facet normal 0.302039 0.0237746 -0.952999
    outer loop
      vertex 38 27 0
      vertex 34.8532 27.91 -0.97464
      vertex 37.9631 27.4693 0
    endloop
  endfacet
  facet normal 0.299661 0 -0.954046
    outer loop
      vertex 38 3 0
      vertex 35 26.9836 -0.942286
      vertex 38 27 0
    endloop
  endfacet
  facet normal 0.25878 0.188013 -0.947462
    outer loop
      vertex 37.1001 30.1253 0
      vertex 34.427 28.7458 -1.00383
      vertex 36.5484 30.8847 0
    endloop
  endfacet
  facet normal 0.0431712 -0.0313654 -0.998575
    outer loop
      vertex 36.5484 -0.884689 0
      vertex 35 26.9836 -0.942286
      vertex 37.1001 -0.125336 0
    endloop
  endfacet
  facet normal 0.189275 -0.0148986 -0.981811
    outer loop
      vertex 37.9631 2.53069 0
      vertex 35 26.9836 -0.942286
      vertex 38 3 0
    endloop
  endfacet
  facet normal 0.587781 -0.80902 0
    outer loop
      vertex 35.1253 -2.10008 0
      vertex 35.8847 -1.54839 7
      vertex 35.1253 -2.10008 7
    endloop
  endfacet
  facet normal 0.587781 -0.80902 0
    outer loop
      vertex 35.8847 -1.54839 7
      vertex 35.1253 -2.10008 0
      vertex 35.8847 -1.54839 0
    endloop
  endfacet
  facet normal -0.156424 -0.98769 0
    outer loop
      vertex 1.60367 -2.81625 0
      vertex 2.53072 -2.96307 7
      vertex 1.60367 -2.81625 7
    endloop
  endfacet
  facet normal -0.156424 -0.98769 -0
    outer loop
      vertex 2.53072 -2.96307 7
      vertex 1.60367 -2.81625 0
      vertex 2.53072 -2.96307 0
    endloop
  endfacet
  facet normal -0.25878 0.188013 -0.947462
    outer loop
      vertex 0.572937 28.7458 -1.00383
      vertex -2.10008 30.1253 0
      vertex -1.54839 30.8847 0
    endloop
  endfacet
  facet normal 0.0561173 0.321502 -0.945245
    outer loop
      vertex 32.927 29.835 -1.04186
      vertex 32 29.9817 -1.04698
      vertex 33.3964 32.8162 0
    endloop
  endfacet
  facet normal 0 -1 0
    outer loop
      vertex 2.99998 -3 0
      vertex 32 -3 7
      vertex 2.99998 -3 7
    endloop
  endfacet
  facet normal 0 -1 -0
    outer loop
      vertex 32 -3 7
      vertex 2.99998 -3 0
      vertex 32 -3 0
    endloop
  endfacet
  facet normal -0.996918 -0.0784465 0
    outer loop
      vertex -2.96307 2.53073 0
      vertex -3 3 7
      vertex -3 3 0
    endloop
  endfacet
  facet normal -0.996918 -0.0784465 0
    outer loop
      vertex -3 3 7
      vertex -2.96307 2.53073 0
      vertex -2.96307 2.53073 7
    endloop
  endfacet
  facet normal 0 0.327725 -0.944773
    outer loop
      vertex 3 29.9817 -1.04698
      vertex 32 33 0
      vertex 32 29.9817 -1.04698
    endloop
  endfacet
  facet normal 0 0.327725 -0.944773
    outer loop
      vertex 32 33 0
      vertex 3 29.9817 -1.04698
      vertex 3 33 0
    endloop
  endfacet
  facet normal -0.101973 0.313842 -0.943983
    outer loop
      vertex 2.07294 29.835 -1.04186
      vertex 0.710968 32.5262 0
      vertex 1.60362 32.8162 0
    endloop
  endfacet
  facet normal -0.98769 0.156424 0
    outer loop
      vertex -2.96307 27.4693 0
      vertex -2.81625 28.3963 7
      vertex -2.81625 28.3963 0
    endloop
  endfacet
  facet normal -0.98769 0.156424 0
    outer loop
      vertex -2.81625 28.3963 7
      vertex -2.96307 27.4693 0
      vertex -2.96307 27.4693 7
    endloop
  endfacet
  facet normal -0.228153 0.228153 -0.946516
    outer loop
      vertex 1.23663 29.4091 -1.02699
      vertex -1.54839 30.8847 0
      vertex -0.884689 31.5484 0
    endloop
  endfacet
  facet normal 0.891007 0.45399 0
    outer loop
      vertex 37.5262 29.289 7
      vertex 37.1001 30.1253 0
      vertex 37.1001 30.1253 7
    endloop
  endfacet
  facet normal 0.891007 0.45399 0
    outer loop
      vertex 37.1001 30.1253 0
      vertex 37.5262 29.289 7
      vertex 37.5262 29.289 0
    endloop
  endfacet
  facet normal 0.29956 0.014162 -0.953972
    outer loop
      vertex 35 26.9836 -0.942286
      vertex 34.8532 27.91 -0.97464
      vertex 38 27 0
    endloop
  endfacet
  facet normal 0.282058 0.143716 -0.948572
    outer loop
      vertex 37.5262 29.289 0
      vertex 34.427 28.7458 -1.00383
      vertex 37.1001 30.1253 0
    endloop
  endfacet
  facet normal 0.228153 0.228153 -0.946516
    outer loop
      vertex 36.5484 30.8847 0
      vertex 33.7634 29.4091 -1.02699
      vertex 35.8847 31.5484 0
    endloop
  endfacet
  facet normal 0.309015 -0.951057 0
    outer loop
      vertex 33.3963 -2.81625 0
      vertex 34.289 -2.5262 7
      vertex 33.3963 -2.81625 7
    endloop
  endfacet
  facet normal 0.309015 -0.951057 0
    outer loop
      vertex 34.289 -2.5262 7
      vertex 33.3963 -2.81625 0
      vertex 34.289 -2.5262 0
    endloop
  endfacet
  facet normal 0.00573988 -0.0319755 -0.999472
    outer loop
      vertex 34.8532 27.91 -0.97464
      vertex 33.3963 -2.81625 0
      vertex 34.427 28.7458 -1.00383
    endloop
  endfacet
  facet normal 0.707107 -0.707107 0
    outer loop
      vertex 35.8847 -1.54839 7
      vertex 36.5484 -0.884689 0
      vertex 36.5484 -0.884689 7
    endloop
  endfacet
  facet normal 0.707107 -0.707107 0
    outer loop
      vertex 36.5484 -0.884689 0
      vertex 35.8847 -1.54839 7
      vertex 35.8847 -1.54839 0
    endloop
  endfacet
  facet normal 0.156422 -0.98769 0
    outer loop
      vertex 32.4693 -2.96307 0
      vertex 33.3963 -2.81625 7
      vertex 32.4693 -2.96307 7
    endloop
  endfacet
  facet normal 0.156422 -0.98769 0
    outer loop
      vertex 33.3963 -2.81625 7
      vertex 32.4693 -2.96307 0
      vertex 33.3963 -2.81625 0
    endloop
  endfacet
  facet normal -0.00250296 -0.0318083 -0.999491
    outer loop
      vertex 2.53072 -2.96307 0
      vertex 1.23663 29.4091 -1.02699
      vertex 2.99998 -3 0
    endloop
  endfacet
  facet normal -0.0784465 -0.996918 0
    outer loop
      vertex 2.53072 -2.96307 0
      vertex 2.99998 -3 7
      vertex 2.53072 -2.96307 7
    endloop
  endfacet
  facet normal -0.0784465 -0.996918 -0
    outer loop
      vertex 2.99998 -3 7
      vertex 2.53072 -2.96307 0
      vertex 2.99998 -3 0
    endloop
  endfacet
  facet normal -0.159632 0.280436 -0.946506
    outer loop
      vertex 1.23663 29.4091 -1.02699
      vertex -0.125336 32.1001 0
      vertex 2.07294 29.835 -1.04186
    endloop
  endfacet
  facet normal -0.0561164 0.321502 -0.945245
    outer loop
      vertex 2.07294 29.835 -1.04186
      vertex 1.60362 32.8162 0
      vertex 3 29.9817 -1.04698
    endloop
  endfacet
  facet normal -0.191651 0.263788 -0.945349
    outer loop
      vertex 1.23663 29.4091 -1.02699
      vertex -0.884689 31.5484 0
      vertex -0.125336 32.1001 0
    endloop
  endfacet
  facet normal -0.707107 0.707107 0
    outer loop
      vertex -1.54839 30.8847 0
      vertex -0.884689 31.5484 7
      vertex -0.884689 31.5484 0
    endloop
  endfacet
  facet normal -0.707107 0.707107 0
    outer loop
      vertex -0.884689 31.5484 7
      vertex -1.54839 30.8847 0
      vertex -1.54839 30.8847 7
    endloop
  endfacet
  facet normal -0.0431712 -0.0313654 -0.998575
    outer loop
      vertex -1.54839 -0.884689 0
      vertex -2.10008 -0.125336 0
      vertex 0 26.9836 -0.942286
    endloop
  endfacet
  facet normal -0.023447 -0.0322723 -0.999204
    outer loop
      vertex -0.125336 -2.10008 0
      vertex -0.884689 -1.54839 0
      vertex 0 26.9836 -0.942286
    endloop
  endfacet
  facet normal -0.309015 -0.951057 0
    outer loop
      vertex 0.710968 -2.5262 0
      vertex 1.60367 -2.81625 7
      vertex 0.710968 -2.5262 7
    endloop
  endfacet
  facet normal -0.309015 -0.951057 -0
    outer loop
      vertex 1.60367 -2.81625 7
      vertex 0.710968 -2.5262 0
      vertex 1.60367 -2.81625 0
    endloop
  endfacet
  facet normal -0.45399 -0.891007 0
    outer loop
      vertex -0.125336 -2.10008 0
      vertex 0.710968 -2.5262 7
      vertex -0.125336 -2.10008 7
    endloop
  endfacet
  facet normal -0.45399 -0.891007 -0
    outer loop
      vertex 0.710968 -2.5262 7
      vertex -0.125336 -2.10008 0
      vertex 0.710968 -2.5262 0
    endloop
  endfacet
  facet normal 0.45399 0.891007 -0
    outer loop
      vertex 35.1253 32.1001 0
      vertex 34.289 32.5262 7
      vertex 35.1253 32.1001 7
    endloop
  endfacet
  facet normal 0.45399 0.891007 0
    outer loop
      vertex 34.289 32.5262 7
      vertex 35.1253 32.1001 0
      vertex 34.289 32.5262 0
    endloop
  endfacet
  facet normal 0.309015 0.951057 -0
    outer loop
      vertex 34.289 32.5262 0
      vertex 33.3964 32.8162 7
      vertex 34.289 32.5262 7
    endloop
  endfacet
  facet normal 0.309015 0.951057 0
    outer loop
      vertex 33.3964 32.8162 7
      vertex 34.289 32.5262 0
      vertex 33.3964 32.8162 0
    endloop
  endfacet
  facet normal 0.101973 0.313842 -0.943983
    outer loop
      vertex 34.289 32.5262 0
      vertex 32.927 29.835 -1.04186
      vertex 33.3964 32.8162 0
    endloop
  endfacet
  facet normal 0.0784465 -0.996918 0
    outer loop
      vertex 32 -3 0
      vertex 32.4693 -2.96307 7
      vertex 32 -3 7
    endloop
  endfacet
  facet normal 0.0784465 -0.996918 0
    outer loop
      vertex 32.4693 -2.96307 7
      vertex 32 -3 0
      vertex 32.4693 -2.96307 0
    endloop
  endfacet
  facet normal 0 1 -0
    outer loop
      vertex 32 33 0
      vertex 3 33 7
      vertex 32 33 7
    endloop
  endfacet
  facet normal 0 1 0
    outer loop
      vertex 3 33 7
      vertex 32 33 0
      vertex 3 33 0
    endloop
  endfacet
  facet normal -0.587781 0.80902 0
    outer loop
      vertex -0.125336 32.1001 0
      vertex -0.884689 31.5484 7
      vertex -0.125336 32.1001 7
    endloop
  endfacet
  facet normal -0.587781 0.80902 0
    outer loop
      vertex -0.884689 31.5484 7
      vertex -0.125336 32.1001 0
      vertex -0.884689 31.5484 0
    endloop
  endfacet
  facet normal -0.309015 0.951057 0
    outer loop
      vertex 1.60362 32.8162 0
      vertex 0.710968 32.5262 7
      vertex 1.60362 32.8162 7
    endloop
  endfacet
  facet normal -0.309015 0.951057 0
    outer loop
      vertex 0.710968 32.5262 7
      vertex 1.60362 32.8162 0
      vertex 0.710968 32.5262 0
    endloop
  endfacet
  facet normal -0.00573988 -0.0319755 -0.999472
    outer loop
      vertex 1.60367 -2.81625 0
      vertex 0.14682 27.91 -0.97464
      vertex 0.572937 28.7458 -1.00383
    endloop
  endfacet
  facet normal -0.996918 0.0784465 0
    outer loop
      vertex -3 27 0
      vertex -2.96307 27.4693 7
      vertex -2.96307 27.4693 0
    endloop
  endfacet
  facet normal -0.996918 0.0784465 0
    outer loop
      vertex -2.96307 27.4693 7
      vertex -3 27 0
      vertex -3 27 7
    endloop
  endfacet
  facet normal 0.304934 0.0482986 -0.951148
    outer loop
      vertex 37.9631 27.4693 0
      vertex 34.8532 27.91 -0.97464
      vertex 37.8162 28.3964 0
    endloop
  endfacet
  facet normal 0.288062 0.11366 -0.950843
    outer loop
      vertex 34.8532 27.91 -0.97464
      vertex 34.427 28.7458 -1.00383
      vertex 37.5262 29.289 0
    endloop
  endfacet
  facet normal 0.951057 -0.309015 0
    outer loop
      vertex 37.5262 0.710968 7
      vertex 37.8162 1.60362 0
      vertex 37.8162 1.60362 7
    endloop
  endfacet
  facet normal 0.951057 -0.309015 0
    outer loop
      vertex 37.8162 1.60362 0
      vertex 37.5262 0.710968 7
      vertex 37.5262 0.710968 0
    endloop
  endfacet
  facet normal 0.0590856 -0.0301055 -0.997799
    outer loop
      vertex 37.1001 -0.125336 0
      vertex 35 26.9836 -0.942286
      vertex 37.5262 0.710968 0
    endloop
  endfacet
  facet normal 0.00307037 -0.0318309 -0.999489
    outer loop
      vertex 34.427 28.7458 -1.00383
      vertex 32.4693 -2.96307 0
      vertex 33.7634 29.4091 -1.02699
    endloop
  endfacet
  facet normal 0.707107 0.707107 0
    outer loop
      vertex 36.5484 30.8847 7
      vertex 35.8847 31.5484 0
      vertex 35.8847 31.5484 7
    endloop
  endfacet
  facet normal 0.707107 0.707107 0
    outer loop
      vertex 35.8847 31.5484 0
      vertex 36.5484 30.8847 7
      vertex 36.5484 30.8847 0
    endloop
  endfacet
  facet normal 0.00250296 -0.0318083 -0.999491
    outer loop
      vertex 32.4693 -2.96307 0
      vertex 32 -3 0
      vertex 33.7634 29.4091 -1.02699
    endloop
  endfacet
  facet normal 0.987688 -0.156438 0
    outer loop
      vertex 37.8162 1.60362 7
      vertex 37.9631 2.53069 0
      vertex 37.9631 2.53069 7
    endloop
  endfacet
  facet normal 0.987688 -0.156438 0
    outer loop
      vertex 37.9631 2.53069 0
      vertex 37.8162 1.60362 7
      vertex 37.8162 1.60362 0
    endloop
  endfacet
  facet normal 0.0104617 -0.0321979 -0.999427
    outer loop
      vertex 34.289 -2.5262 0
      vertex 33.3963 -2.81625 0
      vertex 34.8532 27.91 -0.97464
    endloop
  endfacet
  facet normal 0.0163676 -0.0323047 -0.999344
    outer loop
      vertex 35 26.9836 -0.942286
      vertex 34.289 -2.5262 0
      vertex 34.8532 27.91 -0.97464
    endloop
  endfacet
  facet normal 0.023447 -0.0322723 -0.999204
    outer loop
      vertex 35.1253 -2.10008 0
      vertex 35 26.9836 -0.942286
      vertex 35.8847 -1.54839 0
    endloop
  endfacet
  facet normal 0.0319996 -0.0319996 -0.998975
    outer loop
      vertex 35.8847 -1.54839 0
      vertex 35 26.9836 -0.942286
      vertex 36.5484 -0.884689 0
    endloop
  endfacet
  facet normal -0.0848378 -0.0275653 -0.996013
    outer loop
      vertex -2.5262 0.710968 0
      vertex -2.81625 1.60367 0
      vertex 0 26.9836 -0.942286
    endloop
  endfacet
  facet normal -0.891007 -0.45399 0
    outer loop
      vertex -2.10008 -0.125336 0
      vertex -2.5262 0.710968 7
      vertex -2.5262 0.710968 0
    endloop
  endfacet
  facet normal -0.891007 -0.45399 0
    outer loop
      vertex -2.5262 0.710968 7
      vertex -2.10008 -0.125336 0
      vertex -2.10008 -0.125336 7
    endloop
  endfacet
  facet normal -0.0590855 -0.0301055 -0.997799
    outer loop
      vertex -2.10008 -0.125336 0
      vertex -2.5262 0.710968 0
      vertex 0 26.9836 -0.942286
    endloop
  endfacet
  facet normal -0.0164612 -0.0323069 -0.999342
    outer loop
      vertex 0.710968 -2.5262 0
      vertex -0.125336 -2.10008 0
      vertex 0 26.9836 -0.942286
    endloop
  endfacet
  facet normal -0.707107 -0.707107 0
    outer loop
      vertex -0.884689 -1.54839 0
      vertex -1.54839 -0.884689 7
      vertex -1.54839 -0.884689 0
    endloop
  endfacet
  facet normal -0.707107 -0.707107 0
    outer loop
      vertex -1.54839 -0.884689 7
      vertex -0.884689 -1.54839 0
      vertex -0.884689 -1.54839 7
    endloop
  endfacet
  facet normal -0.0319996 -0.0319996 -0.998976
    outer loop
      vertex -0.884689 -1.54839 0
      vertex -1.54839 -0.884689 0
      vertex 0 26.9836 -0.942286
    endloop
  endfacet
  facet normal 0.159632 0.280436 -0.946506
    outer loop
      vertex 33.7634 29.4091 -1.02699
      vertex 32.927 29.835 -1.04186
      vertex 35.1253 32.1001 0
    endloop
  endfacet
  facet normal 0.15644 0.987687 -0
    outer loop
      vertex 33.3964 32.8162 0
      vertex 32.4693 32.9631 7
      vertex 33.3964 32.8162 7
    endloop
  endfacet
  facet normal 0.15644 0.987687 0
    outer loop
      vertex 32.4693 32.9631 7
      vertex 33.3964 32.8162 0
      vertex 32.4693 32.9631 0
    endloop
  endfacet
  facet normal 0.587781 0.80902 -0
    outer loop
      vertex 35.8847 31.5484 0
      vertex 35.1253 32.1001 7
      vertex 35.8847 31.5484 7
    endloop
  endfacet
  facet normal 0.587781 0.80902 0
    outer loop
      vertex 35.1253 32.1001 7
      vertex 35.8847 31.5484 0
      vertex 35.1253 32.1001 0
    endloop
  endfacet
  facet normal -0.0512719 0.323712 -0.944766
    outer loop
      vertex 3 29.9817 -1.04698
      vertex 1.60362 32.8162 0
      vertex 2.53069 32.9631 0
    endloop
  endfacet
  facet normal -0.156438 0.987688 0
    outer loop
      vertex 2.53069 32.9631 0
      vertex 1.60362 32.8162 7
      vertex 2.53069 32.9631 7
    endloop
  endfacet
  facet normal -0.156438 0.987688 0
    outer loop
      vertex 1.60362 32.8162 7
      vertex 2.53069 32.9631 0
      vertex 1.60362 32.8162 0
    endloop
  endfacet
  facet normal -0.0104617 -0.0321979 -0.999427
    outer loop
      vertex 0.710968 -2.5262 0
      vertex 0.14682 27.91 -0.97464
      vertex 1.60367 -2.81625 0
    endloop
  endfacet
  facet normal -0.0163691 -0.0323048 -0.999344
    outer loop
      vertex 0.710968 -2.5262 0
      vertex 0 26.9836 -0.942286
      vertex 0.14682 27.91 -0.97464
    endloop
  endfacet
  facet normal -0.80902 0.587781 0
    outer loop
      vertex -2.10008 30.1253 0
      vertex -1.54839 30.8847 7
      vertex -1.54839 30.8847 0
    endloop
  endfacet
  facet normal -0.80902 0.587781 0
    outer loop
      vertex -1.54839 30.8847 7
      vertex -2.10008 30.1253 0
      vertex -2.10008 30.1253 7
    endloop
  endfacet
  facet normal 0.296693 0.0964007 -0.950095
    outer loop
      vertex 37.8162 28.3964 0
      vertex 34.8532 27.91 -0.97464
      vertex 37.5262 29.289 0
    endloop
  endfacet
  facet normal 0.891007 -0.45399 0
    outer loop
      vertex 37.1001 -0.125336 7
      vertex 37.5262 0.710968 0
      vertex 37.5262 0.710968 7
    endloop
  endfacet
  facet normal 0.891007 -0.45399 0
    outer loop
      vertex 37.5262 0.710968 0
      vertex 37.1001 -0.125336 7
      vertex 37.1001 -0.125336 0
    endloop
  endfacet
  facet normal 0.80902 -0.587781 0
    outer loop
      vertex 36.5484 -0.884689 7
      vertex 37.1001 -0.125336 0
      vertex 37.1001 -0.125336 7
    endloop
  endfacet
  facet normal 0.80902 -0.587781 0
    outer loop
      vertex 37.1001 -0.125336 0
      vertex 36.5484 -0.884689 7
      vertex 36.5484 -0.884689 0
    endloop
  endfacet
  facet normal 0.084838 -0.0275653 -0.996013
    outer loop
      vertex 37.5262 0.710968 0
      vertex 35 26.9836 -0.942286
      vertex 37.8162 1.60362 0
    endloop
  endfacet
  facet normal 0.996916 -0.0784711 0
    outer loop
      vertex 37.9631 2.53069 7
      vertex 38 3 0
      vertex 38 3 7
    endloop
  endfacet
  facet normal 0.996916 -0.0784711 0
    outer loop
      vertex 38 3 0
      vertex 37.9631 2.53069 7
      vertex 37.9631 2.53069 0
    endloop
  endfacet
  facet normal -0.136525 -0.0216216 -0.990401
    outer loop
      vertex -2.81625 1.60367 0
      vertex -2.96307 2.53073 0
      vertex 0 26.9836 -0.942286
    endloop
  endfacet
  facet normal -0.98769 -0.156422 0
    outer loop
      vertex -2.81625 1.60367 0
      vertex -2.96307 2.53073 7
      vertex -2.96307 2.53073 0
    endloop
  endfacet
  facet normal -0.98769 -0.156422 0
    outer loop
      vertex -2.96307 2.53073 7
      vertex -2.81625 1.60367 0
      vertex -2.81625 1.60367 7
    endloop
  endfacet
  facet normal -0.951057 -0.309015 0
    outer loop
      vertex -2.5262 0.710968 0
      vertex -2.81625 1.60367 7
      vertex -2.81625 1.60367 0
    endloop
  endfacet
  facet normal -0.951057 -0.309015 0
    outer loop
      vertex -2.81625 1.60367 7
      vertex -2.5262 0.710968 0
      vertex -2.5262 0.710968 7
    endloop
  endfacet
  facet normal -0.80902 -0.587781 0
    outer loop
      vertex -1.54839 -0.884689 0
      vertex -2.10008 -0.125336 7
      vertex -2.10008 -0.125336 0
    endloop
  endfacet
  facet normal -0.80902 -0.587781 0
    outer loop
      vertex -2.10008 -0.125336 7
      vertex -1.54839 -0.884689 0
      vertex -1.54839 -0.884689 7
    endloop
  endfacet
  facet normal -0.587781 -0.80902 0
    outer loop
      vertex -0.884689 -1.54839 0
      vertex -0.125336 -2.10008 7
      vertex -0.884689 -1.54839 7
    endloop
  endfacet
  facet normal -0.587781 -0.80902 -0
    outer loop
      vertex -0.125336 -2.10008 7
      vertex -0.884689 -1.54839 0
      vertex -0.125336 -2.10008 0
    endloop
  endfacet
  facet normal 0.0512727 0.323711 -0.944766
    outer loop
      vertex 33.3964 32.8162 0
      vertex 32 29.9817 -1.04698
      vertex 32.4693 32.9631 0
    endloop
  endfacet
  facet normal 0.0257879 0.327616 -0.944459
    outer loop
      vertex 32.4693 32.9631 0
      vertex 32 29.9817 -1.04698
      vertex 32 33 0
    endloop
  endfacet
  facet normal 0.148224 0.290907 -0.9452
    outer loop
      vertex 35.1253 32.1001 0
      vertex 32.927 29.835 -1.04186
      vertex 34.289 32.5262 0
    endloop
  endfacet
  facet normal 0.191651 0.263788 -0.945349
    outer loop
      vertex 35.8847 31.5484 0
      vertex 33.7634 29.4091 -1.02699
      vertex 35.1253 32.1001 0
    endloop
  endfacet
  facet normal -0.0784711 0.996916 0
    outer loop
      vertex 3 33 0
      vertex 2.53069 32.9631 7
      vertex 3 33 7
    endloop
  endfacet
  facet normal -0.0784711 0.996916 0
    outer loop
      vertex 2.53069 32.9631 7
      vertex 3 33 0
      vertex 2.53069 32.9631 0
    endloop
  endfacet
  facet normal -0.0257879 0.327616 -0.944459
    outer loop
      vertex 3 29.9817 -1.04698
      vertex 2.53069 32.9631 0
      vertex 3 33 0
    endloop
  endfacet
  facet normal -0.304934 0.0482936 -0.951148
    outer loop
      vertex 0.14682 27.91 -0.97464
      vertex -2.96307 27.4693 0
      vertex -2.81625 28.3963 0
    endloop
  endfacet
  facet normal -0.302038 0.0237671 -0.952999
    outer loop
      vertex 0.14682 27.91 -0.97464
      vertex -3 27 0
      vertex -2.96307 27.4693 0
    endloop
  endfacet
  facet normal -0.00506059 -0.0319534 -0.999477
    outer loop
      vertex 1.60367 -2.81625 0
      vertex 0.572937 28.7458 -1.00383
      vertex 2.53072 -2.96307 0
    endloop
  endfacet
  facet normal -0.296693 0.0964008 -0.950095
    outer loop
      vertex 0.14682 27.91 -0.97464
      vertex -2.81625 28.3963 0
      vertex -2.5262 29.289 0
    endloop
  endfacet
  facet normal -0.951057 0.309015 0
    outer loop
      vertex -2.81625 28.3963 0
      vertex -2.5262 29.289 7
      vertex -2.5262 29.289 0
    endloop
  endfacet
  facet normal -0.951057 0.309015 0
    outer loop
      vertex -2.5262 29.289 7
      vertex -2.81625 28.3963 0
      vertex -2.81625 28.3963 7
    endloop
  endfacet
  facet normal 0.951057 0.309015 0
    outer loop
      vertex 37.8162 28.3964 7
      vertex 37.5262 29.289 0
      vertex 37.5262 29.289 7
    endloop
  endfacet
  facet normal 0.951057 0.309015 0
    outer loop
      vertex 37.5262 29.289 0
      vertex 37.8162 28.3964 7
      vertex 37.8162 28.3964 0
    endloop
  endfacet
  facet normal 0.987687 0.15644 0
    outer loop
      vertex 37.9631 27.4693 7
      vertex 37.8162 28.3964 0
      vertex 37.8162 28.3964 7
    endloop
  endfacet
  facet normal 0.987687 0.15644 0
    outer loop
      vertex 37.8162 28.3964 0
      vertex 37.9631 27.4693 7
      vertex 37.9631 27.4693 0
    endloop
  endfacet
  facet normal 0.136517 -0.0216226 -0.990402
    outer loop
      vertex 37.8162 1.60362 0
      vertex 35 26.9836 -0.942286
      vertex 37.9631 2.53069 0
    endloop
  endfacet
  facet normal 0.00160019 -0.0317593 -0.999494
    outer loop
      vertex 33.7634 29.4091 -1.02699
      vertex 32 -3 0
      vertex 32.927 29.835 -1.04186
    endloop
  endfacet
  facet normal 0.000503166 -0.0317284 -0.999496
    outer loop
      vertex 32.927 29.835 -1.04186
      vertex 32 -3 0
      vertex 32 29.9817 -1.04698
    endloop
  endfacet
  facet normal -0.240033 0.207059 -0.948425
    outer loop
      vertex 0.572937 28.7458 -1.00383
      vertex -1.54839 30.8847 0
      vertex 1.23663 29.4091 -1.02699
    endloop
  endfacet
  facet normal -0.00307038 -0.0318309 -0.999489
    outer loop
      vertex 2.53072 -2.96307 0
      vertex 0.572937 28.7458 -1.00383
      vertex 1.23663 29.4091 -1.02699
    endloop
  endfacet
  facet normal -0.891007 -0.45399 0
    outer loop
      vertex 34.8532 27.927 5
      vertex 34.427 28.7634 7
      vertex 34.427 28.7634 5
    endloop
  endfacet
  facet normal -0.891007 -0.45399 0
    outer loop
      vertex 34.427 28.7634 7
      vertex 34.8532 27.927 5
      vertex 34.8532 27.927 7
    endloop
  endfacet
  facet normal -0.707107 -0.707107 0
    outer loop
      vertex 34.427 28.7634 5
      vertex 33.7634 29.427 7
      vertex 33.7634 29.427 5
    endloop
  endfacet
  facet normal -0.707107 -0.707107 0
    outer loop
      vertex 33.7634 29.427 7
      vertex 34.427 28.7634 5
      vertex 34.427 28.7634 7
    endloop
  endfacet
  facet normal -0.45399 -0.891007 0
    outer loop
      vertex 32.927 29.8532 5
      vertex 33.7634 29.427 7
      vertex 32.927 29.8532 7
    endloop
  endfacet
  facet normal -0.45399 -0.891007 -0
    outer loop
      vertex 33.7634 29.427 7
      vertex 32.927 29.8532 5
      vertex 33.7634 29.427 5
    endloop
  endfacet
  facet normal 0 0 1
    outer loop
      vertex 32 30 5
      vertex 35 27 5
      vertex 34.8532 27.927 5
    endloop
  endfacet
  facet normal 0 0 1
    outer loop
      vertex 35 27 5
      vertex 32 30 5
      vertex 35 3 5
    endloop
  endfacet
  facet normal 0 0 1
    outer loop
      vertex 32 30 5
      vertex 34.8532 27.927 5
      vertex 34.427 28.7634 5
    endloop
  endfacet
  facet normal 0 0 1
    outer loop
      vertex 32 0 5
      vertex 35 3 5
      vertex 32 30 5
    endloop
  endfacet
  facet normal 0 0 1
    outer loop
      vertex 32 30 5
      vertex 34.427 28.7634 5
      vertex 33.7634 29.427 5
    endloop
  endfacet
  facet normal 0 0 1
    outer loop
      vertex 35 3 5
      vertex 32 0 5
      vertex 34.8532 2.07294 5
    endloop
  endfacet
  facet normal 0 0 1
    outer loop
      vertex 32 30 5
      vertex 33.7634 29.427 5
      vertex 32.927 29.8532 5
    endloop
  endfacet
  facet normal 0 0 1
    outer loop
      vertex 34.8532 2.07294 5
      vertex 32 0 5
      vertex 34.427 1.23663 5
    endloop
  endfacet
  facet normal 0 0 1
    outer loop
      vertex 34.427 1.23663 5
      vertex 32 0 5
      vertex 33.7634 0.572937 5
    endloop
  endfacet
  facet normal 0 0 1
    outer loop
      vertex 33.7634 0.572937 5
      vertex 32 0 5
      vertex 32.927 0.14682 5
    endloop
  endfacet
  facet normal -0 0 1
    outer loop
      vertex 3 30 5
      vertex 32 0 5
      vertex 32 30 5
    endloop
  endfacet
  facet normal 0 0 1
    outer loop
      vertex 3 30 5
      vertex 2.99998 0 5
      vertex 32 0 5
    endloop
  endfacet
  facet normal 0 0 1
    outer loop
      vertex 0 27 5
      vertex 3 30 5
      vertex 2.07294 29.8532 5
    endloop
  endfacet
  facet normal 0 0 1
    outer loop
      vertex 3 30 5
      vertex 0 27 5
      vertex 2.99998 0 5
    endloop
  endfacet
  facet normal 0 0 1
    outer loop
      vertex 0 27 5
      vertex 2.07294 29.8532 5
      vertex 1.23663 29.427 5
    endloop
  endfacet
  facet normal -0 0 1
    outer loop
      vertex 0 3 5
      vertex 2.99998 0 5
      vertex 0 27 5
    endloop
  endfacet
  facet normal 0 0 1
    outer loop
      vertex 0 27 5
      vertex 1.23663 29.427 5
      vertex 0.572937 28.7634 5
    endloop
  endfacet
  facet normal 0 0 1
    outer loop
      vertex 2.99998 0 5
      vertex 0 3 5
      vertex 2.07294 0.14682 5
    endloop
  endfacet
  facet normal 0 0 1
    outer loop
      vertex 0 27 5
      vertex 0.572937 28.7634 5
      vertex 0.14682 27.927 5
    endloop
  endfacet
  facet normal 0 0 1
    outer loop
      vertex 2.07294 0.14682 5
      vertex 0 3 5
      vertex 1.23663 0.572937 5
    endloop
  endfacet
  facet normal 0 0 1
    outer loop
      vertex 1.23663 0.572937 5
      vertex 0 3 5
      vertex 0.572937 1.23663 5
    endloop
  endfacet
  facet normal 0 0 1
    outer loop
      vertex 0.572937 1.23663 5
      vertex 0 3 5
      vertex 0.14682 2.07294 5
    endloop
  endfacet
  facet normal 0 1 -0
    outer loop
      vertex 32 0 5
      vertex 2.99998 0 7
      vertex 32 0 7
    endloop
  endfacet
  facet normal 0 1 0
    outer loop
      vertex 2.99998 0 7
      vertex 32 0 5
      vertex 2.99998 0 5
    endloop
  endfacet
  facet normal 0 -1 0
    outer loop
      vertex 3 30 5
      vertex 32 30 7
      vertex 3 30 7
    endloop
  endfacet
  facet normal 0 -1 -0
    outer loop
      vertex 32 30 7
      vertex 3 30 5
      vertex 32 30 5
    endloop
  endfacet
  facet normal 0.45399 0.891007 -0
    outer loop
      vertex 2.07294 0.14682 5
      vertex 1.23663 0.572937 7
      vertex 2.07294 0.14682 7
    endloop
  endfacet
  facet normal 0.45399 0.891007 0
    outer loop
      vertex 1.23663 0.572937 7
      vertex 2.07294 0.14682 5
      vertex 1.23663 0.572937 5
    endloop
  endfacet
  facet normal 0.156424 0.98769 -0
    outer loop
      vertex 2.99998 0 5
      vertex 2.07294 0.14682 7
      vertex 2.99998 0 7
    endloop
  endfacet
  facet normal 0.156424 0.98769 0
    outer loop
      vertex 2.07294 0.14682 7
      vertex 2.99998 0 5
      vertex 2.07294 0.14682 5
    endloop
  endfacet
  facet normal -0.987687 -0.15644 0
    outer loop
      vertex 35 27 5
      vertex 34.8532 27.927 7
      vertex 34.8532 27.927 5
    endloop
  endfacet
  facet normal -0.987687 -0.15644 0
    outer loop
      vertex 34.8532 27.927 7
      vertex 35 27 5
      vertex 35 27 7
    endloop
  endfacet
  facet normal -1 0 0
    outer loop
      vertex 35 3 5
      vertex 35 27 7
      vertex 35 27 5
    endloop
  endfacet
  facet normal -1 -0 0
    outer loop
      vertex 35 27 7
      vertex 35 3 5
      vertex 35 3 7
    endloop
  endfacet
  facet normal -0.891007 0.45399 0
    outer loop
      vertex 34.427 1.23663 5
      vertex 34.8532 2.07294 7
      vertex 34.8532 2.07294 5
    endloop
  endfacet
  facet normal -0.891007 0.45399 0
    outer loop
      vertex 34.8532 2.07294 7
      vertex 34.427 1.23663 5
      vertex 34.427 1.23663 7
    endloop
  endfacet
  facet normal -0.15644 -0.987687 0
    outer loop
      vertex 32 30 5
      vertex 32.927 29.8532 7
      vertex 32 30 7
    endloop
  endfacet
  facet normal -0.15644 -0.987687 -0
    outer loop
      vertex 32.927 29.8532 7
      vertex 32 30 5
      vertex 32.927 29.8532 5
    endloop
  endfacet
  facet normal 0.707107 -0.707107 0
    outer loop
      vertex 0.572937 28.7634 7
      vertex 1.23663 29.427 5
      vertex 1.23663 29.427 7
    endloop
  endfacet
  facet normal 0.707107 -0.707107 0
    outer loop
      vertex 1.23663 29.427 5
      vertex 0.572937 28.7634 7
      vertex 0.572937 28.7634 5
    endloop
  endfacet
  facet normal 0.98769 -0.156424 0
    outer loop
      vertex 0 27 7
      vertex 0.14682 27.927 5
      vertex 0.14682 27.927 7
    endloop
  endfacet
  facet normal 0.98769 -0.156424 0
    outer loop
      vertex 0.14682 27.927 5
      vertex 0 27 7
      vertex 0 27 5
    endloop
  endfacet
  facet normal 1 -0 0
    outer loop
      vertex 0 3 7
      vertex 0 27 5
      vertex 0 27 7
    endloop
  endfacet
  facet normal 1 0 0
    outer loop
      vertex 0 27 5
      vertex 0 3 7
      vertex 0 3 5
    endloop
  endfacet
  facet normal -0.45399 0.891007 0
    outer loop
      vertex 33.7634 0.572937 5
      vertex 32.927 0.14682 7
      vertex 33.7634 0.572937 7
    endloop
  endfacet
  facet normal -0.45399 0.891007 0
    outer loop
      vertex 32.927 0.14682 7
      vertex 33.7634 0.572937 5
      vertex 32.927 0.14682 5
    endloop
  endfacet
  facet normal -0.156422 0.98769 0
    outer loop
      vertex 32.927 0.14682 5
      vertex 32 0 7
      vertex 32.927 0.14682 7
    endloop
  endfacet
  facet normal -0.156422 0.98769 0
    outer loop
      vertex 32 0 7
      vertex 32.927 0.14682 5
      vertex 32 0 5
    endloop
  endfacet
  facet normal -0.707107 0.707107 0
    outer loop
      vertex 33.7634 0.572937 5
      vertex 34.427 1.23663 7
      vertex 34.427 1.23663 5
    endloop
  endfacet
  facet normal -0.707107 0.707107 0
    outer loop
      vertex 34.427 1.23663 7
      vertex 33.7634 0.572937 5
      vertex 33.7634 0.572937 7
    endloop
  endfacet
  facet normal -0.987688 0.156438 0
    outer loop
      vertex 34.8532 2.07294 5
      vertex 35 3 7
      vertex 35 3 5
    endloop
  endfacet
  facet normal -0.987688 0.156438 0
    outer loop
      vertex 35 3 7
      vertex 34.8532 2.07294 5
      vertex 34.8532 2.07294 7
    endloop
  endfacet
  facet normal 0.707107 0.707107 0
    outer loop
      vertex 1.23663 0.572937 7
      vertex 0.572937 1.23663 5
      vertex 0.572937 1.23663 7
    endloop
  endfacet
  facet normal 0.707107 0.707107 0
    outer loop
      vertex 0.572937 1.23663 5
      vertex 1.23663 0.572937 7
      vertex 1.23663 0.572937 5
    endloop
  endfacet
  facet normal 0.891007 0.45399 0
    outer loop
      vertex 0.572937 1.23663 7
      vertex 0.14682 2.07294 5
      vertex 0.14682 2.07294 7
    endloop
  endfacet
  facet normal 0.891007 0.45399 0
    outer loop
      vertex 0.14682 2.07294 5
      vertex 0.572937 1.23663 7
      vertex 0.572937 1.23663 5
    endloop
  endfacet
  facet normal 0.98769 0.156422 0
    outer loop
      vertex 0.14682 2.07294 7
      vertex 0 3 5
      vertex 0 3 7
    endloop
  endfacet
  facet normal 0.98769 0.156422 0
    outer loop
      vertex 0 3 5
      vertex 0.14682 2.07294 7
      vertex 0.14682 2.07294 5
    endloop
  endfacet
  facet normal 0.45399 -0.891007 0
    outer loop
      vertex 1.23663 29.427 5
      vertex 2.07294 29.8532 7
      vertex 1.23663 29.427 7
    endloop
  endfacet
  facet normal 0.45399 -0.891007 0
    outer loop
      vertex 2.07294 29.8532 7
      vertex 1.23663 29.427 5
      vertex 2.07294 29.8532 5
    endloop
  endfacet
  facet normal 0.156438 -0.987688 0
    outer loop
      vertex 2.07294 29.8532 5
      vertex 3 30 7
      vertex 2.07294 29.8532 7
    endloop
  endfacet
  facet normal 0.156438 -0.987688 0
    outer loop
      vertex 3 30 7
      vertex 2.07294 29.8532 5
      vertex 3 30 5
    endloop
  endfacet
  facet normal 0.891007 -0.45399 0
    outer loop
      vertex 0.14682 27.927 7
      vertex 0.572937 28.7634 5
      vertex 0.572937 28.7634 7
    endloop
  endfacet
  facet normal 0.891007 -0.45399 0
    outer loop
      vertex 0.572937 28.7634 5
      vertex 0.14682 27.927 7
      vertex 0.14682 27.927 5
    endloop
  endfacet
endsolid OpenSCAD_Model
