solid OpenSCAD_Model
  facet normal -1 0 0
    outer loop
      vertex 0 196 0
      vertex 0 5 53.9
      vertex 0 196 53.9
    endloop
  endfacet
  facet normal -1 0 0
    outer loop
      vertex 0 0 0
      vertex 0 5 53.9
      vertex 0 196 0
    endloop
  endfacet
  facet normal -1 0 0
    outer loop
      vertex 0 0 69.2
      vertex 0 5 53.9
      vertex 0 0 0
    endloop
  endfacet
  facet normal -1 0 0
    outer loop
      vertex 0 5 53.9
      vertex 0 0 69.2
      vertex 0 5 69.2
    endloop
  endfacet
  facet normal -0 0 1
    outer loop
      vertex 0 5 69.2
      vertex 120.7 0 69.2
      vertex 120.7 5 69.2
    endloop
  endfacet
  facet normal 0 0 1
    outer loop
      vertex 120.7 0 69.2
      vertex 0 5 69.2
      vertex 0 0 69.2
    endloop
  endfacet
  facet normal 1 0 0
    outer loop
      vertex 120.7 5 69.2
      vertex 120.7 0 69.2
      vertex 120.7 5 53.9
    endloop
  endfacet
  facet normal 1 -0 0
    outer loop
      vertex 120.7 5 53.9
      vertex 120.7 196 0
      vertex 120.7 196 53.9
    endloop
  endfacet
  facet normal 1 0 0
    outer loop
      vertex 120.7 5 53.9
      vertex 120.7 0 0
      vertex 120.7 196 0
    endloop
  endfacet
  facet normal 1 0 0
    outer loop
      vertex 120.7 0 0
      vertex 120.7 5 53.9
      vertex 120.7 0 69.2
    endloop
  endfacet
  facet normal 0 1 -0
    outer loop
      vertex 120.7 5 53.9
      vertex 0 5 69.2
      vertex 120.7 5 69.2
    endloop
  endfacet
  facet normal 0 1 0
    outer loop
      vertex 0 5 69.2
      vertex 120.7 5 53.9
      vertex 0 5 53.9
    endloop
  endfacet
  facet normal 0 0 -1
    outer loop
      vertex 120.7 0 0
      vertex 90.525 7 0
      vertex 120.7 196 0
    endloop
  endfacet
  facet normal 0 0 -1
    outer loop
      vertex 120.7 0 0
      vertex 30.175 7 0
      vertex 90.525 7 0
    endloop
  endfacet
  facet normal 0 0 -1
    outer loop
      vertex 0 196 0
      vertex 30.175 7 0
      vertex 0 0 0
    endloop
  endfacet
  facet normal 0 0 -1
    outer loop
      vertex 0 0 0
      vertex 30.175 7 0
      vertex 120.7 0 0
    endloop
  endfacet
  facet normal 0 0 -1
    outer loop
      vertex 90.525 194 0
      vertex 120.7 196 0
      vertex 90.525 7 0
    endloop
  endfacet
  facet normal 0 0 -1
    outer loop
      vertex 30.175 194 0
      vertex 120.7 196 0
      vertex 90.525 194 0
    endloop
  endfacet
  facet normal 0 0 -1
    outer loop
      vertex 30.175 194 0
      vertex 0 196 0
      vertex 120.7 196 0
    endloop
  endfacet
  facet normal 0 0 -1
    outer loop
      vertex 30.175 7 0
      vertex 0 196 0
      vertex 30.175 194 0
    endloop
  endfacet
  facet normal 0 -1 0
    outer loop
      vertex 0 0 0
      vertex 120.7 0 69.2
      vertex 0 0 69.2
    endloop
  endfacet
  facet normal 0 -1 -0
    outer loop
      vertex 120.7 0 69.2
      vertex 0 0 0
      vertex 120.7 0 0
    endloop
  endfacet
  facet normal 0 0 1
    outer loop
      vertex 120.7 196 53.9
      vertex 114.7 194 53.9
      vertex 120.7 5 53.9
    endloop
  endfacet
  facet normal 0 0 1
    outer loop
      vertex 120.7 196 53.9
      vertex 6 194 53.9
      vertex 114.7 194 53.9
    endloop
  endfacet
  facet normal 0 0 1
    outer loop
      vertex 6 194 53.9
      vertex 0 196 53.9
      vertex 6 7 53.9
    endloop
  endfacet
  facet normal -0 0 1
    outer loop
      vertex 0 196 53.9
      vertex 6 194 53.9
      vertex 120.7 196 53.9
    endloop
  endfacet
  facet normal -0 0 1
    outer loop
      vertex 114.7 7 53.9
      vertex 120.7 5 53.9
      vertex 114.7 194 53.9
    endloop
  endfacet
  facet normal -0 0 1
    outer loop
      vertex 6 7 53.9
      vertex 120.7 5 53.9
      vertex 114.7 7 53.9
    endloop
  endfacet
  facet normal 0 0 1
    outer loop
      vertex 6 7 53.9
      vertex 0 5 53.9
      vertex 120.7 5 53.9
    endloop
  endfacet
  facet normal 0 0 1
    outer loop
      vertex 0 5 53.9
      vertex 6 7 53.9
      vertex 0 196 53.9
    endloop
  endfacet
  facet normal 0 1 -0
    outer loop
      vertex 120.7 196 0
      vertex 0 196 53.9
      vertex 120.7 196 53.9
    endloop
  endfacet
  facet normal 0 1 0
    outer loop
      vertex 0 196 53.9
      vertex 120.7 196 0
      vertex 0 196 0
    endloop
  endfacet
  facet normal 1 0 0
    outer loop
      vertex 6 194 53.9
      vertex 6 177.1 47.9
      vertex 6 194 2
    endloop
  endfacet
  facet normal 1 0 0
    outer loop
      vertex 6 194 53.9
      vertex 6 175.1 47.9
      vertex 6 177.1 47.9
    endloop
  endfacet
  facet normal 1 0 0
    outer loop
      vertex 6 175.1 47.9
      vertex 6 158.2 47.9
      vertex 6 175.1 2
    endloop
  endfacet
  facet normal 1 0 0
    outer loop
      vertex 6 194 53.9
      vertex 6 158.2 47.9
      vertex 6 175.1 47.9
    endloop
  endfacet
  facet normal 1 0 0
    outer loop
      vertex 6 194 53.9
      vertex 6 156.2 47.9
      vertex 6 158.2 47.9
    endloop
  endfacet
  facet normal 1 0 0
    outer loop
      vertex 6 156.2 47.9
      vertex 6 139.3 47.9
      vertex 6 156.2 2
    endloop
  endfacet
  facet normal 1 0 0
    outer loop
      vertex 6 194 53.9
      vertex 6 139.3 47.9
      vertex 6 156.2 47.9
    endloop
  endfacet
  facet normal 1 0 0
    outer loop
      vertex 6 194 53.9
      vertex 6 137.3 47.9
      vertex 6 139.3 47.9
    endloop
  endfacet
  facet normal 1 0 0
    outer loop
      vertex 6 137.3 47.9
      vertex 6 120.4 47.9
      vertex 6 137.3 2
    endloop
  endfacet
  facet normal 1 0 0
    outer loop
      vertex 6 194 53.9
      vertex 6 120.4 47.9
      vertex 6 137.3 47.9
    endloop
  endfacet
  facet normal 1 0 0
    outer loop
      vertex 6 194 53.9
      vertex 6 118.4 47.9
      vertex 6 120.4 47.9
    endloop
  endfacet
  facet normal 1 0 0
    outer loop
      vertex 6 118.4 47.9
      vertex 6 101.5 47.9
      vertex 6 118.4 2
    endloop
  endfacet
  facet normal 1 0 0
    outer loop
      vertex 6 194 53.9
      vertex 6 101.5 47.9
      vertex 6 118.4 47.9
    endloop
  endfacet
  facet normal 1 0 0
    outer loop
      vertex 6 194 53.9
      vertex 6 99.5 47.9
      vertex 6 101.5 47.9
    endloop
  endfacet
  facet normal 1 0 0
    outer loop
      vertex 6 99.5 47.9
      vertex 6 82.6 47.9
      vertex 6 99.5 2
    endloop
  endfacet
  facet normal 1 -0 0
    outer loop
      vertex 6 7 53.9
      vertex 6 99.5 47.9
      vertex 6 194 53.9
    endloop
  endfacet
  facet normal 1 0 0
    outer loop
      vertex 6 99.5 47.9
      vertex 6 7 53.9
      vertex 6 82.6 47.9
    endloop
  endfacet
  facet normal 1 0 0
    outer loop
      vertex 6 80.6 47.9
      vertex 6 63.7 47.9
      vertex 6 80.6 2
    endloop
  endfacet
  facet normal 1 0 0
    outer loop
      vertex 6 82.6 47.9
      vertex 6 7 53.9
      vertex 6 80.6 47.9
    endloop
  endfacet
  facet normal 1 0 0
    outer loop
      vertex 6 80.6 47.9
      vertex 6 7 53.9
      vertex 6 63.7 47.9
    endloop
  endfacet
  facet normal 1 0 0
    outer loop
      vertex 6 61.7 47.9
      vertex 6 44.8 47.9
      vertex 6 61.7 2
    endloop
  endfacet
  facet normal 1 0 0
    outer loop
      vertex 6 63.7 47.9
      vertex 6 7 53.9
      vertex 6 61.7 47.9
    endloop
  endfacet
  facet normal 1 0 0
    outer loop
      vertex 6 61.7 47.9
      vertex 6 7 53.9
      vertex 6 44.8 47.9
    endloop
  endfacet
  facet normal 1 0 0
    outer loop
      vertex 6 42.8 47.9
      vertex 6 25.9 47.9
      vertex 6 42.8 2
    endloop
  endfacet
  facet normal 1 0 0
    outer loop
      vertex 6 44.8 47.9
      vertex 6 7 53.9
      vertex 6 42.8 47.9
    endloop
  endfacet
  facet normal 1 0 0
    outer loop
      vertex 6 42.8 47.9
      vertex 6 7 53.9
      vertex 6 25.9 47.9
    endloop
  endfacet
  facet normal 1 0 0
    outer loop
      vertex 6 25.9 47.9
      vertex 6 7 53.9
      vertex 6 23.9 47.9
    endloop
  endfacet
  facet normal 1 0 0
    outer loop
      vertex 6 7 2
      vertex 6 23.9 47.9
      vertex 6 7 53.9
    endloop
  endfacet
  facet normal 1 0 0
    outer loop
      vertex 6 23.9 47.9
      vertex 6 7 2
      vertex 6 23.9 2
    endloop
  endfacet
  facet normal 1 0 0
    outer loop
      vertex 6 194 2
      vertex 6 177.1 47.9
      vertex 6 177.1 2
    endloop
  endfacet
  facet normal 1 0 0
    outer loop
      vertex 6 175.1 2
      vertex 6 158.2 47.9
      vertex 6 158.2 2
    endloop
  endfacet
  facet normal 1 0 0
    outer loop
      vertex 6 156.2 2
      vertex 6 139.3 47.9
      vertex 6 139.3 2
    endloop
  endfacet
  facet normal 1 0 0
    outer loop
      vertex 6 137.3 2
      vertex 6 120.4 47.9
      vertex 6 120.4 2
    endloop
  endfacet
  facet normal 1 0 0
    outer loop
      vertex 6 118.4 2
      vertex 6 101.5 47.9
      vertex 6 101.5 2
    endloop
  endfacet
  facet normal 1 0 0
    outer loop
      vertex 6 99.5 2
      vertex 6 82.6 47.9
      vertex 6 82.6 2
    endloop
  endfacet
  facet normal 1 0 0
    outer loop
      vertex 6 80.6 2
      vertex 6 63.7 47.9
      vertex 6 63.7 2
    endloop
  endfacet
  facet normal 1 0 0
    outer loop
      vertex 6 61.7 2
      vertex 6 44.8 47.9
      vertex 6 44.8 2
    endloop
  endfacet
  facet normal 1 0 0
    outer loop
      vertex 6 42.8 2
      vertex 6 25.9 47.9
      vertex 6 25.9 2
    endloop
  endfacet
  facet normal -1 0 0
    outer loop
      vertex 114.7 23.9 2
      vertex 114.7 7 2
      vertex 114.7 23.9 47.9
    endloop
  endfacet
  facet normal -1 0 0
    outer loop
      vertex 114.7 42.8 2
      vertex 114.7 25.9 2
      vertex 114.7 42.8 47.9
    endloop
  endfacet
  facet normal -1 0 0
    outer loop
      vertex 114.7 61.7 2
      vertex 114.7 44.8 2
      vertex 114.7 61.7 47.9
    endloop
  endfacet
  facet normal -1 0 0
    outer loop
      vertex 114.7 80.6 2
      vertex 114.7 63.7 2
      vertex 114.7 80.6 47.9
    endloop
  endfacet
  facet normal -1 0 0
    outer loop
      vertex 114.7 99.5 2
      vertex 114.7 82.6 2
      vertex 114.7 99.5 47.9
    endloop
  endfacet
  facet normal -1 0 0
    outer loop
      vertex 114.7 118.4 2
      vertex 114.7 101.5 2
      vertex 114.7 118.4 47.9
    endloop
  endfacet
  facet normal -1 0 0
    outer loop
      vertex 114.7 137.3 2
      vertex 114.7 120.4 2
      vertex 114.7 137.3 47.9
    endloop
  endfacet
  facet normal -1 0 0
    outer loop
      vertex 114.7 156.2 2
      vertex 114.7 139.3 2
      vertex 114.7 156.2 47.9
    endloop
  endfacet
  facet normal -1 0 0
    outer loop
      vertex 114.7 175.1 2
      vertex 114.7 158.2 2
      vertex 114.7 175.1 47.9
    endloop
  endfacet
  facet normal -1 0 0
    outer loop
      vertex 114.7 177.1 47.9
      vertex 114.7 194 2
      vertex 114.7 177.1 2
    endloop
  endfacet
  facet normal -1 0 0
    outer loop
      vertex 114.7 194 2
      vertex 114.7 177.1 47.9
      vertex 114.7 194 53.9
    endloop
  endfacet
  facet normal -1 0 0
    outer loop
      vertex 114.7 175.1 47.9
      vertex 114.7 194 53.9
      vertex 114.7 177.1 47.9
    endloop
  endfacet
  facet normal -1 0 0
    outer loop
      vertex 114.7 158.2 47.9
      vertex 114.7 175.1 47.9
      vertex 114.7 158.2 2
    endloop
  endfacet
  facet normal -1 0 0
    outer loop
      vertex 114.7 158.2 47.9
      vertex 114.7 194 53.9
      vertex 114.7 175.1 47.9
    endloop
  endfacet
  facet normal -1 0 0
    outer loop
      vertex 114.7 156.2 47.9
      vertex 114.7 194 53.9
      vertex 114.7 158.2 47.9
    endloop
  endfacet
  facet normal -1 0 0
    outer loop
      vertex 114.7 139.3 47.9
      vertex 114.7 156.2 47.9
      vertex 114.7 139.3 2
    endloop
  endfacet
  facet normal -1 0 0
    outer loop
      vertex 114.7 139.3 47.9
      vertex 114.7 194 53.9
      vertex 114.7 156.2 47.9
    endloop
  endfacet
  facet normal -1 0 0
    outer loop
      vertex 114.7 137.3 47.9
      vertex 114.7 194 53.9
      vertex 114.7 139.3 47.9
    endloop
  endfacet
  facet normal -1 0 0
    outer loop
      vertex 114.7 120.4 47.9
      vertex 114.7 137.3 47.9
      vertex 114.7 120.4 2
    endloop
  endfacet
  facet normal -1 0 0
    outer loop
      vertex 114.7 120.4 47.9
      vertex 114.7 194 53.9
      vertex 114.7 137.3 47.9
    endloop
  endfacet
  facet normal -1 0 0
    outer loop
      vertex 114.7 118.4 47.9
      vertex 114.7 194 53.9
      vertex 114.7 120.4 47.9
    endloop
  endfacet
  facet normal -1 0 0
    outer loop
      vertex 114.7 101.5 47.9
      vertex 114.7 118.4 47.9
      vertex 114.7 101.5 2
    endloop
  endfacet
  facet normal -1 0 0
    outer loop
      vertex 114.7 101.5 47.9
      vertex 114.7 194 53.9
      vertex 114.7 118.4 47.9
    endloop
  endfacet
  facet normal -1 0 0
    outer loop
      vertex 114.7 99.5 47.9
      vertex 114.7 194 53.9
      vertex 114.7 101.5 47.9
    endloop
  endfacet
  facet normal -1 0 0
    outer loop
      vertex 114.7 82.6 47.9
      vertex 114.7 99.5 47.9
      vertex 114.7 82.6 2
    endloop
  endfacet
  facet normal -1 0 0
    outer loop
      vertex 114.7 7 53.9
      vertex 114.7 99.5 47.9
      vertex 114.7 82.6 47.9
    endloop
  endfacet
  facet normal -1 0 0
    outer loop
      vertex 114.7 7 53.9
      vertex 114.7 82.6 47.9
      vertex 114.7 80.6 47.9
    endloop
  endfacet
  facet normal -1 0 0
    outer loop
      vertex 114.7 63.7 47.9
      vertex 114.7 80.6 47.9
      vertex 114.7 63.7 2
    endloop
  endfacet
  facet normal -1 0 0
    outer loop
      vertex 114.7 7 53.9
      vertex 114.7 80.6 47.9
      vertex 114.7 63.7 47.9
    endloop
  endfacet
  facet normal -1 0 0
    outer loop
      vertex 114.7 7 53.9
      vertex 114.7 63.7 47.9
      vertex 114.7 61.7 47.9
    endloop
  endfacet
  facet normal -1 0 0
    outer loop
      vertex 114.7 44.8 47.9
      vertex 114.7 61.7 47.9
      vertex 114.7 44.8 2
    endloop
  endfacet
  facet normal -1 0 0
    outer loop
      vertex 114.7 7 53.9
      vertex 114.7 61.7 47.9
      vertex 114.7 44.8 47.9
    endloop
  endfacet
  facet normal -1 0 0
    outer loop
      vertex 114.7 7 53.9
      vertex 114.7 44.8 47.9
      vertex 114.7 42.8 47.9
    endloop
  endfacet
  facet normal -1 0 0
    outer loop
      vertex 114.7 25.9 47.9
      vertex 114.7 42.8 47.9
      vertex 114.7 25.9 2
    endloop
  endfacet
  facet normal -1 0 0
    outer loop
      vertex 114.7 7 53.9
      vertex 114.7 42.8 47.9
      vertex 114.7 25.9 47.9
    endloop
  endfacet
  facet normal -1 0 0
    outer loop
      vertex 114.7 7 53.9
      vertex 114.7 25.9 47.9
      vertex 114.7 23.9 47.9
    endloop
  endfacet
  facet normal -1 0 0
    outer loop
      vertex 114.7 99.5 47.9
      vertex 114.7 7 53.9
      vertex 114.7 194 53.9
    endloop
  endfacet
  facet normal -1 0 0
    outer loop
      vertex 114.7 7 53.9
      vertex 114.7 23.9 47.9
      vertex 114.7 7 2
    endloop
  endfacet
  facet normal 0 -1 0
    outer loop
      vertex 90.525 23.9 2
      vertex 114.7 23.9 47.9
      vertex 90.525 23.9 47.9
    endloop
  endfacet
  facet normal 0 -1 -0
    outer loop
      vertex 114.7 23.9 47.9
      vertex 90.525 23.9 2
      vertex 114.7 23.9 2
    endloop
  endfacet
  facet normal 0 -1 0
    outer loop
      vertex 6 23.9 2
      vertex 30.175 23.9 47.9
      vertex 6 23.9 47.9
    endloop
  endfacet
  facet normal 0 -1 -0
    outer loop
      vertex 30.175 23.9 47.9
      vertex 6 23.9 2
      vertex 30.175 23.9 2
    endloop
  endfacet
  facet normal -0 0 1
    outer loop
      vertex 6 23.9 2
      vertex 30.175 7 2
      vertex 30.175 23.9 2
    endloop
  endfacet
  facet normal 0 0 1
    outer loop
      vertex 30.175 7 2
      vertex 6 23.9 2
      vertex 6 7 2
    endloop
  endfacet
  facet normal -0 0 1
    outer loop
      vertex 90.525 23.9 2
      vertex 114.7 7 2
      vertex 114.7 23.9 2
    endloop
  endfacet
  facet normal 0 0 1
    outer loop
      vertex 114.7 7 2
      vertex 90.525 23.9 2
      vertex 90.525 7 2
    endloop
  endfacet
  facet normal 0 1 -0
    outer loop
      vertex 90.525 7 0
      vertex 30.175 7 2
      vertex 90.525 7 2
    endloop
  endfacet
  facet normal 0 1 0
    outer loop
      vertex 30.175 7 2
      vertex 90.525 7 0
      vertex 30.175 7 0
    endloop
  endfacet
  facet normal 0 1 0
    outer loop
      vertex 90.525 7 2
      vertex 114.7 7 53.9
      vertex 114.7 7 2
    endloop
  endfacet
  facet normal 0 1 0
    outer loop
      vertex 114.7 7 53.9
      vertex 90.525 7 2
      vertex 6 7 53.9
    endloop
  endfacet
  facet normal 0 1 -0
    outer loop
      vertex 30.175 7 2
      vertex 6 7 53.9
      vertex 90.525 7 2
    endloop
  endfacet
  facet normal 0 1 0
    outer loop
      vertex 6 7 53.9
      vertex 30.175 7 2
      vertex 6 7 2
    endloop
  endfacet
  facet normal -0 0 1
    outer loop
      vertex 6 42.8 2
      vertex 30.175 25.9 2
      vertex 30.175 42.8 2
    endloop
  endfacet
  facet normal 0 0 1
    outer loop
      vertex 30.175 25.9 2
      vertex 6 42.8 2
      vertex 6 25.9 2
    endloop
  endfacet
  facet normal -0 0 1
    outer loop
      vertex 90.525 42.8 2
      vertex 114.7 25.9 2
      vertex 114.7 42.8 2
    endloop
  endfacet
  facet normal 0 0 1
    outer loop
      vertex 114.7 25.9 2
      vertex 90.525 42.8 2
      vertex 90.525 25.9 2
    endloop
  endfacet
  facet normal 0 1 -0
    outer loop
      vertex 30.175 25.9 2
      vertex 6 25.9 47.9
      vertex 30.175 25.9 47.9
    endloop
  endfacet
  facet normal 0 1 0
    outer loop
      vertex 6 25.9 47.9
      vertex 30.175 25.9 2
      vertex 6 25.9 2
    endloop
  endfacet
  facet normal 0 1 -0
    outer loop
      vertex 114.7 25.9 2
      vertex 90.525 25.9 47.9
      vertex 114.7 25.9 47.9
    endloop
  endfacet
  facet normal 0 1 0
    outer loop
      vertex 90.525 25.9 47.9
      vertex 114.7 25.9 2
      vertex 90.525 25.9 2
    endloop
  endfacet
  facet normal 0 -1 0
    outer loop
      vertex 90.525 42.8 2
      vertex 114.7 42.8 47.9
      vertex 90.525 42.8 47.9
    endloop
  endfacet
  facet normal 0 -1 -0
    outer loop
      vertex 114.7 42.8 47.9
      vertex 90.525 42.8 2
      vertex 114.7 42.8 2
    endloop
  endfacet
  facet normal 0 -1 0
    outer loop
      vertex 6 42.8 2
      vertex 30.175 42.8 47.9
      vertex 6 42.8 47.9
    endloop
  endfacet
  facet normal 0 -1 -0
    outer loop
      vertex 30.175 42.8 47.9
      vertex 6 42.8 2
      vertex 30.175 42.8 2
    endloop
  endfacet
  facet normal -0 0 1
    outer loop
      vertex 6 61.7 2
      vertex 30.175 44.8 2
      vertex 30.175 61.7 2
    endloop
  endfacet
  facet normal 0 0 1
    outer loop
      vertex 30.175 44.8 2
      vertex 6 61.7 2
      vertex 6 44.8 2
    endloop
  endfacet
  facet normal -0 0 1
    outer loop
      vertex 90.525 61.7 2
      vertex 114.7 44.8 2
      vertex 114.7 61.7 2
    endloop
  endfacet
  facet normal 0 0 1
    outer loop
      vertex 114.7 44.8 2
      vertex 90.525 61.7 2
      vertex 90.525 44.8 2
    endloop
  endfacet
  facet normal 0 1 -0
    outer loop
      vertex 30.175 44.8 2
      vertex 6 44.8 47.9
      vertex 30.175 44.8 47.9
    endloop
  endfacet
  facet normal 0 1 0
    outer loop
      vertex 6 44.8 47.9
      vertex 30.175 44.8 2
      vertex 6 44.8 2
    endloop
  endfacet
  facet normal 0 1 -0
    outer loop
      vertex 114.7 44.8 2
      vertex 90.525 44.8 47.9
      vertex 114.7 44.8 47.9
    endloop
  endfacet
  facet normal 0 1 0
    outer loop
      vertex 90.525 44.8 47.9
      vertex 114.7 44.8 2
      vertex 90.525 44.8 2
    endloop
  endfacet
  facet normal 0 -1 0
    outer loop
      vertex 90.525 61.7 2
      vertex 114.7 61.7 47.9
      vertex 90.525 61.7 47.9
    endloop
  endfacet
  facet normal 0 -1 -0
    outer loop
      vertex 114.7 61.7 47.9
      vertex 90.525 61.7 2
      vertex 114.7 61.7 2
    endloop
  endfacet
  facet normal 0 -1 0
    outer loop
      vertex 6 61.7 2
      vertex 30.175 61.7 47.9
      vertex 6 61.7 47.9
    endloop
  endfacet
  facet normal 0 -1 -0
    outer loop
      vertex 30.175 61.7 47.9
      vertex 6 61.7 2
      vertex 30.175 61.7 2
    endloop
  endfacet
  facet normal -0 0 1
    outer loop
      vertex 6 80.6 2
      vertex 30.175 63.7 2
      vertex 30.175 80.6 2
    endloop
  endfacet
  facet normal 0 0 1
    outer loop
      vertex 30.175 63.7 2
      vertex 6 80.6 2
      vertex 6 63.7 2
    endloop
  endfacet
  facet normal -0 0 1
    outer loop
      vertex 90.525 80.6 2
      vertex 114.7 63.7 2
      vertex 114.7 80.6 2
    endloop
  endfacet
  facet normal 0 0 1
    outer loop
      vertex 114.7 63.7 2
      vertex 90.525 80.6 2
      vertex 90.525 63.7 2
    endloop
  endfacet
  facet normal 0 1 -0
    outer loop
      vertex 30.175 63.7 2
      vertex 6 63.7 47.9
      vertex 30.175 63.7 47.9
    endloop
  endfacet
  facet normal 0 1 0
    outer loop
      vertex 6 63.7 47.9
      vertex 30.175 63.7 2
      vertex 6 63.7 2
    endloop
  endfacet
  facet normal 0 1 -0
    outer loop
      vertex 114.7 63.7 2
      vertex 90.525 63.7 47.9
      vertex 114.7 63.7 47.9
    endloop
  endfacet
  facet normal 0 1 0
    outer loop
      vertex 90.525 63.7 47.9
      vertex 114.7 63.7 2
      vertex 90.525 63.7 2
    endloop
  endfacet
  facet normal 0 -1 0
    outer loop
      vertex 90.525 80.6 2
      vertex 114.7 80.6 47.9
      vertex 90.525 80.6 47.9
    endloop
  endfacet
  facet normal 0 -1 -0
    outer loop
      vertex 114.7 80.6 47.9
      vertex 90.525 80.6 2
      vertex 114.7 80.6 2
    endloop
  endfacet
  facet normal 0 -1 0
    outer loop
      vertex 6 80.6 2
      vertex 30.175 80.6 47.9
      vertex 6 80.6 47.9
    endloop
  endfacet
  facet normal 0 -1 -0
    outer loop
      vertex 30.175 80.6 47.9
      vertex 6 80.6 2
      vertex 30.175 80.6 2
    endloop
  endfacet
  facet normal -0 0 1
    outer loop
      vertex 6 99.5 2
      vertex 30.175 82.6 2
      vertex 30.175 99.5 2
    endloop
  endfacet
  facet normal 0 0 1
    outer loop
      vertex 30.175 82.6 2
      vertex 6 99.5 2
      vertex 6 82.6 2
    endloop
  endfacet
  facet normal -0 0 1
    outer loop
      vertex 90.525 99.5 2
      vertex 114.7 82.6 2
      vertex 114.7 99.5 2
    endloop
  endfacet
  facet normal 0 0 1
    outer loop
      vertex 114.7 82.6 2
      vertex 90.525 99.5 2
      vertex 90.525 82.6 2
    endloop
  endfacet
  facet normal 0 1 -0
    outer loop
      vertex 30.175 82.6 2
      vertex 6 82.6 47.9
      vertex 30.175 82.6 47.9
    endloop
  endfacet
  facet normal 0 1 0
    outer loop
      vertex 6 82.6 47.9
      vertex 30.175 82.6 2
      vertex 6 82.6 2
    endloop
  endfacet
  facet normal 0 1 -0
    outer loop
      vertex 114.7 82.6 2
      vertex 90.525 82.6 47.9
      vertex 114.7 82.6 47.9
    endloop
  endfacet
  facet normal 0 1 0
    outer loop
      vertex 90.525 82.6 47.9
      vertex 114.7 82.6 2
      vertex 90.525 82.6 2
    endloop
  endfacet
  facet normal 0 -1 0
    outer loop
      vertex 90.525 99.5 2
      vertex 114.7 99.5 47.9
      vertex 90.525 99.5 47.9
    endloop
  endfacet
  facet normal 0 -1 -0
    outer loop
      vertex 114.7 99.5 47.9
      vertex 90.525 99.5 2
      vertex 114.7 99.5 2
    endloop
  endfacet
  facet normal 0 -1 0
    outer loop
      vertex 6 99.5 2
      vertex 30.175 99.5 47.9
      vertex 6 99.5 47.9
    endloop
  endfacet
  facet normal 0 -1 -0
    outer loop
      vertex 30.175 99.5 47.9
      vertex 6 99.5 2
      vertex 30.175 99.5 2
    endloop
  endfacet
  facet normal -0 0 1
    outer loop
      vertex 6 118.4 2
      vertex 30.175 101.5 2
      vertex 30.175 118.4 2
    endloop
  endfacet
  facet normal 0 0 1
    outer loop
      vertex 30.175 101.5 2
      vertex 6 118.4 2
      vertex 6 101.5 2
    endloop
  endfacet
  facet normal -0 0 1
    outer loop
      vertex 90.525 118.4 2
      vertex 114.7 101.5 2
      vertex 114.7 118.4 2
    endloop
  endfacet
  facet normal 0 0 1
    outer loop
      vertex 114.7 101.5 2
      vertex 90.525 118.4 2
      vertex 90.525 101.5 2
    endloop
  endfacet
  facet normal 0 1 -0
    outer loop
      vertex 30.175 101.5 2
      vertex 6 101.5 47.9
      vertex 30.175 101.5 47.9
    endloop
  endfacet
  facet normal 0 1 0
    outer loop
      vertex 6 101.5 47.9
      vertex 30.175 101.5 2
      vertex 6 101.5 2
    endloop
  endfacet
  facet normal 0 1 -0
    outer loop
      vertex 114.7 101.5 2
      vertex 90.525 101.5 47.9
      vertex 114.7 101.5 47.9
    endloop
  endfacet
  facet normal 0 1 0
    outer loop
      vertex 90.525 101.5 47.9
      vertex 114.7 101.5 2
      vertex 90.525 101.5 2
    endloop
  endfacet
  facet normal 0 -1 0
    outer loop
      vertex 90.525 118.4 2
      vertex 114.7 118.4 47.9
      vertex 90.525 118.4 47.9
    endloop
  endfacet
  facet normal 0 -1 -0
    outer loop
      vertex 114.7 118.4 47.9
      vertex 90.525 118.4 2
      vertex 114.7 118.4 2
    endloop
  endfacet
  facet normal 0 -1 0
    outer loop
      vertex 6 118.4 2
      vertex 30.175 118.4 47.9
      vertex 6 118.4 47.9
    endloop
  endfacet
  facet normal 0 -1 -0
    outer loop
      vertex 30.175 118.4 47.9
      vertex 6 118.4 2
      vertex 30.175 118.4 2
    endloop
  endfacet
  facet normal -0 0 1
    outer loop
      vertex 6 137.3 2
      vertex 30.175 120.4 2
      vertex 30.175 137.3 2
    endloop
  endfacet
  facet normal 0 0 1
    outer loop
      vertex 30.175 120.4 2
      vertex 6 137.3 2
      vertex 6 120.4 2
    endloop
  endfacet
  facet normal -0 0 1
    outer loop
      vertex 90.525 137.3 2
      vertex 114.7 120.4 2
      vertex 114.7 137.3 2
    endloop
  endfacet
  facet normal 0 0 1
    outer loop
      vertex 114.7 120.4 2
      vertex 90.525 137.3 2
      vertex 90.525 120.4 2
    endloop
  endfacet
  facet normal 0 1 -0
    outer loop
      vertex 30.175 120.4 2
      vertex 6 120.4 47.9
      vertex 30.175 120.4 47.9
    endloop
  endfacet
  facet normal 0 1 0
    outer loop
      vertex 6 120.4 47.9
      vertex 30.175 120.4 2
      vertex 6 120.4 2
    endloop
  endfacet
  facet normal 0 1 -0
    outer loop
      vertex 114.7 120.4 2
      vertex 90.525 120.4 47.9
      vertex 114.7 120.4 47.9
    endloop
  endfacet
  facet normal 0 1 0
    outer loop
      vertex 90.525 120.4 47.9
      vertex 114.7 120.4 2
      vertex 90.525 120.4 2
    endloop
  endfacet
  facet normal 0 -1 0
    outer loop
      vertex 90.525 137.3 2
      vertex 114.7 137.3 47.9
      vertex 90.525 137.3 47.9
    endloop
  endfacet
  facet normal 0 -1 -0
    outer loop
      vertex 114.7 137.3 47.9
      vertex 90.525 137.3 2
      vertex 114.7 137.3 2
    endloop
  endfacet
  facet normal 0 -1 0
    outer loop
      vertex 6 137.3 2
      vertex 30.175 137.3 47.9
      vertex 6 137.3 47.9
    endloop
  endfacet
  facet normal 0 -1 -0
    outer loop
      vertex 30.175 137.3 47.9
      vertex 6 137.3 2
      vertex 30.175 137.3 2
    endloop
  endfacet
  facet normal 0 -1 0
    outer loop
      vertex 90.525 156.2 2
      vertex 114.7 156.2 47.9
      vertex 90.525 156.2 47.9
    endloop
  endfacet
  facet normal 0 -1 -0
    outer loop
      vertex 114.7 156.2 47.9
      vertex 90.525 156.2 2
      vertex 114.7 156.2 2
    endloop
  endfacet
  facet normal 0 -1 0
    outer loop
      vertex 6 156.2 2
      vertex 30.175 156.2 47.9
      vertex 6 156.2 47.9
    endloop
  endfacet
  facet normal 0 -1 -0
    outer loop
      vertex 30.175 156.2 47.9
      vertex 6 156.2 2
      vertex 30.175 156.2 2
    endloop
  endfacet
  facet normal -0 0 1
    outer loop
      vertex 6 156.2 2
      vertex 30.175 139.3 2
      vertex 30.175 156.2 2
    endloop
  endfacet
  facet normal 0 0 1
    outer loop
      vertex 30.175 139.3 2
      vertex 6 156.2 2
      vertex 6 139.3 2
    endloop
  endfacet
  facet normal -0 0 1
    outer loop
      vertex 90.525 156.2 2
      vertex 114.7 139.3 2
      vertex 114.7 156.2 2
    endloop
  endfacet
  facet normal 0 0 1
    outer loop
      vertex 114.7 139.3 2
      vertex 90.525 156.2 2
      vertex 90.525 139.3 2
    endloop
  endfacet
  facet normal 0 1 -0
    outer loop
      vertex 30.175 139.3 2
      vertex 6 139.3 47.9
      vertex 30.175 139.3 47.9
    endloop
  endfacet
  facet normal 0 1 0
    outer loop
      vertex 6 139.3 47.9
      vertex 30.175 139.3 2
      vertex 6 139.3 2
    endloop
  endfacet
  facet normal 0 1 -0
    outer loop
      vertex 114.7 139.3 2
      vertex 90.525 139.3 47.9
      vertex 114.7 139.3 47.9
    endloop
  endfacet
  facet normal 0 1 0
    outer loop
      vertex 90.525 139.3 47.9
      vertex 114.7 139.3 2
      vertex 90.525 139.3 2
    endloop
  endfacet
  facet normal -0 0 1
    outer loop
      vertex 6 175.1 2
      vertex 30.175 158.2 2
      vertex 30.175 175.1 2
    endloop
  endfacet
  facet normal 0 0 1
    outer loop
      vertex 30.175 158.2 2
      vertex 6 175.1 2
      vertex 6 158.2 2
    endloop
  endfacet
  facet normal -0 0 1
    outer loop
      vertex 90.525 175.1 2
      vertex 114.7 158.2 2
      vertex 114.7 175.1 2
    endloop
  endfacet
  facet normal 0 0 1
    outer loop
      vertex 114.7 158.2 2
      vertex 90.525 175.1 2
      vertex 90.525 158.2 2
    endloop
  endfacet
  facet normal 0 1 -0
    outer loop
      vertex 30.175 158.2 2
      vertex 6 158.2 47.9
      vertex 30.175 158.2 47.9
    endloop
  endfacet
  facet normal 0 1 0
    outer loop
      vertex 6 158.2 47.9
      vertex 30.175 158.2 2
      vertex 6 158.2 2
    endloop
  endfacet
  facet normal 0 1 -0
    outer loop
      vertex 114.7 158.2 2
      vertex 90.525 158.2 47.9
      vertex 114.7 158.2 47.9
    endloop
  endfacet
  facet normal 0 1 0
    outer loop
      vertex 90.525 158.2 47.9
      vertex 114.7 158.2 2
      vertex 90.525 158.2 2
    endloop
  endfacet
  facet normal 0 -1 0
    outer loop
      vertex 90.525 175.1 2
      vertex 114.7 175.1 47.9
      vertex 90.525 175.1 47.9
    endloop
  endfacet
  facet normal 0 -1 -0
    outer loop
      vertex 114.7 175.1 47.9
      vertex 90.525 175.1 2
      vertex 114.7 175.1 2
    endloop
  endfacet
  facet normal 0 -1 0
    outer loop
      vertex 6 175.1 2
      vertex 30.175 175.1 47.9
      vertex 6 175.1 47.9
    endloop
  endfacet
  facet normal 0 -1 -0
    outer loop
      vertex 30.175 175.1 47.9
      vertex 6 175.1 2
      vertex 30.175 175.1 2
    endloop
  endfacet
  facet normal -0 0 1
    outer loop
      vertex 6 194 2
      vertex 30.175 177.1 2
      vertex 30.175 194 2
    endloop
  endfacet
  facet normal 0 0 1
    outer loop
      vertex 30.175 177.1 2
      vertex 6 194 2
      vertex 6 177.1 2
    endloop
  endfacet
  facet normal -0 0 1
    outer loop
      vertex 90.525 194 2
      vertex 114.7 177.1 2
      vertex 114.7 194 2
    endloop
  endfacet
  facet normal 0 0 1
    outer loop
      vertex 114.7 177.1 2
      vertex 90.525 194 2
      vertex 90.525 177.1 2
    endloop
  endfacet
  facet normal 0 1 -0
    outer loop
      vertex 30.175 177.1 2
      vertex 6 177.1 47.9
      vertex 30.175 177.1 47.9
    endloop
  endfacet
  facet normal 0 1 0
    outer loop
      vertex 6 177.1 47.9
      vertex 30.175 177.1 2
      vertex 6 177.1 2
    endloop
  endfacet
  facet normal 0 1 -0
    outer loop
      vertex 114.7 177.1 2
      vertex 90.525 177.1 47.9
      vertex 114.7 177.1 47.9
    endloop
  endfacet
  facet normal 0 1 0
    outer loop
      vertex 90.525 177.1 47.9
      vertex 114.7 177.1 2
      vertex 90.525 177.1 2
    endloop
  endfacet
  facet normal 0 -1 0
    outer loop
      vertex 30.175 194 0
      vertex 90.525 194 2
      vertex 30.175 194 2
    endloop
  endfacet
  facet normal 0 -1 -0
    outer loop
      vertex 90.525 194 2
      vertex 30.175 194 0
      vertex 90.525 194 0
    endloop
  endfacet
  facet normal 0 -1 0
    outer loop
      vertex 30.175 194 2
      vertex 6 194 53.9
      vertex 6 194 2
    endloop
  endfacet
  facet normal 0 -1 0
    outer loop
      vertex 6 194 53.9
      vertex 30.175 194 2
      vertex 114.7 194 53.9
    endloop
  endfacet
  facet normal 0 -1 0
    outer loop
      vertex 90.525 194 2
      vertex 114.7 194 53.9
      vertex 30.175 194 2
    endloop
  endfacet
  facet normal 0 -1 -0
    outer loop
      vertex 114.7 194 53.9
      vertex 90.525 194 2
      vertex 114.7 194 2
    endloop
  endfacet
  facet normal -0 0 1
    outer loop
      vertex 6 177.1 47.9
      vertex 30.175 175.1 47.9
      vertex 30.175 177.1 47.9
    endloop
  endfacet
  facet normal 0 0 1
    outer loop
      vertex 30.175 175.1 47.9
      vertex 6 177.1 47.9
      vertex 6 175.1 47.9
    endloop
  endfacet
  facet normal -0 0 1
    outer loop
      vertex 6 158.2 47.9
      vertex 30.175 156.2 47.9
      vertex 30.175 158.2 47.9
    endloop
  endfacet
  facet normal 0 0 1
    outer loop
      vertex 30.175 156.2 47.9
      vertex 6 158.2 47.9
      vertex 6 156.2 47.9
    endloop
  endfacet
  facet normal -0 0 1
    outer loop
      vertex 6 139.3 47.9
      vertex 30.175 137.3 47.9
      vertex 30.175 139.3 47.9
    endloop
  endfacet
  facet normal 0 0 1
    outer loop
      vertex 30.175 137.3 47.9
      vertex 6 139.3 47.9
      vertex 6 137.3 47.9
    endloop
  endfacet
  facet normal -0 0 1
    outer loop
      vertex 6 120.4 47.9
      vertex 30.175 118.4 47.9
      vertex 30.175 120.4 47.9
    endloop
  endfacet
  facet normal 0 0 1
    outer loop
      vertex 30.175 118.4 47.9
      vertex 6 120.4 47.9
      vertex 6 118.4 47.9
    endloop
  endfacet
  facet normal -0 0 1
    outer loop
      vertex 6 101.5 47.9
      vertex 30.175 99.5 47.9
      vertex 30.175 101.5 47.9
    endloop
  endfacet
  facet normal 0 0 1
    outer loop
      vertex 30.175 99.5 47.9
      vertex 6 101.5 47.9
      vertex 6 99.5 47.9
    endloop
  endfacet
  facet normal -0 0 1
    outer loop
      vertex 6 82.6 47.9
      vertex 30.175 80.6 47.9
      vertex 30.175 82.6 47.9
    endloop
  endfacet
  facet normal 0 0 1
    outer loop
      vertex 30.175 80.6 47.9
      vertex 6 82.6 47.9
      vertex 6 80.6 47.9
    endloop
  endfacet
  facet normal -0 0 1
    outer loop
      vertex 6 63.7 47.9
      vertex 30.175 61.7 47.9
      vertex 30.175 63.7 47.9
    endloop
  endfacet
  facet normal 0 0 1
    outer loop
      vertex 30.175 61.7 47.9
      vertex 6 63.7 47.9
      vertex 6 61.7 47.9
    endloop
  endfacet
  facet normal -0 0 1
    outer loop
      vertex 6 44.8 47.9
      vertex 30.175 42.8 47.9
      vertex 30.175 44.8 47.9
    endloop
  endfacet
  facet normal 0 0 1
    outer loop
      vertex 30.175 42.8 47.9
      vertex 6 44.8 47.9
      vertex 6 42.8 47.9
    endloop
  endfacet
  facet normal -0 0 1
    outer loop
      vertex 6 25.9 47.9
      vertex 30.175 23.9 47.9
      vertex 30.175 25.9 47.9
    endloop
  endfacet
  facet normal 0 0 1
    outer loop
      vertex 30.175 23.9 47.9
      vertex 6 25.9 47.9
      vertex 6 23.9 47.9
    endloop
  endfacet
  facet normal -0 0 1
    outer loop
      vertex 90.525 177.1 47.9
      vertex 114.7 175.1 47.9
      vertex 114.7 177.1 47.9
    endloop
  endfacet
  facet normal 0 0 1
    outer loop
      vertex 114.7 175.1 47.9
      vertex 90.525 177.1 47.9
      vertex 90.525 175.1 47.9
    endloop
  endfacet
  facet normal -0 0 1
    outer loop
      vertex 90.525 158.2 47.9
      vertex 114.7 156.2 47.9
      vertex 114.7 158.2 47.9
    endloop
  endfacet
  facet normal 0 0 1
    outer loop
      vertex 114.7 156.2 47.9
      vertex 90.525 158.2 47.9
      vertex 90.525 156.2 47.9
    endloop
  endfacet
  facet normal -0 0 1
    outer loop
      vertex 90.525 139.3 47.9
      vertex 114.7 137.3 47.9
      vertex 114.7 139.3 47.9
    endloop
  endfacet
  facet normal 0 0 1
    outer loop
      vertex 114.7 137.3 47.9
      vertex 90.525 139.3 47.9
      vertex 90.525 137.3 47.9
    endloop
  endfacet
  facet normal -0 0 1
    outer loop
      vertex 90.525 120.4 47.9
      vertex 114.7 118.4 47.9
      vertex 114.7 120.4 47.9
    endloop
  endfacet
  facet normal 0 0 1
    outer loop
      vertex 114.7 118.4 47.9
      vertex 90.525 120.4 47.9
      vertex 90.525 118.4 47.9
    endloop
  endfacet
  facet normal -0 0 1
    outer loop
      vertex 90.525 101.5 47.9
      vertex 114.7 99.5 47.9
      vertex 114.7 101.5 47.9
    endloop
  endfacet
  facet normal 0 0 1
    outer loop
      vertex 114.7 99.5 47.9
      vertex 90.525 101.5 47.9
      vertex 90.525 99.5 47.9
    endloop
  endfacet
  facet normal -0 0 1
    outer loop
      vertex 90.525 82.6 47.9
      vertex 114.7 80.6 47.9
      vertex 114.7 82.6 47.9
    endloop
  endfacet
  facet normal 0 0 1
    outer loop
      vertex 114.7 80.6 47.9
      vertex 90.525 82.6 47.9
      vertex 90.525 80.6 47.9
    endloop
  endfacet
  facet normal -0 0 1
    outer loop
      vertex 90.525 63.7 47.9
      vertex 114.7 61.7 47.9
      vertex 114.7 63.7 47.9
    endloop
  endfacet
  facet normal 0 0 1
    outer loop
      vertex 114.7 61.7 47.9
      vertex 90.525 63.7 47.9
      vertex 90.525 61.7 47.9
    endloop
  endfacet
  facet normal -0 0 1
    outer loop
      vertex 90.525 44.8 47.9
      vertex 114.7 42.8 47.9
      vertex 114.7 44.8 47.9
    endloop
  endfacet
  facet normal 0 0 1
    outer loop
      vertex 114.7 42.8 47.9
      vertex 90.525 44.8 47.9
      vertex 90.525 42.8 47.9
    endloop
  endfacet
  facet normal -0 0 1
    outer loop
      vertex 90.525 25.9 47.9
      vertex 114.7 23.9 47.9
      vertex 114.7 25.9 47.9
    endloop
  endfacet
  facet normal 0 0 1
    outer loop
      vertex 114.7 23.9 47.9
      vertex 90.525 25.9 47.9
      vertex 90.525 23.9 47.9
    endloop
  endfacet
  facet normal 1 0 0
    outer loop
      vertex 30.175 25.9 47.9
      vertex 30.175 23.9 47.9
      vertex 30.175 25.9 2
    endloop
  endfacet
  facet normal 1 0 0
    outer loop
      vertex 30.175 44.8 47.9
      vertex 30.175 42.8 47.9
      vertex 30.175 44.8 2
    endloop
  endfacet
  facet normal 1 0 0
    outer loop
      vertex 30.175 63.7 47.9
      vertex 30.175 61.7 47.9
      vertex 30.175 63.7 2
    endloop
  endfacet
  facet normal 1 0 0
    outer loop
      vertex 30.175 82.6 47.9
      vertex 30.175 80.6 47.9
      vertex 30.175 82.6 2
    endloop
  endfacet
  facet normal 1 0 0
    outer loop
      vertex 30.175 101.5 47.9
      vertex 30.175 99.5 47.9
      vertex 30.175 101.5 2
    endloop
  endfacet
  facet normal 1 0 0
    outer loop
      vertex 30.175 120.4 47.9
      vertex 30.175 118.4 47.9
      vertex 30.175 120.4 2
    endloop
  endfacet
  facet normal 1 0 0
    outer loop
      vertex 30.175 139.3 47.9
      vertex 30.175 137.3 47.9
      vertex 30.175 139.3 2
    endloop
  endfacet
  facet normal 1 0 0
    outer loop
      vertex 30.175 158.2 47.9
      vertex 30.175 156.2 47.9
      vertex 30.175 158.2 2
    endloop
  endfacet
  facet normal 1 0 0
    outer loop
      vertex 30.175 177.1 47.9
      vertex 30.175 175.1 47.9
      vertex 30.175 177.1 2
    endloop
  endfacet
  facet normal 1 -0 0
    outer loop
      vertex 30.175 177.1 2
      vertex 30.175 194 0
      vertex 30.175 194 2
    endloop
  endfacet
  facet normal 1 0 0
    outer loop
      vertex 30.175 175.1 2
      vertex 30.175 177.1 2
      vertex 30.175 175.1 47.9
    endloop
  endfacet
  facet normal 1 -0 0
    outer loop
      vertex 30.175 175.1 2
      vertex 30.175 194 0
      vertex 30.175 177.1 2
    endloop
  endfacet
  facet normal 1 -0 0
    outer loop
      vertex 30.175 158.2 2
      vertex 30.175 194 0
      vertex 30.175 175.1 2
    endloop
  endfacet
  facet normal 1 0 0
    outer loop
      vertex 30.175 156.2 2
      vertex 30.175 158.2 2
      vertex 30.175 156.2 47.9
    endloop
  endfacet
  facet normal 1 -0 0
    outer loop
      vertex 30.175 156.2 2
      vertex 30.175 194 0
      vertex 30.175 158.2 2
    endloop
  endfacet
  facet normal 1 -0 0
    outer loop
      vertex 30.175 139.3 2
      vertex 30.175 194 0
      vertex 30.175 156.2 2
    endloop
  endfacet
  facet normal 1 0 0
    outer loop
      vertex 30.175 137.3 2
      vertex 30.175 139.3 2
      vertex 30.175 137.3 47.9
    endloop
  endfacet
  facet normal 1 -0 0
    outer loop
      vertex 30.175 137.3 2
      vertex 30.175 194 0
      vertex 30.175 139.3 2
    endloop
  endfacet
  facet normal 1 -0 0
    outer loop
      vertex 30.175 120.4 2
      vertex 30.175 194 0
      vertex 30.175 137.3 2
    endloop
  endfacet
  facet normal 1 0 0
    outer loop
      vertex 30.175 118.4 2
      vertex 30.175 120.4 2
      vertex 30.175 118.4 47.9
    endloop
  endfacet
  facet normal 1 -0 0
    outer loop
      vertex 30.175 118.4 2
      vertex 30.175 194 0
      vertex 30.175 120.4 2
    endloop
  endfacet
  facet normal 1 -0 0
    outer loop
      vertex 30.175 101.5 2
      vertex 30.175 194 0
      vertex 30.175 118.4 2
    endloop
  endfacet
  facet normal 1 0 0
    outer loop
      vertex 30.175 99.5 2
      vertex 30.175 101.5 2
      vertex 30.175 99.5 47.9
    endloop
  endfacet
  facet normal 1 -0 0
    outer loop
      vertex 30.175 99.5 2
      vertex 30.175 194 0
      vertex 30.175 101.5 2
    endloop
  endfacet
  facet normal 1 -0 0
    outer loop
      vertex 30.175 82.6 2
      vertex 30.175 194 0
      vertex 30.175 99.5 2
    endloop
  endfacet
  facet normal 1 0 0
    outer loop
      vertex 30.175 80.6 2
      vertex 30.175 82.6 2
      vertex 30.175 80.6 47.9
    endloop
  endfacet
  facet normal 1 -0 0
    outer loop
      vertex 30.175 80.6 2
      vertex 30.175 194 0
      vertex 30.175 82.6 2
    endloop
  endfacet
  facet normal 1 0 0
    outer loop
      vertex 30.175 7 0
      vertex 30.175 80.6 2
      vertex 30.175 63.7 2
    endloop
  endfacet
  facet normal 1 0 0
    outer loop
      vertex 30.175 61.7 2
      vertex 30.175 63.7 2
      vertex 30.175 61.7 47.9
    endloop
  endfacet
  facet normal 1 0 0
    outer loop
      vertex 30.175 7 0
      vertex 30.175 63.7 2
      vertex 30.175 61.7 2
    endloop
  endfacet
  facet normal 1 0 0
    outer loop
      vertex 30.175 7 0
      vertex 30.175 61.7 2
      vertex 30.175 44.8 2
    endloop
  endfacet
  facet normal 1 0 0
    outer loop
      vertex 30.175 42.8 2
      vertex 30.175 44.8 2
      vertex 30.175 42.8 47.9
    endloop
  endfacet
  facet normal 1 0 0
    outer loop
      vertex 30.175 7 0
      vertex 30.175 44.8 2
      vertex 30.175 42.8 2
    endloop
  endfacet
  facet normal 1 0 0
    outer loop
      vertex 30.175 7 0
      vertex 30.175 42.8 2
      vertex 30.175 25.9 2
    endloop
  endfacet
  facet normal 1 0 0
    outer loop
      vertex 30.175 23.9 2
      vertex 30.175 25.9 2
      vertex 30.175 23.9 47.9
    endloop
  endfacet
  facet normal 1 0 0
    outer loop
      vertex 30.175 7 0
      vertex 30.175 25.9 2
      vertex 30.175 23.9 2
    endloop
  endfacet
  facet normal 1 0 0
    outer loop
      vertex 30.175 7 0
      vertex 30.175 23.9 2
      vertex 30.175 7 2
    endloop
  endfacet
  facet normal 1 0 0
    outer loop
      vertex 30.175 80.6 2
      vertex 30.175 7 0
      vertex 30.175 194 0
    endloop
  endfacet
  facet normal -1 0 0
    outer loop
      vertex 90.525 194 0
      vertex 90.525 177.1 2
      vertex 90.525 194 2
    endloop
  endfacet
  facet normal -1 0 0
    outer loop
      vertex 90.525 177.1 2
      vertex 90.525 175.1 2
      vertex 90.525 177.1 47.9
    endloop
  endfacet
  facet normal -1 0 0
    outer loop
      vertex 90.525 194 0
      vertex 90.525 175.1 2
      vertex 90.525 177.1 2
    endloop
  endfacet
  facet normal -1 0 0
    outer loop
      vertex 90.525 194 0
      vertex 90.525 158.2 2
      vertex 90.525 175.1 2
    endloop
  endfacet
  facet normal -1 0 0
    outer loop
      vertex 90.525 158.2 2
      vertex 90.525 156.2 2
      vertex 90.525 158.2 47.9
    endloop
  endfacet
  facet normal -1 0 0
    outer loop
      vertex 90.525 194 0
      vertex 90.525 156.2 2
      vertex 90.525 158.2 2
    endloop
  endfacet
  facet normal -1 0 0
    outer loop
      vertex 90.525 194 0
      vertex 90.525 139.3 2
      vertex 90.525 156.2 2
    endloop
  endfacet
  facet normal -1 0 0
    outer loop
      vertex 90.525 139.3 2
      vertex 90.525 137.3 2
      vertex 90.525 139.3 47.9
    endloop
  endfacet
  facet normal -1 0 0
    outer loop
      vertex 90.525 194 0
      vertex 90.525 137.3 2
      vertex 90.525 139.3 2
    endloop
  endfacet
  facet normal -1 0 0
    outer loop
      vertex 90.525 194 0
      vertex 90.525 120.4 2
      vertex 90.525 137.3 2
    endloop
  endfacet
  facet normal -1 0 0
    outer loop
      vertex 90.525 120.4 2
      vertex 90.525 118.4 2
      vertex 90.525 120.4 47.9
    endloop
  endfacet
  facet normal -1 0 0
    outer loop
      vertex 90.525 194 0
      vertex 90.525 118.4 2
      vertex 90.525 120.4 2
    endloop
  endfacet
  facet normal -1 0 0
    outer loop
      vertex 90.525 194 0
      vertex 90.525 101.5 2
      vertex 90.525 118.4 2
    endloop
  endfacet
  facet normal -1 0 0
    outer loop
      vertex 90.525 101.5 2
      vertex 90.525 99.5 2
      vertex 90.525 101.5 47.9
    endloop
  endfacet
  facet normal -1 0 0
    outer loop
      vertex 90.525 194 0
      vertex 90.525 99.5 2
      vertex 90.525 101.5 2
    endloop
  endfacet
  facet normal -1 0 0
    outer loop
      vertex 90.525 194 0
      vertex 90.525 82.6 2
      vertex 90.525 99.5 2
    endloop
  endfacet
  facet normal -1 0 0
    outer loop
      vertex 90.525 82.6 2
      vertex 90.525 80.6 2
      vertex 90.525 82.6 47.9
    endloop
  endfacet
  facet normal -1 0 0
    outer loop
      vertex 90.525 194 0
      vertex 90.525 80.6 2
      vertex 90.525 82.6 2
    endloop
  endfacet
  facet normal -1 0 0
    outer loop
      vertex 90.525 7 0
      vertex 90.525 80.6 2
      vertex 90.525 194 0
    endloop
  endfacet
  facet normal -1 0 0
    outer loop
      vertex 90.525 63.7 2
      vertex 90.525 61.7 2
      vertex 90.525 63.7 47.9
    endloop
  endfacet
  facet normal -1 -0 0
    outer loop
      vertex 90.525 80.6 2
      vertex 90.525 7 0
      vertex 90.525 63.7 2
    endloop
  endfacet
  facet normal -1 -0 0
    outer loop
      vertex 90.525 63.7 2
      vertex 90.525 7 0
      vertex 90.525 61.7 2
    endloop
  endfacet
  facet normal -1 0 0
    outer loop
      vertex 90.525 44.8 2
      vertex 90.525 42.8 2
      vertex 90.525 44.8 47.9
    endloop
  endfacet
  facet normal -1 -0 0
    outer loop
      vertex 90.525 61.7 2
      vertex 90.525 7 0
      vertex 90.525 44.8 2
    endloop
  endfacet
  facet normal -1 -0 0
    outer loop
      vertex 90.525 44.8 2
      vertex 90.525 7 0
      vertex 90.525 42.8 2
    endloop
  endfacet
  facet normal -1 0 0
    outer loop
      vertex 90.525 25.9 2
      vertex 90.525 23.9 2
      vertex 90.525 25.9 47.9
    endloop
  endfacet
  facet normal -1 -0 0
    outer loop
      vertex 90.525 42.8 2
      vertex 90.525 7 0
      vertex 90.525 25.9 2
    endloop
  endfacet
  facet normal -1 -0 0
    outer loop
      vertex 90.525 25.9 2
      vertex 90.525 7 0
      vertex 90.525 23.9 2
    endloop
  endfacet
  facet normal -1 -0 0
    outer loop
      vertex 90.525 23.9 2
      vertex 90.525 7 0
      vertex 90.525 7 2
    endloop
  endfacet
  facet normal -1 -0 0
    outer loop
      vertex 90.525 177.1 47.9
      vertex 90.525 175.1 2
      vertex 90.525 175.1 47.9
    endloop
  endfacet
  facet normal -1 -0 0
    outer loop
      vertex 90.525 158.2 47.9
      vertex 90.525 156.2 2
      vertex 90.525 156.2 47.9
    endloop
  endfacet
  facet normal -1 -0 0
    outer loop
      vertex 90.525 139.3 47.9
      vertex 90.525 137.3 2
      vertex 90.525 137.3 47.9
    endloop
  endfacet
  facet normal -1 -0 0
    outer loop
      vertex 90.525 120.4 47.9
      vertex 90.525 118.4 2
      vertex 90.525 118.4 47.9
    endloop
  endfacet
  facet normal -1 -0 0
    outer loop
      vertex 90.525 101.5 47.9
      vertex 90.525 99.5 2
      vertex 90.525 99.5 47.9
    endloop
  endfacet
  facet normal -1 -0 0
    outer loop
      vertex 90.525 82.6 47.9
      vertex 90.525 80.6 2
      vertex 90.525 80.6 47.9
    endloop
  endfacet
  facet normal -1 -0 0
    outer loop
      vertex 90.525 63.7 47.9
      vertex 90.525 61.7 2
      vertex 90.525 61.7 47.9
    endloop
  endfacet
  facet normal -1 -0 0
    outer loop
      vertex 90.525 44.8 47.9
      vertex 90.525 42.8 2
      vertex 90.525 42.8 47.9
    endloop
  endfacet
  facet normal -1 -0 0
    outer loop
      vertex 90.525 25.9 47.9
      vertex 90.525 23.9 2
      vertex 90.525 23.9 47.9
    endloop
  endfacet
endsolid OpenSCAD_Model
