solid OpenSCAD_Model
  facet normal 0 0 -1
    outer loop
      vertex 32.8108 0 0
      vertex 27.8108 5 0
      vertex 32.8108 15 0
    endloop
  endfacet
  facet normal 0 0 -1
    outer loop
      vertex 32.8108 0 0
      vertex 25 5 0
      vertex 27.8108 5 0
    endloop
  endfacet
  facet normal 0 0 -1
    outer loop
      vertex 0 0 0
      vertex 25 5 0
      vertex 32.8108 0 0
    endloop
  endfacet
  facet normal -0 0 -1
    outer loop
      vertex 25 5 0
      vertex 0 0 0
      vertex 17.4464 7.59288 0
    endloop
  endfacet
  facet normal 0 0 -1
    outer loop
      vertex 0 25 0
      vertex 17.4464 7.59288 0
      vertex 0 0 0
    endloop
  endfacet
  facet normal 0 0 -1
    outer loop
      vertex 17.4464 7.59288 0
      vertex 0 25 0
      vertex 15 25 0
    endloop
  endfacet
  facet normal -0 0 -1
    outer loop
      vertex 32.8108 15 0
      vertex 27.8108 5 0
      vertex 27.8108 15 0
    endloop
  endfacet
  facet normal 0 0 1
    outer loop
      vertex 27.8108 5 100
      vertex 32.8108 15 100
      vertex 27.8108 15 100
    endloop
  endfacet
  facet normal 0 0 1
    outer loop
      vertex 32.8108 15 100
      vertex 27.8108 5 100
      vertex 32.8108 0 100
    endloop
  endfacet
  facet normal -0 0 1
    outer loop
      vertex 25 5 100
      vertex 32.8108 0 100
      vertex 27.8108 5 100
    endloop
  endfacet
  facet normal 0 0 1
    outer loop
      vertex 0 0 100
      vertex 25 5 100
      vertex 17.4464 7.59288 100
    endloop
  endfacet
  facet normal -0 0 1
    outer loop
      vertex 0 25 100
      vertex 17.4464 7.59288 100
      vertex 15 25 100
    endloop
  endfacet
  facet normal 0 0 1
    outer loop
      vertex 25 5 100
      vertex 0 0 100
      vertex 32.8108 0 100
    endloop
  endfacet
  facet normal 0 0 1
    outer loop
      vertex 0 0 100
      vertex 17.4464 7.59288 100
      vertex 0 25 100
    endloop
  endfacet
  facet normal -1 0 0
    outer loop
      vertex 27.8108 5 0
      vertex 27.8108 15 100
      vertex 27.8108 15 0
    endloop
  endfacet
  facet normal -1 -0 0
    outer loop
      vertex 27.8108 15 100
      vertex 27.8108 5 0
      vertex 27.8108 5 100
    endloop
  endfacet
  facet normal 0 1 -0
    outer loop
      vertex 27.8108 5 0
      vertex 25 5 100
      vertex 27.8108 5 100
    endloop
  endfacet
  facet normal 0 1 0
    outer loop
      vertex 25 5 100
      vertex 27.8108 5 0
      vertex 25 5 0
    endloop
  endfacet
  facet normal 0.324669 0.945828 -0
    outer loop
      vertex 25 5 0
      vertex 17.4464 7.59288 100
      vertex 25 5 100
    endloop
  endfacet
  facet normal 0.324669 0.945828 0
    outer loop
      vertex 17.4464 7.59288 100
      vertex 25 5 0
      vertex 17.4464 7.59288 0
    endloop
  endfacet
  facet normal 0.990268 0.139172 0
    outer loop
      vertex 17.4464 7.59288 100
      vertex 15 25 0
      vertex 15 25 100
    endloop
  endfacet
  facet normal 0.990268 0.139172 0
    outer loop
      vertex 15 25 0
      vertex 17.4464 7.59288 100
      vertex 17.4464 7.59288 0
    endloop
  endfacet
  facet normal 0 1 -0
    outer loop
      vertex 15 25 0
      vertex 0 25 100
      vertex 15 25 100
    endloop
  endfacet
  facet normal 0 1 0
    outer loop
      vertex 0 25 100
      vertex 15 25 0
      vertex 0 25 0
    endloop
  endfacet
  facet normal -1 0 0
    outer loop
      vertex 0 25 0
      vertex 0 20 11.8
      vertex 0 25 100
    endloop
  endfacet
  facet normal -1 0 0
    outer loop
      vertex 0 0 0
      vertex 0 20 11.8
      vertex 0 25 0
    endloop
  endfacet
  facet normal -1 -0 0
    outer loop
      vertex 0 20 11.8
      vertex 0 0 0
      vertex 0 0 11.8
    endloop
  endfacet
  facet normal -1 0 0
    outer loop
      vertex 0 20 88.2
      vertex 0 25 100
      vertex 0 20 11.8
    endloop
  endfacet
  facet normal -1 0 0
    outer loop
      vertex 0 0 100
      vertex 0 20 88.2
      vertex 0 0 88.2
    endloop
  endfacet
  facet normal -1 0 0
    outer loop
      vertex 0 20 88.2
      vertex 0 0 100
      vertex 0 25 100
    endloop
  endfacet
  facet normal 0 -1 0
    outer loop
      vertex 0 0 11.8
      vertex 2.70001 0 9.8
      vertex 2.70001 0 11.8
    endloop
  endfacet
  facet normal 0 -1 -0
    outer loop
      vertex 2.70001 0 9.8
      vertex 0 0 0
      vertex 6.6 0 9.8
    endloop
  endfacet
  facet normal 0 -1 0
    outer loop
      vertex 0 0 0
      vertex 2.70001 0 9.8
      vertex 0 0 11.8
    endloop
  endfacet
  facet normal 0 -1 0
    outer loop
      vertex 6.6 0 90.2
      vertex 0 0 100
      vertex 2.70001 0 90.2
    endloop
  endfacet
  facet normal 0 -1 0
    outer loop
      vertex 0 0 88.2
      vertex 2.70001 0 90.2
      vertex 0 0 100
    endloop
  endfacet
  facet normal 0 -1 -0
    outer loop
      vertex 2.70001 0 90.2
      vertex 0 0 88.2
      vertex 2.70001 0 88.2
    endloop
  endfacet
  facet normal 0 -1 0
    outer loop
      vertex 0 0 100
      vertex 6.6 0 90.2
      vertex 32.8108 0 100
    endloop
  endfacet
  facet normal 0 -1 0
    outer loop
      vertex 6.6 0 9.8
      vertex 32.8108 0 100
      vertex 6.6 0 90.2
    endloop
  endfacet
  facet normal 0 -1 0
    outer loop
      vertex 6.6 0 9.8
      vertex 32.8108 0 0
      vertex 32.8108 0 100
    endloop
  endfacet
  facet normal 0 -1 0
    outer loop
      vertex 32.8108 0 0
      vertex 6.6 0 9.8
      vertex 0 0 0
    endloop
  endfacet
  facet normal 1 -0 0
    outer loop
      vertex 32.8108 0 100
      vertex 32.8108 15 0
      vertex 32.8108 15 100
    endloop
  endfacet
  facet normal 1 0 0
    outer loop
      vertex 32.8108 15 0
      vertex 32.8108 0 100
      vertex 32.8108 0 0
    endloop
  endfacet
  facet normal 0 1 -0
    outer loop
      vertex 32.8108 15 0
      vertex 27.8108 15 100
      vertex 32.8108 15 100
    endloop
  endfacet
  facet normal 0 1 0
    outer loop
      vertex 27.8108 15 100
      vertex 32.8108 15 0
      vertex 27.8108 15 0
    endloop
  endfacet
  facet normal 0 -1 0
    outer loop
      vertex 0 20 88.2
      vertex 0 20 11.8
      vertex 2.70001 20 88.2
    endloop
  endfacet
  facet normal 0 -1 0
    outer loop
      vertex 2.70001 20 88.2
      vertex 6.6 20 90.2
      vertex 2.70001 20 90.2
    endloop
  endfacet
  facet normal 0 -1 0
    outer loop
      vertex 2.70001 20 11.8
      vertex 2.70001 20 88.2
      vertex 0 20 11.8
    endloop
  endfacet
  facet normal 0 -1 0
    outer loop
      vertex 2.70001 20 88.2
      vertex 2.70001 20 11.8
      vertex 6.6 20 90.2
    endloop
  endfacet
  facet normal 0 -1 0
    outer loop
      vertex 6.6 20 9.8
      vertex 2.70001 20 11.8
      vertex 2.70001 20 9.8
    endloop
  endfacet
  facet normal 0 -1 0
    outer loop
      vertex 2.70001 20 11.8
      vertex 6.6 20 9.8
      vertex 6.6 20 90.2
    endloop
  endfacet
  facet normal -1 0 0
    outer loop
      vertex 6.6 0 9.8
      vertex 6.6 20 90.2
      vertex 6.6 20 9.8
    endloop
  endfacet
  facet normal -1 -0 0
    outer loop
      vertex 6.6 20 90.2
      vertex 6.6 0 9.8
      vertex 6.6 0 90.2
    endloop
  endfacet
  facet normal 0 0 -1
    outer loop
      vertex 2.70001 0 90.2
      vertex 6.6 20 90.2
      vertex 6.6 0 90.2
    endloop
  endfacet
  facet normal -0 0 -1
    outer loop
      vertex 6.6 20 90.2
      vertex 2.70001 0 90.2
      vertex 2.70001 20 90.2
    endloop
  endfacet
  facet normal 1 -0 0
    outer loop
      vertex 2.70001 0 90.2
      vertex 2.70001 20 88.2
      vertex 2.70001 20 90.2
    endloop
  endfacet
  facet normal 1 0 0
    outer loop
      vertex 2.70001 20 88.2
      vertex 2.70001 0 90.2
      vertex 2.70001 0 88.2
    endloop
  endfacet
  facet normal 0 0 -1
    outer loop
      vertex 0 0 88.2
      vertex 2.70001 20 88.2
      vertex 2.70001 0 88.2
    endloop
  endfacet
  facet normal -0 0 -1
    outer loop
      vertex 2.70001 20 88.2
      vertex 0 0 88.2
      vertex 0 20 88.2
    endloop
  endfacet
  facet normal -0 0 1
    outer loop
      vertex 0 20 11.8
      vertex 2.70001 0 11.8
      vertex 2.70001 20 11.8
    endloop
  endfacet
  facet normal 0 0 1
    outer loop
      vertex 2.70001 0 11.8
      vertex 0 20 11.8
      vertex 0 0 11.8
    endloop
  endfacet
  facet normal 1 -0 0
    outer loop
      vertex 2.70001 0 11.8
      vertex 2.70001 20 9.8
      vertex 2.70001 20 11.8
    endloop
  endfacet
  facet normal 1 0 0
    outer loop
      vertex 2.70001 20 9.8
      vertex 2.70001 0 11.8
      vertex 2.70001 0 9.8
    endloop
  endfacet
  facet normal -0 0 1
    outer loop
      vertex 2.70001 20 9.8
      vertex 6.6 0 9.8
      vertex 6.6 20 9.8
    endloop
  endfacet
  facet normal 0 0 1
    outer loop
      vertex 6.6 0 9.8
      vertex 2.70001 20 9.8
      vertex 2.70001 0 9.8
    endloop
  endfacet
endsolid OpenSCAD_Model
